%TF.GenerationSoftware,KiCad,Pcbnew,9.0.3*%
%TF.CreationDate,2025-08-19T04:28:39+03:00*%
%TF.ProjectId,esp,6573702e-6b69-4636-9164-5f7063625858,rev?*%
%TF.SameCoordinates,Original*%
%TF.FileFunction,Soldermask,Top*%
%TF.FilePolarity,Negative*%
%FSLAX46Y46*%
G04 Gerber Fmt 4.6, Leading zero omitted, Abs format (unit mm)*
G04 Created by KiCad (PCBNEW 9.0.3) date 2025-08-19 04:28:39*
%MOMM*%
%LPD*%
G01*
G04 APERTURE LIST*
G04 Aperture macros list*
%AMRoundRect*
0 Rectangle with rounded corners*
0 $1 Rounding radius*
0 $2 $3 $4 $5 $6 $7 $8 $9 X,Y pos of 4 corners*
0 Add a 4 corners polygon primitive as box body*
4,1,4,$2,$3,$4,$5,$6,$7,$8,$9,$2,$3,0*
0 Add four circle primitives for the rounded corners*
1,1,$1+$1,$2,$3*
1,1,$1+$1,$4,$5*
1,1,$1+$1,$6,$7*
1,1,$1+$1,$8,$9*
0 Add four rect primitives between the rounded corners*
20,1,$1+$1,$2,$3,$4,$5,0*
20,1,$1+$1,$4,$5,$6,$7,0*
20,1,$1+$1,$6,$7,$8,$9,0*
20,1,$1+$1,$8,$9,$2,$3,0*%
G04 Aperture macros list end*
%ADD10C,0.010000*%
%ADD11C,1.000000*%
%ADD12RoundRect,0.125000X-0.125000X-0.125000X0.125000X-0.125000X0.125000X0.125000X-0.125000X0.125000X0*%
%ADD13RoundRect,0.250000X-0.650000X0.412500X-0.650000X-0.412500X0.650000X-0.412500X0.650000X0.412500X0*%
%ADD14RoundRect,0.237500X0.250000X0.237500X-0.250000X0.237500X-0.250000X-0.237500X0.250000X-0.237500X0*%
%ADD15RoundRect,0.237500X-0.237500X0.300000X-0.237500X-0.300000X0.237500X-0.300000X0.237500X0.300000X0*%
%ADD16RoundRect,0.150000X-0.512500X-0.150000X0.512500X-0.150000X0.512500X0.150000X-0.512500X0.150000X0*%
%ADD17R,0.249999X0.549999*%
%ADD18R,1.000000X0.249999*%
%ADD19R,1.300000X0.249999*%
%ADD20R,0.549999X0.249999*%
%ADD21R,0.600000X1.550000*%
%ADD22R,1.200000X1.800000*%
%ADD23R,1.050000X1.500000*%
%ADD24O,1.050000X1.500000*%
%ADD25RoundRect,0.375000X0.375000X-0.625000X0.375000X0.625000X-0.375000X0.625000X-0.375000X-0.625000X0*%
%ADD26RoundRect,0.500000X1.400000X-0.500000X1.400000X0.500000X-1.400000X0.500000X-1.400000X-0.500000X0*%
%ADD27RoundRect,0.237500X0.237500X-0.250000X0.237500X0.250000X-0.237500X0.250000X-0.237500X-0.250000X0*%
%ADD28RoundRect,0.150000X0.150000X-0.800000X0.150000X0.800000X-0.150000X0.800000X-0.150000X-0.800000X0*%
%ADD29RoundRect,0.100000X0.575000X-0.100000X0.575000X0.100000X-0.575000X0.100000X-0.575000X-0.100000X0*%
%ADD30O,1.600000X0.900000*%
%ADD31RoundRect,0.250000X0.450000X-0.550000X0.450000X0.550000X-0.450000X0.550000X-0.450000X-0.550000X0*%
%ADD32RoundRect,0.250000X0.700000X-0.700000X0.700000X0.700000X-0.700000X0.700000X-0.700000X-0.700000X0*%
%ADD33RoundRect,0.237500X-0.300000X-0.237500X0.300000X-0.237500X0.300000X0.237500X-0.300000X0.237500X0*%
%ADD34RoundRect,0.237500X-0.237500X0.250000X-0.237500X-0.250000X0.237500X-0.250000X0.237500X0.250000X0*%
%ADD35RoundRect,0.102000X-0.550000X0.350000X-0.550000X-0.350000X0.550000X-0.350000X0.550000X0.350000X0*%
%ADD36RoundRect,0.102000X-0.550000X0.700000X-0.550000X-0.700000X0.550000X-0.700000X0.550000X0.700000X0*%
%ADD37C,2.000000*%
%ADD38C,4.000000*%
%ADD39RoundRect,0.237500X0.237500X-0.300000X0.237500X0.300000X-0.237500X0.300000X-0.237500X-0.300000X0*%
%ADD40RoundRect,0.218750X0.218750X0.256250X-0.218750X0.256250X-0.218750X-0.256250X0.218750X-0.256250X0*%
%ADD41RoundRect,0.062500X0.337500X0.062500X-0.337500X0.062500X-0.337500X-0.062500X0.337500X-0.062500X0*%
%ADD42RoundRect,0.062500X0.062500X0.337500X-0.062500X0.337500X-0.062500X-0.337500X0.062500X-0.337500X0*%
%ADD43R,3.350000X3.350000*%
%ADD44RoundRect,0.250000X0.412500X0.650000X-0.412500X0.650000X-0.412500X-0.650000X0.412500X-0.650000X0*%
%ADD45C,1.600000*%
%ADD46R,2.000000X4.000000*%
%ADD47O,2.000000X3.300000*%
%ADD48O,3.500000X2.000000*%
%ADD49R,0.900000X1.500000*%
%ADD50R,1.500000X0.900000*%
%ADD51R,4.200000X4.200000*%
%ADD52R,2.413000X5.334000*%
%ADD53RoundRect,0.237500X0.300000X0.237500X-0.300000X0.237500X-0.300000X-0.237500X0.300000X-0.237500X0*%
%ADD54RoundRect,0.237500X-0.250000X-0.237500X0.250000X-0.237500X0.250000X0.237500X-0.250000X0.237500X0*%
G04 APERTURE END LIST*
D10*
%TO.C,S1*%
X118087500Y-70150000D02*
X116537500Y-70150000D01*
X116537500Y-69575000D01*
X116538500Y-69549000D01*
X116540500Y-69523000D01*
X116543500Y-69497000D01*
X116548500Y-69471000D01*
X116554500Y-69446000D01*
X116561500Y-69420000D01*
X116570500Y-69396000D01*
X116580500Y-69372000D01*
X116591500Y-69348000D01*
X116604500Y-69325000D01*
X116618500Y-69303000D01*
X116632500Y-69281000D01*
X116648500Y-69260000D01*
X116665500Y-69240000D01*
X116683500Y-69221000D01*
X116702500Y-69203000D01*
X116722500Y-69186000D01*
X116743500Y-69170000D01*
X116765500Y-69156000D01*
X116787500Y-69142000D01*
X116810500Y-69129000D01*
X116834500Y-69118000D01*
X116858500Y-69108000D01*
X116882500Y-69099000D01*
X116908500Y-69092000D01*
X116933500Y-69086000D01*
X116959500Y-69081000D01*
X116985500Y-69078000D01*
X117011500Y-69076000D01*
X117037500Y-69075000D01*
X117237500Y-69075000D01*
X117237500Y-68800000D01*
X118087500Y-68800000D01*
X118087500Y-70150000D01*
G36*
X118087500Y-70150000D02*
G01*
X116537500Y-70150000D01*
X116537500Y-69575000D01*
X116538500Y-69549000D01*
X116540500Y-69523000D01*
X116543500Y-69497000D01*
X116548500Y-69471000D01*
X116554500Y-69446000D01*
X116561500Y-69420000D01*
X116570500Y-69396000D01*
X116580500Y-69372000D01*
X116591500Y-69348000D01*
X116604500Y-69325000D01*
X116618500Y-69303000D01*
X116632500Y-69281000D01*
X116648500Y-69260000D01*
X116665500Y-69240000D01*
X116683500Y-69221000D01*
X116702500Y-69203000D01*
X116722500Y-69186000D01*
X116743500Y-69170000D01*
X116765500Y-69156000D01*
X116787500Y-69142000D01*
X116810500Y-69129000D01*
X116834500Y-69118000D01*
X116858500Y-69108000D01*
X116882500Y-69099000D01*
X116908500Y-69092000D01*
X116933500Y-69086000D01*
X116959500Y-69081000D01*
X116985500Y-69078000D01*
X117011500Y-69076000D01*
X117037500Y-69075000D01*
X117237500Y-69075000D01*
X117237500Y-68800000D01*
X118087500Y-68800000D01*
X118087500Y-70150000D01*
G37*
X118087500Y-66675000D02*
X118087500Y-66700000D01*
X117237500Y-66700000D01*
X117237500Y-66425000D01*
X117037500Y-66425000D01*
X117011500Y-66424000D01*
X116985500Y-66422000D01*
X116959500Y-66419000D01*
X116933500Y-66414000D01*
X116908500Y-66408000D01*
X116882500Y-66401000D01*
X116858500Y-66392000D01*
X116834500Y-66382000D01*
X116810500Y-66371000D01*
X116787500Y-66358000D01*
X116765500Y-66344000D01*
X116743500Y-66330000D01*
X116722500Y-66314000D01*
X116702500Y-66297000D01*
X116683500Y-66279000D01*
X116665500Y-66260000D01*
X116648500Y-66240000D01*
X116632500Y-66219000D01*
X116618500Y-66197000D01*
X116604500Y-66175000D01*
X116591500Y-66152000D01*
X116580500Y-66128000D01*
X116570500Y-66104000D01*
X116561500Y-66080000D01*
X116554500Y-66054000D01*
X116548500Y-66029000D01*
X116543500Y-66003000D01*
X116540500Y-65977000D01*
X116538500Y-65951000D01*
X116537500Y-65925000D01*
X116537500Y-65350000D01*
X118087500Y-65350000D01*
X118087500Y-66675000D01*
G36*
X118087500Y-66675000D02*
G01*
X118087500Y-66700000D01*
X117237500Y-66700000D01*
X117237500Y-66425000D01*
X117037500Y-66425000D01*
X117011500Y-66424000D01*
X116985500Y-66422000D01*
X116959500Y-66419000D01*
X116933500Y-66414000D01*
X116908500Y-66408000D01*
X116882500Y-66401000D01*
X116858500Y-66392000D01*
X116834500Y-66382000D01*
X116810500Y-66371000D01*
X116787500Y-66358000D01*
X116765500Y-66344000D01*
X116743500Y-66330000D01*
X116722500Y-66314000D01*
X116702500Y-66297000D01*
X116683500Y-66279000D01*
X116665500Y-66260000D01*
X116648500Y-66240000D01*
X116632500Y-66219000D01*
X116618500Y-66197000D01*
X116604500Y-66175000D01*
X116591500Y-66152000D01*
X116580500Y-66128000D01*
X116570500Y-66104000D01*
X116561500Y-66080000D01*
X116554500Y-66054000D01*
X116548500Y-66029000D01*
X116543500Y-66003000D01*
X116540500Y-65977000D01*
X116538500Y-65951000D01*
X116537500Y-65925000D01*
X116537500Y-65350000D01*
X118087500Y-65350000D01*
X118087500Y-66675000D01*
G37*
%TO.C,S2*%
X118087500Y-64150000D02*
X116537500Y-64150000D01*
X116537500Y-63575000D01*
X116538500Y-63549000D01*
X116540500Y-63523000D01*
X116543500Y-63497000D01*
X116548500Y-63471000D01*
X116554500Y-63446000D01*
X116561500Y-63420000D01*
X116570500Y-63396000D01*
X116580500Y-63372000D01*
X116591500Y-63348000D01*
X116604500Y-63325000D01*
X116618500Y-63303000D01*
X116632500Y-63281000D01*
X116648500Y-63260000D01*
X116665500Y-63240000D01*
X116683500Y-63221000D01*
X116702500Y-63203000D01*
X116722500Y-63186000D01*
X116743500Y-63170000D01*
X116765500Y-63156000D01*
X116787500Y-63142000D01*
X116810500Y-63129000D01*
X116834500Y-63118000D01*
X116858500Y-63108000D01*
X116882500Y-63099000D01*
X116908500Y-63092000D01*
X116933500Y-63086000D01*
X116959500Y-63081000D01*
X116985500Y-63078000D01*
X117011500Y-63076000D01*
X117037500Y-63075000D01*
X117237500Y-63075000D01*
X117237500Y-62800000D01*
X118087500Y-62800000D01*
X118087500Y-64150000D01*
G36*
X118087500Y-64150000D02*
G01*
X116537500Y-64150000D01*
X116537500Y-63575000D01*
X116538500Y-63549000D01*
X116540500Y-63523000D01*
X116543500Y-63497000D01*
X116548500Y-63471000D01*
X116554500Y-63446000D01*
X116561500Y-63420000D01*
X116570500Y-63396000D01*
X116580500Y-63372000D01*
X116591500Y-63348000D01*
X116604500Y-63325000D01*
X116618500Y-63303000D01*
X116632500Y-63281000D01*
X116648500Y-63260000D01*
X116665500Y-63240000D01*
X116683500Y-63221000D01*
X116702500Y-63203000D01*
X116722500Y-63186000D01*
X116743500Y-63170000D01*
X116765500Y-63156000D01*
X116787500Y-63142000D01*
X116810500Y-63129000D01*
X116834500Y-63118000D01*
X116858500Y-63108000D01*
X116882500Y-63099000D01*
X116908500Y-63092000D01*
X116933500Y-63086000D01*
X116959500Y-63081000D01*
X116985500Y-63078000D01*
X117011500Y-63076000D01*
X117037500Y-63075000D01*
X117237500Y-63075000D01*
X117237500Y-62800000D01*
X118087500Y-62800000D01*
X118087500Y-64150000D01*
G37*
X118087500Y-60675000D02*
X118087500Y-60700000D01*
X117237500Y-60700000D01*
X117237500Y-60425000D01*
X117037500Y-60425000D01*
X117011500Y-60424000D01*
X116985500Y-60422000D01*
X116959500Y-60419000D01*
X116933500Y-60414000D01*
X116908500Y-60408000D01*
X116882500Y-60401000D01*
X116858500Y-60392000D01*
X116834500Y-60382000D01*
X116810500Y-60371000D01*
X116787500Y-60358000D01*
X116765500Y-60344000D01*
X116743500Y-60330000D01*
X116722500Y-60314000D01*
X116702500Y-60297000D01*
X116683500Y-60279000D01*
X116665500Y-60260000D01*
X116648500Y-60240000D01*
X116632500Y-60219000D01*
X116618500Y-60197000D01*
X116604500Y-60175000D01*
X116591500Y-60152000D01*
X116580500Y-60128000D01*
X116570500Y-60104000D01*
X116561500Y-60080000D01*
X116554500Y-60054000D01*
X116548500Y-60029000D01*
X116543500Y-60003000D01*
X116540500Y-59977000D01*
X116538500Y-59951000D01*
X116537500Y-59925000D01*
X116537500Y-59350000D01*
X118087500Y-59350000D01*
X118087500Y-60675000D01*
G36*
X118087500Y-60675000D02*
G01*
X118087500Y-60700000D01*
X117237500Y-60700000D01*
X117237500Y-60425000D01*
X117037500Y-60425000D01*
X117011500Y-60424000D01*
X116985500Y-60422000D01*
X116959500Y-60419000D01*
X116933500Y-60414000D01*
X116908500Y-60408000D01*
X116882500Y-60401000D01*
X116858500Y-60392000D01*
X116834500Y-60382000D01*
X116810500Y-60371000D01*
X116787500Y-60358000D01*
X116765500Y-60344000D01*
X116743500Y-60330000D01*
X116722500Y-60314000D01*
X116702500Y-60297000D01*
X116683500Y-60279000D01*
X116665500Y-60260000D01*
X116648500Y-60240000D01*
X116632500Y-60219000D01*
X116618500Y-60197000D01*
X116604500Y-60175000D01*
X116591500Y-60152000D01*
X116580500Y-60128000D01*
X116570500Y-60104000D01*
X116561500Y-60080000D01*
X116554500Y-60054000D01*
X116548500Y-60029000D01*
X116543500Y-60003000D01*
X116540500Y-59977000D01*
X116538500Y-59951000D01*
X116537500Y-59925000D01*
X116537500Y-59350000D01*
X118087500Y-59350000D01*
X118087500Y-60675000D01*
G37*
%TD*%
D11*
%TO.C,Y1*%
X90200000Y-80450000D03*
X90200000Y-78550000D03*
%TD*%
D12*
%TO.C,D3*%
X74300000Y-92250000D03*
X76500000Y-92250000D03*
%TD*%
D13*
%TO.C,C6*%
X104500000Y-92037500D03*
X104500000Y-95162500D03*
%TD*%
D14*
%TO.C,R5*%
X83912500Y-83450000D03*
X82087500Y-83450000D03*
%TD*%
D15*
%TO.C,C10*%
X96000000Y-97037500D03*
X96000000Y-98762500D03*
%TD*%
D16*
%TO.C,U1*%
X109862500Y-77050000D03*
X109862500Y-78000000D03*
X109862500Y-78950000D03*
X112137500Y-78950000D03*
X112137500Y-78000000D03*
X112137500Y-77050000D03*
%TD*%
D17*
%TO.C,U6*%
X97699998Y-95124997D03*
X98199997Y-95124997D03*
X98699999Y-95124997D03*
D18*
X98649999Y-94450000D03*
D17*
X98699999Y-93274998D03*
X98199997Y-93274998D03*
X97699998Y-93274998D03*
D19*
X97900001Y-93950000D03*
D20*
X97525000Y-94450000D03*
%TD*%
D21*
%TO.C,J3*%
X83346000Y-43599999D03*
X82345999Y-43599999D03*
X81345999Y-43599999D03*
X80346001Y-43599999D03*
D22*
X84646000Y-39699999D03*
X79046001Y-39699999D03*
%TD*%
D23*
%TO.C,Q1*%
X94600000Y-81460000D03*
D24*
X95870000Y-81460000D03*
X97140000Y-81460000D03*
%TD*%
D13*
%TO.C,C17*%
X83000000Y-94587500D03*
X83000000Y-97712500D03*
%TD*%
%TO.C,C7*%
X102200000Y-92037500D03*
X102200000Y-95162500D03*
%TD*%
D14*
%TO.C,R11*%
X99812500Y-101900000D03*
X97987500Y-101900000D03*
%TD*%
D25*
%TO.C,U5*%
X66500000Y-94900000D03*
X68800000Y-94900000D03*
D26*
X68800000Y-88600000D03*
D25*
X71100000Y-94900000D03*
%TD*%
D27*
%TO.C,R1*%
X108100000Y-73812500D03*
X108100000Y-71987500D03*
%TD*%
%TO.C,R12*%
X99000000Y-98812500D03*
X99000000Y-96987500D03*
%TD*%
D28*
%TO.C,U3*%
X87395000Y-75600000D03*
X88665000Y-75600000D03*
X89935000Y-75600000D03*
X91205000Y-75600000D03*
X91205000Y-68600000D03*
X89935000Y-68600000D03*
X88665000Y-68600000D03*
X87395000Y-68600000D03*
%TD*%
D29*
%TO.C,J2*%
X115325000Y-79000000D03*
X115325000Y-78350000D03*
X115325000Y-77700000D03*
X115325000Y-77050000D03*
X115325000Y-76400000D03*
D30*
X118000000Y-81000000D03*
D31*
X115550000Y-80900000D03*
D32*
X118000000Y-78900000D03*
X118000000Y-76500000D03*
D31*
X115550000Y-74500000D03*
D30*
X118000000Y-74400000D03*
%TD*%
D13*
%TO.C,C12*%
X63700000Y-92087500D03*
X63700000Y-95212500D03*
%TD*%
D33*
%TO.C,C1*%
X109737500Y-75400000D03*
X111462500Y-75400000D03*
%TD*%
%TO.C,C20*%
X83237500Y-75650000D03*
X84962500Y-75650000D03*
%TD*%
D15*
%TO.C,C19*%
X84900000Y-95087500D03*
X84900000Y-96812500D03*
%TD*%
D34*
%TO.C,R9*%
X99700000Y-75987500D03*
X99700000Y-77812500D03*
%TD*%
D15*
%TO.C,C9*%
X97500000Y-97037500D03*
X97500000Y-98762500D03*
%TD*%
D33*
%TO.C,C2*%
X109737500Y-73900000D03*
X111462500Y-73900000D03*
%TD*%
D35*
%TO.C,S1*%
X115687500Y-66350000D03*
X115687500Y-69150000D03*
D36*
X115537500Y-67750000D03*
%TD*%
D37*
%TO.C,bat_3v1*%
X87275062Y-58500000D03*
X107275062Y-58500000D03*
%TD*%
D38*
%TO.C,HO1*%
X44500000Y-101750000D03*
%TD*%
%TO.C,HO2*%
X112000000Y-101750000D03*
%TD*%
D39*
%TO.C,C3*%
X113200000Y-68612500D03*
X113200000Y-66887500D03*
%TD*%
D27*
%TO.C,R7*%
X95070000Y-77812500D03*
X95070000Y-75987500D03*
%TD*%
D40*
%TO.C,D1*%
X84287500Y-65350000D03*
X82712500Y-65350000D03*
%TD*%
D41*
%TO.C,U2*%
X107000000Y-79750000D03*
X107000000Y-79250000D03*
X107000000Y-78750000D03*
X107000000Y-78250000D03*
X107000000Y-77750000D03*
X107000000Y-77250000D03*
X107000000Y-76750000D03*
D42*
X106050000Y-75800000D03*
X105550000Y-75800000D03*
X105050000Y-75800000D03*
X104550000Y-75800000D03*
X104050000Y-75800000D03*
X103550000Y-75800000D03*
X103050000Y-75800000D03*
D41*
X102100000Y-76750000D03*
X102100000Y-77250000D03*
X102100000Y-77750000D03*
X102100000Y-78250000D03*
X102100000Y-78750000D03*
X102100000Y-79250000D03*
X102100000Y-79750000D03*
D42*
X103050000Y-80700000D03*
X103550000Y-80700000D03*
X104050000Y-80700000D03*
X104550000Y-80700000D03*
X105050000Y-80700000D03*
X105550000Y-80700000D03*
X106050000Y-80700000D03*
D43*
X104550000Y-78250000D03*
%TD*%
D27*
%TO.C,R8*%
X96670000Y-77812500D03*
X96670000Y-75987500D03*
%TD*%
D35*
%TO.C,S2*%
X115687500Y-60350000D03*
X115687500Y-63150000D03*
D36*
X115537500Y-61750000D03*
%TD*%
D44*
%TO.C,C11*%
X70262500Y-97750000D03*
X67137500Y-97750000D03*
%TD*%
D45*
%TO.C,J1*%
X117200000Y-92200000D03*
D46*
X108200000Y-92200000D03*
D47*
X114200000Y-92200000D03*
D48*
X115200000Y-96700000D03*
X115200000Y-87700000D03*
%TD*%
D39*
%TO.C,C13*%
X97300000Y-91962500D03*
X97300000Y-90237500D03*
%TD*%
D49*
%TO.C,U4*%
X58450000Y-81350000D03*
X59720000Y-81350000D03*
X60990000Y-81350000D03*
X62260000Y-81350000D03*
X63530000Y-81350000D03*
X64800000Y-81350000D03*
X66070000Y-81350000D03*
X67340000Y-81350000D03*
X68610000Y-81350000D03*
X69880000Y-81350000D03*
X71150000Y-81350000D03*
X72420000Y-81350000D03*
X73690000Y-81350000D03*
X74960000Y-81350000D03*
D50*
X76210000Y-78310000D03*
X76210000Y-77040000D03*
X76210000Y-75770000D03*
X76210000Y-74500000D03*
X76210000Y-73230000D03*
X76210000Y-71960000D03*
X76210000Y-70690000D03*
X76210000Y-69420000D03*
X76210000Y-68150000D03*
X76210000Y-66880000D03*
D49*
X74960000Y-63850000D03*
X73690000Y-63850000D03*
X72420000Y-63850000D03*
X71150000Y-63850000D03*
X69880000Y-63850000D03*
X68610000Y-63850000D03*
X67340000Y-63850000D03*
X66070000Y-63850000D03*
X64800000Y-63850000D03*
X63530000Y-63850000D03*
X62260000Y-63850000D03*
X60990000Y-63850000D03*
X59720000Y-63850000D03*
X58450000Y-63850000D03*
D51*
X65790000Y-73280000D03*
%TD*%
D12*
%TO.C,D2*%
X74300000Y-94850000D03*
X76500000Y-94850000D03*
%TD*%
D52*
%TO.C,L2*%
X87180500Y-92350000D03*
X94419500Y-92350000D03*
%TD*%
D38*
%TO.C,HO4*%
X112000000Y-40500000D03*
%TD*%
D27*
%TO.C,R3*%
X105100000Y-73812500D03*
X105100000Y-71987500D03*
%TD*%
D34*
%TO.C,R10*%
X98200000Y-75987500D03*
X98200000Y-77812500D03*
%TD*%
D53*
%TO.C,C5*%
X60047500Y-83500000D03*
X58322500Y-83500000D03*
%TD*%
D23*
%TO.C,Q2*%
X97140000Y-72340000D03*
D24*
X95870000Y-72340000D03*
X94600000Y-72340000D03*
%TD*%
D44*
%TO.C,C4*%
X61447500Y-85700000D03*
X58322500Y-85700000D03*
%TD*%
D33*
%TO.C,C14*%
X98037500Y-100400000D03*
X99762500Y-100400000D03*
%TD*%
D34*
%TO.C,R2*%
X106600000Y-71987500D03*
X106600000Y-73812500D03*
%TD*%
D15*
%TO.C,C8*%
X100200000Y-92737500D03*
X100200000Y-94462500D03*
%TD*%
D34*
%TO.C,R4*%
X103600000Y-71987500D03*
X103600000Y-73812500D03*
%TD*%
D13*
%TO.C,C18*%
X80700000Y-94587500D03*
X80700000Y-97712500D03*
%TD*%
D54*
%TO.C,R6*%
X79187500Y-65350000D03*
X81012500Y-65350000D03*
%TD*%
D38*
%TO.C,HO3*%
X44500000Y-40500000D03*
%TD*%
D39*
%TO.C,C16*%
X113400000Y-62612500D03*
X113400000Y-60887500D03*
%TD*%
M02*
