%TF.GenerationSoftware,KiCad,Pcbnew,9.0.3*%
%TF.CreationDate,2025-08-19T04:28:39+03:00*%
%TF.ProjectId,esp,6573702e-6b69-4636-9164-5f7063625858,rev?*%
%TF.SameCoordinates,Original*%
%TF.FileFunction,Copper,L1,Top*%
%TF.FilePolarity,Positive*%
%FSLAX46Y46*%
G04 Gerber Fmt 4.6, Leading zero omitted, Abs format (unit mm)*
G04 Created by KiCad (PCBNEW 9.0.3) date 2025-08-19 04:28:39*
%MOMM*%
%LPD*%
G01*
G04 APERTURE LIST*
G04 Aperture macros list*
%AMRoundRect*
0 Rectangle with rounded corners*
0 $1 Rounding radius*
0 $2 $3 $4 $5 $6 $7 $8 $9 X,Y pos of 4 corners*
0 Add a 4 corners polygon primitive as box body*
4,1,4,$2,$3,$4,$5,$6,$7,$8,$9,$2,$3,0*
0 Add four circle primitives for the rounded corners*
1,1,$1+$1,$2,$3*
1,1,$1+$1,$4,$5*
1,1,$1+$1,$6,$7*
1,1,$1+$1,$8,$9*
0 Add four rect primitives between the rounded corners*
20,1,$1+$1,$2,$3,$4,$5,0*
20,1,$1+$1,$4,$5,$6,$7,0*
20,1,$1+$1,$6,$7,$8,$9,0*
20,1,$1+$1,$8,$9,$2,$3,0*%
G04 Aperture macros list end*
%TA.AperFunction,EtchedComponent*%
%ADD10C,0.010000*%
%TD*%
%TA.AperFunction,ComponentPad*%
%ADD11C,1.000000*%
%TD*%
%TA.AperFunction,SMDPad,CuDef*%
%ADD12RoundRect,0.125000X-0.125000X-0.125000X0.125000X-0.125000X0.125000X0.125000X-0.125000X0.125000X0*%
%TD*%
%TA.AperFunction,SMDPad,CuDef*%
%ADD13RoundRect,0.250000X-0.650000X0.412500X-0.650000X-0.412500X0.650000X-0.412500X0.650000X0.412500X0*%
%TD*%
%TA.AperFunction,SMDPad,CuDef*%
%ADD14RoundRect,0.237500X0.250000X0.237500X-0.250000X0.237500X-0.250000X-0.237500X0.250000X-0.237500X0*%
%TD*%
%TA.AperFunction,SMDPad,CuDef*%
%ADD15RoundRect,0.237500X-0.237500X0.300000X-0.237500X-0.300000X0.237500X-0.300000X0.237500X0.300000X0*%
%TD*%
%TA.AperFunction,SMDPad,CuDef*%
%ADD16RoundRect,0.150000X-0.512500X-0.150000X0.512500X-0.150000X0.512500X0.150000X-0.512500X0.150000X0*%
%TD*%
%TA.AperFunction,SMDPad,CuDef*%
%ADD17R,0.249999X0.549999*%
%TD*%
%TA.AperFunction,SMDPad,CuDef*%
%ADD18R,1.000000X0.249999*%
%TD*%
%TA.AperFunction,SMDPad,CuDef*%
%ADD19R,1.300000X0.249999*%
%TD*%
%TA.AperFunction,SMDPad,CuDef*%
%ADD20R,0.549999X0.249999*%
%TD*%
%TA.AperFunction,SMDPad,CuDef*%
%ADD21R,0.600000X1.550000*%
%TD*%
%TA.AperFunction,SMDPad,CuDef*%
%ADD22R,1.200000X1.800000*%
%TD*%
%TA.AperFunction,ComponentPad*%
%ADD23R,1.050000X1.500000*%
%TD*%
%TA.AperFunction,ComponentPad*%
%ADD24O,1.050000X1.500000*%
%TD*%
%TA.AperFunction,SMDPad,CuDef*%
%ADD25RoundRect,0.375000X0.375000X-0.625000X0.375000X0.625000X-0.375000X0.625000X-0.375000X-0.625000X0*%
%TD*%
%TA.AperFunction,SMDPad,CuDef*%
%ADD26RoundRect,0.500000X1.400000X-0.500000X1.400000X0.500000X-1.400000X0.500000X-1.400000X-0.500000X0*%
%TD*%
%TA.AperFunction,SMDPad,CuDef*%
%ADD27RoundRect,0.237500X0.237500X-0.250000X0.237500X0.250000X-0.237500X0.250000X-0.237500X-0.250000X0*%
%TD*%
%TA.AperFunction,SMDPad,CuDef*%
%ADD28RoundRect,0.150000X0.150000X-0.800000X0.150000X0.800000X-0.150000X0.800000X-0.150000X-0.800000X0*%
%TD*%
%TA.AperFunction,SMDPad,CuDef*%
%ADD29RoundRect,0.100000X0.575000X-0.100000X0.575000X0.100000X-0.575000X0.100000X-0.575000X-0.100000X0*%
%TD*%
%TA.AperFunction,ComponentPad*%
%ADD30O,1.600000X0.900000*%
%TD*%
%TA.AperFunction,SMDPad,CuDef*%
%ADD31RoundRect,0.250000X0.450000X-0.550000X0.450000X0.550000X-0.450000X0.550000X-0.450000X-0.550000X0*%
%TD*%
%TA.AperFunction,SMDPad,CuDef*%
%ADD32RoundRect,0.250000X0.700000X-0.700000X0.700000X0.700000X-0.700000X0.700000X-0.700000X-0.700000X0*%
%TD*%
%TA.AperFunction,SMDPad,CuDef*%
%ADD33RoundRect,0.237500X-0.300000X-0.237500X0.300000X-0.237500X0.300000X0.237500X-0.300000X0.237500X0*%
%TD*%
%TA.AperFunction,SMDPad,CuDef*%
%ADD34RoundRect,0.237500X-0.237500X0.250000X-0.237500X-0.250000X0.237500X-0.250000X0.237500X0.250000X0*%
%TD*%
%TA.AperFunction,SMDPad,CuDef*%
%ADD35R,1.100000X0.700000*%
%TD*%
%TA.AperFunction,ComponentPad*%
%ADD36C,0.800000*%
%TD*%
%TA.AperFunction,SMDPad,CuDef*%
%ADD37R,1.100000X1.400000*%
%TD*%
%TA.AperFunction,ComponentPad*%
%ADD38C,2.000000*%
%TD*%
%TA.AperFunction,ComponentPad*%
%ADD39C,4.000000*%
%TD*%
%TA.AperFunction,SMDPad,CuDef*%
%ADD40RoundRect,0.237500X0.237500X-0.300000X0.237500X0.300000X-0.237500X0.300000X-0.237500X-0.300000X0*%
%TD*%
%TA.AperFunction,SMDPad,CuDef*%
%ADD41RoundRect,0.218750X0.218750X0.256250X-0.218750X0.256250X-0.218750X-0.256250X0.218750X-0.256250X0*%
%TD*%
%TA.AperFunction,SMDPad,CuDef*%
%ADD42RoundRect,0.062500X0.337500X0.062500X-0.337500X0.062500X-0.337500X-0.062500X0.337500X-0.062500X0*%
%TD*%
%TA.AperFunction,SMDPad,CuDef*%
%ADD43RoundRect,0.062500X0.062500X0.337500X-0.062500X0.337500X-0.062500X-0.337500X0.062500X-0.337500X0*%
%TD*%
%TA.AperFunction,HeatsinkPad*%
%ADD44R,3.350000X3.350000*%
%TD*%
%TA.AperFunction,SMDPad,CuDef*%
%ADD45RoundRect,0.250000X0.412500X0.650000X-0.412500X0.650000X-0.412500X-0.650000X0.412500X-0.650000X0*%
%TD*%
%TA.AperFunction,ComponentPad*%
%ADD46R,2.000000X4.000000*%
%TD*%
%TA.AperFunction,ComponentPad*%
%ADD47O,2.000000X3.300000*%
%TD*%
%TA.AperFunction,ComponentPad*%
%ADD48O,3.500000X2.000000*%
%TD*%
%TA.AperFunction,SMDPad,CuDef*%
%ADD49R,0.900000X1.500000*%
%TD*%
%TA.AperFunction,SMDPad,CuDef*%
%ADD50R,1.500000X0.900000*%
%TD*%
%TA.AperFunction,SMDPad,CuDef*%
%ADD51R,4.200000X4.200000*%
%TD*%
%TA.AperFunction,SMDPad,CuDef*%
%ADD52R,2.413000X5.334000*%
%TD*%
%TA.AperFunction,SMDPad,CuDef*%
%ADD53RoundRect,0.237500X0.300000X0.237500X-0.300000X0.237500X-0.300000X-0.237500X0.300000X-0.237500X0*%
%TD*%
%TA.AperFunction,SMDPad,CuDef*%
%ADD54RoundRect,0.237500X-0.250000X-0.237500X0.250000X-0.237500X0.250000X0.237500X-0.250000X0.237500X0*%
%TD*%
%TA.AperFunction,ViaPad*%
%ADD55C,0.600000*%
%TD*%
%TA.AperFunction,Conductor*%
%ADD56C,0.200000*%
%TD*%
%TA.AperFunction,Conductor*%
%ADD57C,1.000000*%
%TD*%
%TA.AperFunction,Conductor*%
%ADD58C,0.500000*%
%TD*%
%TA.AperFunction,Conductor*%
%ADD59C,0.400000*%
%TD*%
G04 APERTURE END LIST*
D10*
%TO.C,S1*%
X117987500Y-70050000D02*
X116637500Y-70050000D01*
X116637500Y-69575000D01*
X116638500Y-69554000D01*
X116639500Y-69533000D01*
X116642500Y-69512000D01*
X116646500Y-69492000D01*
X116651500Y-69471000D01*
X116657500Y-69451000D01*
X116664500Y-69432000D01*
X116672500Y-69412000D01*
X116681500Y-69393000D01*
X116691500Y-69375000D01*
X116702500Y-69357000D01*
X116713500Y-69340000D01*
X116726500Y-69323000D01*
X116740500Y-69307000D01*
X116754500Y-69292000D01*
X116769500Y-69278000D01*
X116785500Y-69264000D01*
X116802500Y-69251000D01*
X116819500Y-69240000D01*
X116837500Y-69229000D01*
X116855500Y-69219000D01*
X116874500Y-69210000D01*
X116894500Y-69202000D01*
X116913500Y-69195000D01*
X116933500Y-69189000D01*
X116954500Y-69184000D01*
X116974500Y-69180000D01*
X116995500Y-69177000D01*
X117016500Y-69176000D01*
X117037500Y-69175000D01*
X117337500Y-69175000D01*
X117337500Y-68900000D01*
X117987500Y-68900000D01*
X117987500Y-70050000D01*
%TA.AperFunction,EtchedComponent*%
G36*
X117987500Y-70050000D02*
G01*
X116637500Y-70050000D01*
X116637500Y-69575000D01*
X116638500Y-69554000D01*
X116639500Y-69533000D01*
X116642500Y-69512000D01*
X116646500Y-69492000D01*
X116651500Y-69471000D01*
X116657500Y-69451000D01*
X116664500Y-69432000D01*
X116672500Y-69412000D01*
X116681500Y-69393000D01*
X116691500Y-69375000D01*
X116702500Y-69357000D01*
X116713500Y-69340000D01*
X116726500Y-69323000D01*
X116740500Y-69307000D01*
X116754500Y-69292000D01*
X116769500Y-69278000D01*
X116785500Y-69264000D01*
X116802500Y-69251000D01*
X116819500Y-69240000D01*
X116837500Y-69229000D01*
X116855500Y-69219000D01*
X116874500Y-69210000D01*
X116894500Y-69202000D01*
X116913500Y-69195000D01*
X116933500Y-69189000D01*
X116954500Y-69184000D01*
X116974500Y-69180000D01*
X116995500Y-69177000D01*
X117016500Y-69176000D01*
X117037500Y-69175000D01*
X117337500Y-69175000D01*
X117337500Y-68900000D01*
X117987500Y-68900000D01*
X117987500Y-70050000D01*
G37*
%TD.AperFunction*%
X117987500Y-65455000D02*
X117987500Y-66600000D01*
X117337500Y-66600000D01*
X117337500Y-66325000D01*
X117037500Y-66325000D01*
X117016500Y-66324000D01*
X116995500Y-66323000D01*
X116974500Y-66320000D01*
X116954500Y-66316000D01*
X116933500Y-66311000D01*
X116913500Y-66305000D01*
X116894500Y-66298000D01*
X116874500Y-66290000D01*
X116855500Y-66281000D01*
X116837500Y-66271000D01*
X116819500Y-66260000D01*
X116802500Y-66249000D01*
X116785500Y-66236000D01*
X116769500Y-66222000D01*
X116754500Y-66208000D01*
X116740500Y-66193000D01*
X116726500Y-66177000D01*
X116713500Y-66160000D01*
X116702500Y-66143000D01*
X116691500Y-66125000D01*
X116681500Y-66107000D01*
X116672500Y-66088000D01*
X116664500Y-66068000D01*
X116657500Y-66049000D01*
X116651500Y-66029000D01*
X116646500Y-66008000D01*
X116642500Y-65988000D01*
X116639500Y-65967000D01*
X116638500Y-65946000D01*
X116637500Y-65925000D01*
X116637500Y-65450000D01*
X117987500Y-65450000D01*
X117987500Y-65455000D01*
%TA.AperFunction,EtchedComponent*%
G36*
X117987500Y-65455000D02*
G01*
X117987500Y-66600000D01*
X117337500Y-66600000D01*
X117337500Y-66325000D01*
X117037500Y-66325000D01*
X117016500Y-66324000D01*
X116995500Y-66323000D01*
X116974500Y-66320000D01*
X116954500Y-66316000D01*
X116933500Y-66311000D01*
X116913500Y-66305000D01*
X116894500Y-66298000D01*
X116874500Y-66290000D01*
X116855500Y-66281000D01*
X116837500Y-66271000D01*
X116819500Y-66260000D01*
X116802500Y-66249000D01*
X116785500Y-66236000D01*
X116769500Y-66222000D01*
X116754500Y-66208000D01*
X116740500Y-66193000D01*
X116726500Y-66177000D01*
X116713500Y-66160000D01*
X116702500Y-66143000D01*
X116691500Y-66125000D01*
X116681500Y-66107000D01*
X116672500Y-66088000D01*
X116664500Y-66068000D01*
X116657500Y-66049000D01*
X116651500Y-66029000D01*
X116646500Y-66008000D01*
X116642500Y-65988000D01*
X116639500Y-65967000D01*
X116638500Y-65946000D01*
X116637500Y-65925000D01*
X116637500Y-65450000D01*
X117987500Y-65450000D01*
X117987500Y-65455000D01*
G37*
%TD.AperFunction*%
%TO.C,S2*%
X117987500Y-64050000D02*
X116637500Y-64050000D01*
X116637500Y-63575000D01*
X116638500Y-63554000D01*
X116639500Y-63533000D01*
X116642500Y-63512000D01*
X116646500Y-63492000D01*
X116651500Y-63471000D01*
X116657500Y-63451000D01*
X116664500Y-63432000D01*
X116672500Y-63412000D01*
X116681500Y-63393000D01*
X116691500Y-63375000D01*
X116702500Y-63357000D01*
X116713500Y-63340000D01*
X116726500Y-63323000D01*
X116740500Y-63307000D01*
X116754500Y-63292000D01*
X116769500Y-63278000D01*
X116785500Y-63264000D01*
X116802500Y-63251000D01*
X116819500Y-63240000D01*
X116837500Y-63229000D01*
X116855500Y-63219000D01*
X116874500Y-63210000D01*
X116894500Y-63202000D01*
X116913500Y-63195000D01*
X116933500Y-63189000D01*
X116954500Y-63184000D01*
X116974500Y-63180000D01*
X116995500Y-63177000D01*
X117016500Y-63176000D01*
X117037500Y-63175000D01*
X117337500Y-63175000D01*
X117337500Y-62900000D01*
X117987500Y-62900000D01*
X117987500Y-64050000D01*
%TA.AperFunction,EtchedComponent*%
G36*
X117987500Y-64050000D02*
G01*
X116637500Y-64050000D01*
X116637500Y-63575000D01*
X116638500Y-63554000D01*
X116639500Y-63533000D01*
X116642500Y-63512000D01*
X116646500Y-63492000D01*
X116651500Y-63471000D01*
X116657500Y-63451000D01*
X116664500Y-63432000D01*
X116672500Y-63412000D01*
X116681500Y-63393000D01*
X116691500Y-63375000D01*
X116702500Y-63357000D01*
X116713500Y-63340000D01*
X116726500Y-63323000D01*
X116740500Y-63307000D01*
X116754500Y-63292000D01*
X116769500Y-63278000D01*
X116785500Y-63264000D01*
X116802500Y-63251000D01*
X116819500Y-63240000D01*
X116837500Y-63229000D01*
X116855500Y-63219000D01*
X116874500Y-63210000D01*
X116894500Y-63202000D01*
X116913500Y-63195000D01*
X116933500Y-63189000D01*
X116954500Y-63184000D01*
X116974500Y-63180000D01*
X116995500Y-63177000D01*
X117016500Y-63176000D01*
X117037500Y-63175000D01*
X117337500Y-63175000D01*
X117337500Y-62900000D01*
X117987500Y-62900000D01*
X117987500Y-64050000D01*
G37*
%TD.AperFunction*%
X117987500Y-59455000D02*
X117987500Y-60600000D01*
X117337500Y-60600000D01*
X117337500Y-60325000D01*
X117037500Y-60325000D01*
X117016500Y-60324000D01*
X116995500Y-60323000D01*
X116974500Y-60320000D01*
X116954500Y-60316000D01*
X116933500Y-60311000D01*
X116913500Y-60305000D01*
X116894500Y-60298000D01*
X116874500Y-60290000D01*
X116855500Y-60281000D01*
X116837500Y-60271000D01*
X116819500Y-60260000D01*
X116802500Y-60249000D01*
X116785500Y-60236000D01*
X116769500Y-60222000D01*
X116754500Y-60208000D01*
X116740500Y-60193000D01*
X116726500Y-60177000D01*
X116713500Y-60160000D01*
X116702500Y-60143000D01*
X116691500Y-60125000D01*
X116681500Y-60107000D01*
X116672500Y-60088000D01*
X116664500Y-60068000D01*
X116657500Y-60049000D01*
X116651500Y-60029000D01*
X116646500Y-60008000D01*
X116642500Y-59988000D01*
X116639500Y-59967000D01*
X116638500Y-59946000D01*
X116637500Y-59925000D01*
X116637500Y-59450000D01*
X117987500Y-59450000D01*
X117987500Y-59455000D01*
%TA.AperFunction,EtchedComponent*%
G36*
X117987500Y-59455000D02*
G01*
X117987500Y-60600000D01*
X117337500Y-60600000D01*
X117337500Y-60325000D01*
X117037500Y-60325000D01*
X117016500Y-60324000D01*
X116995500Y-60323000D01*
X116974500Y-60320000D01*
X116954500Y-60316000D01*
X116933500Y-60311000D01*
X116913500Y-60305000D01*
X116894500Y-60298000D01*
X116874500Y-60290000D01*
X116855500Y-60281000D01*
X116837500Y-60271000D01*
X116819500Y-60260000D01*
X116802500Y-60249000D01*
X116785500Y-60236000D01*
X116769500Y-60222000D01*
X116754500Y-60208000D01*
X116740500Y-60193000D01*
X116726500Y-60177000D01*
X116713500Y-60160000D01*
X116702500Y-60143000D01*
X116691500Y-60125000D01*
X116681500Y-60107000D01*
X116672500Y-60088000D01*
X116664500Y-60068000D01*
X116657500Y-60049000D01*
X116651500Y-60029000D01*
X116646500Y-60008000D01*
X116642500Y-59988000D01*
X116639500Y-59967000D01*
X116638500Y-59946000D01*
X116637500Y-59925000D01*
X116637500Y-59450000D01*
X117987500Y-59450000D01*
X117987500Y-59455000D01*
G37*
%TD.AperFunction*%
%TD*%
D11*
%TO.P,Y1,1,1*%
%TO.N,Net-(U3-X1)*%
X90200000Y-80450000D03*
%TO.P,Y1,2,2*%
%TO.N,Net-(U3-X2)*%
X90200000Y-78550000D03*
%TD*%
D12*
%TO.P,D3,1,K*%
%TO.N,Net-(D2-K)*%
X74300000Y-92250000D03*
%TO.P,D3,2,A*%
%TO.N,/VBUS*%
X76500000Y-92250000D03*
%TD*%
D13*
%TO.P,C6,1*%
%TO.N,+9V*%
X104500000Y-92037500D03*
%TO.P,C6,2*%
%TO.N,GND*%
X104500000Y-95162500D03*
%TD*%
D14*
%TO.P,R5,1*%
%TO.N,+3.3V*%
X83912500Y-83450000D03*
%TO.P,R5,2*%
%TO.N,/EN*%
X82087500Y-83450000D03*
%TD*%
D15*
%TO.P,C10,1*%
%TO.N,Net-(U6-SS)*%
X96000000Y-97037500D03*
%TO.P,C10,2*%
%TO.N,GND*%
X96000000Y-98762500D03*
%TD*%
D16*
%TO.P,U1,1,I/O1*%
%TO.N,/USB_D_P*%
X109862500Y-77050000D03*
%TO.P,U1,2,GND*%
%TO.N,GND*%
X109862500Y-78000000D03*
%TO.P,U1,3,I/O2*%
%TO.N,/USB_D_N*%
X109862500Y-78950000D03*
%TO.P,U1,4,I/O2*%
%TO.N,/USB0_D_N*%
X112137500Y-78950000D03*
%TO.P,U1,5,VBUS*%
%TO.N,/VBUS*%
X112137500Y-78000000D03*
%TO.P,U1,6,I/O1*%
%TO.N,/USB0_D_P*%
X112137500Y-77050000D03*
%TD*%
D17*
%TO.P,U6,1,VCC*%
%TO.N,Net-(U6-VCC)*%
X97699998Y-95124997D03*
%TO.P,U6,2,FB*%
%TO.N,Net-(U6-FB)*%
X98199997Y-95124997D03*
%TO.P,U6,3,EN*%
%TO.N,unconnected-(U6-EN-Pad3)*%
X98699999Y-95124997D03*
D18*
%TO.P,U6,4,PGND*%
%TO.N,GND*%
X98649999Y-94450000D03*
D17*
%TO.P,U6,5,VIN*%
%TO.N,+9V*%
X98699999Y-93274998D03*
%TO.P,U6,6,VIN*%
X98199997Y-93274998D03*
%TO.P,U6,7,BST*%
%TO.N,Net-(U6-BST)*%
X97699998Y-93274998D03*
D19*
%TO.P,U6,8,SW*%
%TO.N,Net-(U6-SW)*%
X97900001Y-93950000D03*
D20*
%TO.P,U6,9,SS*%
%TO.N,Net-(U6-SS)*%
X97525000Y-94450000D03*
%TD*%
D21*
%TO.P,J3,1,1*%
%TO.N,/ind_clk*%
X83346000Y-43599999D03*
%TO.P,J3,2,2*%
%TO.N,/ind_cs*%
X82345999Y-43599999D03*
%TO.P,J3,3,3*%
%TO.N,/ind_din*%
X81345999Y-43599999D03*
%TO.P,J3,4,4*%
%TO.N,GND*%
X80346001Y-43599999D03*
D22*
%TO.P,J3,5,5*%
X84646000Y-39699999D03*
%TO.P,J3,6,6*%
X79046001Y-39699999D03*
%TD*%
D23*
%TO.P,Q1,1,C*%
%TO.N,/EN*%
X94600000Y-81460000D03*
D24*
%TO.P,Q1,2,B*%
%TO.N,Net-(Q1-B)*%
X95870000Y-81460000D03*
%TO.P,Q1,3,E*%
%TO.N,/RTS*%
X97140000Y-81460000D03*
%TD*%
D13*
%TO.P,C17,1*%
%TO.N,+5V*%
X83000000Y-94587500D03*
%TO.P,C17,2*%
%TO.N,GND*%
X83000000Y-97712500D03*
%TD*%
%TO.P,C7,1*%
%TO.N,+9V*%
X102200000Y-92037500D03*
%TO.P,C7,2*%
%TO.N,GND*%
X102200000Y-95162500D03*
%TD*%
D14*
%TO.P,R11,1*%
%TO.N,Net-(U6-FB)*%
X99812500Y-101900000D03*
%TO.P,R11,2*%
%TO.N,+5V*%
X97987500Y-101900000D03*
%TD*%
D25*
%TO.P,U5,1,GND*%
%TO.N,GND*%
X66500000Y-94900000D03*
%TO.P,U5,2,VO*%
%TO.N,+3.3V*%
X68800000Y-94900000D03*
D26*
X68800000Y-88600000D03*
D25*
%TO.P,U5,3,VI*%
%TO.N,Net-(D2-K)*%
X71100000Y-94900000D03*
%TD*%
D27*
%TO.P,R1,1*%
%TO.N,Net-(U2-VBUS)*%
X108100000Y-73812500D03*
%TO.P,R1,2*%
%TO.N,/VBUS*%
X108100000Y-71987500D03*
%TD*%
%TO.P,R12,1*%
%TO.N,GND*%
X99000000Y-98812500D03*
%TO.P,R12,2*%
%TO.N,Net-(U6-FB)*%
X99000000Y-96987500D03*
%TD*%
D28*
%TO.P,U3,1,VCC2*%
%TO.N,+3.3V*%
X87395000Y-75600000D03*
%TO.P,U3,2,X1*%
%TO.N,Net-(U3-X1)*%
X88665000Y-75600000D03*
%TO.P,U3,3,X2*%
%TO.N,Net-(U3-X2)*%
X89935000Y-75600000D03*
%TO.P,U3,4,GND*%
%TO.N,GND*%
X91205000Y-75600000D03*
%TO.P,U3,5,CE*%
%TO.N,/rtc_ce*%
X91205000Y-68600000D03*
%TO.P,U3,6,I/O*%
%TO.N,/rtc_io*%
X89935000Y-68600000D03*
%TO.P,U3,7,SCLK*%
%TO.N,/rtc_scl*%
X88665000Y-68600000D03*
%TO.P,U3,8,VCC1*%
%TO.N,Net-(U3-VCC1)*%
X87395000Y-68600000D03*
%TD*%
D29*
%TO.P,J2,1,VBUS*%
%TO.N,/VBUS*%
X115325000Y-79000000D03*
%TO.P,J2,2,D-*%
%TO.N,/USB0_D_N*%
X115325000Y-78350000D03*
%TO.P,J2,3,D+*%
%TO.N,/USB0_D_P*%
X115325000Y-77700000D03*
%TO.P,J2,4,ID*%
%TO.N,unconnected-(J2-ID-Pad4)*%
X115325000Y-77050000D03*
%TO.P,J2,5,GND*%
%TO.N,GND*%
X115325000Y-76400000D03*
D30*
%TO.P,J2,6,Shield*%
X118000000Y-81000000D03*
D31*
X115550000Y-80900000D03*
D32*
X118000000Y-78900000D03*
X118000000Y-76500000D03*
D31*
X115550000Y-74500000D03*
D30*
X118000000Y-74400000D03*
%TD*%
D13*
%TO.P,C12,1*%
%TO.N,+3.3V*%
X63700000Y-92087500D03*
%TO.P,C12,2*%
%TO.N,GND*%
X63700000Y-95212500D03*
%TD*%
D33*
%TO.P,C1,1*%
%TO.N,+3.3V*%
X109737500Y-75400000D03*
%TO.P,C1,2*%
%TO.N,GND*%
X111462500Y-75400000D03*
%TD*%
%TO.P,C20,1*%
%TO.N,GND*%
X83237500Y-75650000D03*
%TO.P,C20,2*%
%TO.N,+3.3V*%
X84962500Y-75650000D03*
%TD*%
D15*
%TO.P,C19,1*%
%TO.N,+5V*%
X84900000Y-95087500D03*
%TO.P,C19,2*%
%TO.N,GND*%
X84900000Y-96812500D03*
%TD*%
D34*
%TO.P,R9,1*%
%TO.N,/TXD0*%
X99700000Y-75987500D03*
%TO.P,R9,2*%
%TO.N,/RXD*%
X99700000Y-77812500D03*
%TD*%
D15*
%TO.P,C9,1*%
%TO.N,Net-(U6-VCC)*%
X97500000Y-97037500D03*
%TO.P,C9,2*%
%TO.N,GND*%
X97500000Y-98762500D03*
%TD*%
D33*
%TO.P,C2,1*%
%TO.N,+3.3V*%
X109737500Y-73900000D03*
%TO.P,C2,2*%
%TO.N,GND*%
X111462500Y-73900000D03*
%TD*%
D35*
%TO.P,S1,1*%
%TO.N,GND*%
X115687500Y-66350000D03*
%TO.P,S1,2*%
%TO.N,/EN*%
X115687500Y-69150000D03*
D36*
%TO.P,S1,SH1*%
%TO.N,N/C*%
X117037500Y-65925000D03*
%TO.P,S1,SH2*%
X117037500Y-69575000D03*
D37*
%TO.P,S1,SH3*%
X115537500Y-67750000D03*
%TD*%
D38*
%TO.P,bat_3v1,1,+*%
%TO.N,Net-(U3-VCC1)*%
X87275062Y-58500000D03*
%TO.P,bat_3v1,2,-*%
%TO.N,GND*%
X107275062Y-58500000D03*
%TD*%
D39*
%TO.P,HO1,1,1*%
%TO.N,+5V*%
X44500000Y-101750000D03*
%TD*%
%TO.P,HO2,1,1*%
%TO.N,+5V*%
X112000000Y-101750000D03*
%TD*%
D40*
%TO.P,C3,1*%
%TO.N,/EN*%
X113200000Y-68612500D03*
%TO.P,C3,2*%
%TO.N,GND*%
X113200000Y-66887500D03*
%TD*%
D27*
%TO.P,R7,1*%
%TO.N,Net-(Q1-B)*%
X95070000Y-77812500D03*
%TO.P,R7,2*%
%TO.N,/DTR*%
X95070000Y-75987500D03*
%TD*%
D41*
%TO.P,D1,1,K*%
%TO.N,GND*%
X84287500Y-65350000D03*
%TO.P,D1,2,A*%
%TO.N,Net-(D1-A)*%
X82712500Y-65350000D03*
%TD*%
D42*
%TO.P,U2,1,~{DCD}*%
%TO.N,unconnected-(U2-~{DCD}-Pad1)*%
X107000000Y-79750000D03*
%TO.P,U2,2,~{RI}/CLK*%
%TO.N,unconnected-(U2-~{RI}{slash}CLK-Pad2)*%
X107000000Y-79250000D03*
%TO.P,U2,3,GND*%
%TO.N,GND*%
X107000000Y-78750000D03*
%TO.P,U2,4,D+*%
%TO.N,/USB_D_P*%
X107000000Y-78250000D03*
%TO.P,U2,5,D-*%
%TO.N,/USB_D_N*%
X107000000Y-77750000D03*
%TO.P,U2,6,VDD*%
%TO.N,+3.3V*%
X107000000Y-77250000D03*
%TO.P,U2,7,VREGIN*%
X107000000Y-76750000D03*
D43*
%TO.P,U2,8,VBUS*%
%TO.N,Net-(U2-VBUS)*%
X106050000Y-75800000D03*
%TO.P,U2,9,~{RST}*%
%TO.N,Net-(U2-~{RST})*%
X105550000Y-75800000D03*
%TO.P,U2,10,NC*%
%TO.N,unconnected-(U2-NC-Pad10)*%
X105050000Y-75800000D03*
%TO.P,U2,11,~{SUSPEND}*%
%TO.N,Net-(U2-~{SUSPEND})*%
X104550000Y-75800000D03*
%TO.P,U2,12,SUSPEND*%
%TO.N,unconnected-(U2-SUSPEND-Pad12)*%
X104050000Y-75800000D03*
%TO.P,U2,13,CHREN*%
%TO.N,unconnected-(U2-CHREN-Pad13)*%
X103550000Y-75800000D03*
%TO.P,U2,14,CHR1*%
%TO.N,unconnected-(U2-CHR1-Pad14)*%
X103050000Y-75800000D03*
D42*
%TO.P,U2,15,CHR0*%
%TO.N,unconnected-(U2-CHR0-Pad15)*%
X102100000Y-76750000D03*
%TO.P,U2,16,~{WAKEUP}/GPIO.3*%
%TO.N,unconnected-(U2-~{WAKEUP}{slash}GPIO.3-Pad16)*%
X102100000Y-77250000D03*
%TO.P,U2,17,RS485/GPIO.2*%
%TO.N,unconnected-(U2-RS485{slash}GPIO.2-Pad17)*%
X102100000Y-77750000D03*
%TO.P,U2,18,~{RXT}/GPIO.1*%
%TO.N,unconnected-(U2-~{RXT}{slash}GPIO.1-Pad18)*%
X102100000Y-78250000D03*
%TO.P,U2,19,~{TXT}/GPIO.0*%
%TO.N,unconnected-(U2-~{TXT}{slash}GPIO.0-Pad19)*%
X102100000Y-78750000D03*
%TO.P,U2,20,GPIO.6*%
%TO.N,unconnected-(U2-GPIO.6-Pad20)*%
X102100000Y-79250000D03*
%TO.P,U2,21,GPIO.5*%
%TO.N,unconnected-(U2-GPIO.5-Pad21)*%
X102100000Y-79750000D03*
D43*
%TO.P,U2,22,GPIO.4*%
%TO.N,unconnected-(U2-GPIO.4-Pad22)*%
X103050000Y-80700000D03*
%TO.P,U2,23,~{CTS}*%
%TO.N,unconnected-(U2-~{CTS}-Pad23)*%
X103550000Y-80700000D03*
%TO.P,U2,24,~{RTS}*%
%TO.N,/RTS*%
X104050000Y-80700000D03*
%TO.P,U2,25,RXD*%
%TO.N,/RXD*%
X104550000Y-80700000D03*
%TO.P,U2,26,TXD*%
%TO.N,/TXD*%
X105050000Y-80700000D03*
%TO.P,U2,27,~{DSR}*%
%TO.N,unconnected-(U2-~{DSR}-Pad27)*%
X105550000Y-80700000D03*
%TO.P,U2,28,~{DTR}*%
%TO.N,/DTR*%
X106050000Y-80700000D03*
D44*
%TO.P,U2,29,GND*%
%TO.N,GND*%
X104550000Y-78250000D03*
%TD*%
D27*
%TO.P,R8,1*%
%TO.N,/RTS*%
X96670000Y-77812500D03*
%TO.P,R8,2*%
%TO.N,Net-(Q2-B)*%
X96670000Y-75987500D03*
%TD*%
D35*
%TO.P,S2,1*%
%TO.N,GND*%
X115687500Y-60350000D03*
%TO.P,S2,2*%
%TO.N,/IO0*%
X115687500Y-63150000D03*
D36*
%TO.P,S2,SH1*%
%TO.N,N/C*%
X117037500Y-59925000D03*
%TO.P,S2,SH2*%
X117037500Y-63575000D03*
D37*
%TO.P,S2,SH3*%
X115537500Y-61750000D03*
%TD*%
D45*
%TO.P,C11,1*%
%TO.N,Net-(D2-K)*%
X70262500Y-97750000D03*
%TO.P,C11,2*%
%TO.N,GND*%
X67137500Y-97750000D03*
%TD*%
D46*
%TO.P,J1,1*%
%TO.N,+9V*%
X108200000Y-92200000D03*
D47*
%TO.P,J1,2*%
%TO.N,GND*%
X114200000Y-92200000D03*
D48*
%TO.P,J1,MP,MountPin*%
X115200000Y-96700000D03*
X115200000Y-87700000D03*
%TD*%
D40*
%TO.P,C13,1*%
%TO.N,Net-(U6-BST)*%
X97300000Y-91962500D03*
%TO.P,C13,2*%
%TO.N,Net-(U6-SW)*%
X97300000Y-90237500D03*
%TD*%
D49*
%TO.P,U4,1,GND*%
%TO.N,GND*%
X58450000Y-81350000D03*
%TO.P,U4,2,VDD*%
%TO.N,+3.3V*%
X59720000Y-81350000D03*
%TO.P,U4,3,EN*%
%TO.N,/EN*%
X60990000Y-81350000D03*
%TO.P,U4,4,SENSOR_VP*%
%TO.N,unconnected-(U4-SENSOR_VP-Pad4)*%
X62260000Y-81350000D03*
%TO.P,U4,5,SENSOR_VN*%
%TO.N,unconnected-(U4-SENSOR_VN-Pad5)*%
X63530000Y-81350000D03*
%TO.P,U4,6,IO34*%
%TO.N,unconnected-(U4-IO34-Pad6)*%
X64800000Y-81350000D03*
%TO.P,U4,7,IO35*%
%TO.N,unconnected-(U4-IO35-Pad7)*%
X66070000Y-81350000D03*
%TO.P,U4,8,IO32*%
%TO.N,unconnected-(U4-IO32-Pad8)*%
X67340000Y-81350000D03*
%TO.P,U4,9,IO33*%
%TO.N,unconnected-(U4-IO33-Pad9)*%
X68610000Y-81350000D03*
%TO.P,U4,10,IO25*%
%TO.N,unconnected-(U4-IO25-Pad10)*%
X69880000Y-81350000D03*
%TO.P,U4,11,IO26*%
%TO.N,unconnected-(U4-IO26-Pad11)*%
X71150000Y-81350000D03*
%TO.P,U4,12,IO27*%
%TO.N,unconnected-(U4-IO27-Pad12)*%
X72420000Y-81350000D03*
%TO.P,U4,13,IO14*%
%TO.N,unconnected-(U4-IO14-Pad13)*%
X73690000Y-81350000D03*
%TO.P,U4,14,IO12*%
%TO.N,unconnected-(U4-IO12-Pad14)*%
X74960000Y-81350000D03*
D50*
%TO.P,U4,15,GND*%
%TO.N,GND*%
X76210000Y-78310000D03*
%TO.P,U4,16,IO13*%
%TO.N,/rtc_ce*%
X76210000Y-77040000D03*
%TO.P,U4,17,SHD/SD2*%
%TO.N,unconnected-(U4-SHD{slash}SD2-Pad17)*%
X76210000Y-75770000D03*
%TO.P,U4,18,SWP/SD3*%
%TO.N,unconnected-(U4-SWP{slash}SD3-Pad18)*%
X76210000Y-74500000D03*
%TO.P,U4,19,SCS/CMD*%
%TO.N,unconnected-(U4-SCS{slash}CMD-Pad19)*%
X76210000Y-73230000D03*
%TO.P,U4,20,SCK/CLK*%
%TO.N,unconnected-(U4-SCK{slash}CLK-Pad20)*%
X76210000Y-71960000D03*
%TO.P,U4,21,SDO/SD0*%
%TO.N,unconnected-(U4-SDO{slash}SD0-Pad21)*%
X76210000Y-70690000D03*
%TO.P,U4,22,SDI/SD1*%
%TO.N,unconnected-(U4-SDI{slash}SD1-Pad22)*%
X76210000Y-69420000D03*
%TO.P,U4,23,IO15*%
%TO.N,/rtc_io*%
X76210000Y-68150000D03*
%TO.P,U4,24,IO2*%
%TO.N,/rtc_scl*%
X76210000Y-66880000D03*
D49*
%TO.P,U4,25,IO0*%
%TO.N,/IO0*%
X74960000Y-63850000D03*
%TO.P,U4,26,IO4*%
%TO.N,/led*%
X73690000Y-63850000D03*
%TO.P,U4,27,IO16*%
%TO.N,unconnected-(U4-IO16-Pad27)*%
X72420000Y-63850000D03*
%TO.P,U4,28,IO17*%
%TO.N,unconnected-(U4-IO17-Pad28)*%
X71150000Y-63850000D03*
%TO.P,U4,29,IO5*%
%TO.N,/ind_cs*%
X69880000Y-63850000D03*
%TO.P,U4,30,IO18*%
%TO.N,/ind_clk*%
X68610000Y-63850000D03*
%TO.P,U4,31,IO19*%
%TO.N,unconnected-(U4-IO19-Pad31)*%
X67340000Y-63850000D03*
%TO.P,U4,32,NC*%
%TO.N,unconnected-(U4-NC-Pad32)*%
X66070000Y-63850000D03*
%TO.P,U4,33,IO21*%
%TO.N,unconnected-(U4-IO21-Pad33)*%
X64800000Y-63850000D03*
%TO.P,U4,34,RXD0/IO3*%
%TO.N,/RXD0*%
X63530000Y-63850000D03*
%TO.P,U4,35,TXD0/IO1*%
%TO.N,/TXD0*%
X62260000Y-63850000D03*
%TO.P,U4,36,IO22*%
%TO.N,unconnected-(U4-IO22-Pad36)*%
X60990000Y-63850000D03*
%TO.P,U4,37,IO23*%
%TO.N,/ind_din*%
X59720000Y-63850000D03*
%TO.P,U4,38,GND*%
%TO.N,GND*%
X58450000Y-63850000D03*
D51*
%TO.P,U4,39,GND*%
X65790000Y-73280000D03*
%TD*%
D12*
%TO.P,D2,1,K*%
%TO.N,Net-(D2-K)*%
X74300000Y-94850000D03*
%TO.P,D2,2,A*%
%TO.N,+5V*%
X76500000Y-94850000D03*
%TD*%
D52*
%TO.P,L2,1,1*%
%TO.N,+5V*%
X87180500Y-92350000D03*
%TO.P,L2,2,2*%
%TO.N,Net-(U6-SW)*%
X94419500Y-92350000D03*
%TD*%
D39*
%TO.P,HO4,1,1*%
%TO.N,GND*%
X112000000Y-40500000D03*
%TD*%
D27*
%TO.P,R3,1*%
%TO.N,Net-(U2-~{RST})*%
X105100000Y-73812500D03*
%TO.P,R3,2*%
%TO.N,+3.3V*%
X105100000Y-71987500D03*
%TD*%
D34*
%TO.P,R10,1*%
%TO.N,/RXD0*%
X98200000Y-75987500D03*
%TO.P,R10,2*%
%TO.N,/TXD*%
X98200000Y-77812500D03*
%TD*%
D53*
%TO.P,C5,1*%
%TO.N,+3.3V*%
X60047500Y-83500000D03*
%TO.P,C5,2*%
%TO.N,GND*%
X58322500Y-83500000D03*
%TD*%
D23*
%TO.P,Q2,1,C*%
%TO.N,/IO0*%
X97140000Y-72340000D03*
D24*
%TO.P,Q2,2,B*%
%TO.N,Net-(Q2-B)*%
X95870000Y-72340000D03*
%TO.P,Q2,3,E*%
%TO.N,/DTR*%
X94600000Y-72340000D03*
%TD*%
D45*
%TO.P,C4,1*%
%TO.N,+3.3V*%
X61447500Y-85700000D03*
%TO.P,C4,2*%
%TO.N,GND*%
X58322500Y-85700000D03*
%TD*%
D33*
%TO.P,C14,1*%
%TO.N,+5V*%
X98037500Y-100400000D03*
%TO.P,C14,2*%
%TO.N,Net-(U6-FB)*%
X99762500Y-100400000D03*
%TD*%
D34*
%TO.P,R2,1*%
%TO.N,GND*%
X106600000Y-71987500D03*
%TO.P,R2,2*%
%TO.N,Net-(U2-VBUS)*%
X106600000Y-73812500D03*
%TD*%
D15*
%TO.P,C8,1*%
%TO.N,+9V*%
X100200000Y-92737500D03*
%TO.P,C8,2*%
%TO.N,GND*%
X100200000Y-94462500D03*
%TD*%
D34*
%TO.P,R4,1*%
%TO.N,GND*%
X103600000Y-71987500D03*
%TO.P,R4,2*%
%TO.N,Net-(U2-~{SUSPEND})*%
X103600000Y-73812500D03*
%TD*%
D13*
%TO.P,C18,1*%
%TO.N,+5V*%
X80700000Y-94587500D03*
%TO.P,C18,2*%
%TO.N,GND*%
X80700000Y-97712500D03*
%TD*%
D54*
%TO.P,R6,1*%
%TO.N,/led*%
X79187500Y-65350000D03*
%TO.P,R6,2*%
%TO.N,Net-(D1-A)*%
X81012500Y-65350000D03*
%TD*%
D39*
%TO.P,HO3,1,1*%
%TO.N,GND*%
X44500000Y-40500000D03*
%TD*%
D40*
%TO.P,C16,1*%
%TO.N,/IO0*%
X113400000Y-62612500D03*
%TO.P,C16,2*%
%TO.N,GND*%
X113400000Y-60887500D03*
%TD*%
D55*
%TO.N,GND*%
X67300000Y-71750000D03*
X103500000Y-79300000D03*
X90900000Y-97550000D03*
X101500000Y-96450000D03*
X100600000Y-96350000D03*
X90900000Y-98350000D03*
X58450000Y-62250000D03*
X82300000Y-75650000D03*
X112000000Y-60850000D03*
X106600000Y-70950000D03*
X103550000Y-77150000D03*
X103900000Y-97250000D03*
X102300000Y-96450000D03*
X65000000Y-74050000D03*
X89300000Y-97550000D03*
X66600000Y-72450000D03*
X103100000Y-96450000D03*
X80700000Y-98950000D03*
X82300000Y-99750000D03*
X103600000Y-70950000D03*
X83900000Y-98950000D03*
X83100000Y-98950000D03*
X98200000Y-98812500D03*
X105500000Y-97250000D03*
X85100000Y-98150000D03*
X89300000Y-98350000D03*
X82300000Y-98950000D03*
X64300000Y-71750000D03*
X90100000Y-97550000D03*
X86900000Y-97550000D03*
X105650000Y-77150000D03*
X105650000Y-79350000D03*
X88500000Y-97550000D03*
X91200000Y-74300000D03*
X85900000Y-98150000D03*
X65200000Y-95250000D03*
X66600000Y-74050000D03*
X65000000Y-72450000D03*
X65800000Y-74750000D03*
X103100000Y-97250000D03*
X65790000Y-73280000D03*
X64200000Y-74750000D03*
X65800000Y-71750000D03*
X81500000Y-98950000D03*
X67300000Y-74750000D03*
X66500000Y-96450000D03*
X87700000Y-97550000D03*
X84700000Y-98950000D03*
X112362500Y-73900000D03*
X77700000Y-78350000D03*
X83100000Y-99750000D03*
X58285000Y-87300000D03*
X104700000Y-97250000D03*
X81500000Y-99750000D03*
X67300000Y-73250000D03*
X88500000Y-98350000D03*
X64300000Y-73250000D03*
X87700000Y-98350000D03*
X100200000Y-95650000D03*
X102300000Y-97250000D03*
X90100000Y-98350000D03*
X104700000Y-96450000D03*
X103900000Y-96450000D03*
X112000000Y-66850000D03*
X104550000Y-78250000D03*
X112362500Y-75400000D03*
X83900000Y-99750000D03*
X110900000Y-78000000D03*
X86900000Y-98350000D03*
X105500000Y-96450000D03*
X101500000Y-97250000D03*
X84700000Y-99750000D03*
X85500000Y-65350000D03*
%TO.N,+3.3V*%
X109737500Y-73000000D03*
X109700000Y-80950000D03*
%TO.N,/EN*%
X100500000Y-69650000D03*
X96400000Y-69650000D03*
X80900000Y-83500000D03*
%TO.N,+5V*%
X77500000Y-100750000D03*
X74500000Y-100750000D03*
X72500000Y-100750000D03*
X79500000Y-100750000D03*
X75500000Y-101750000D03*
X75500000Y-102750000D03*
X79500000Y-101750000D03*
X73500000Y-100750000D03*
X76500000Y-100750000D03*
X76500000Y-102750000D03*
X74500000Y-101750000D03*
X79500000Y-102750000D03*
X78500000Y-100750000D03*
X73500000Y-102750000D03*
X78500000Y-101750000D03*
X75500000Y-100750000D03*
X76500000Y-101750000D03*
X77500000Y-101750000D03*
X74500000Y-102750000D03*
X73500000Y-101750000D03*
X77500000Y-102750000D03*
X72500000Y-102750000D03*
X78500000Y-102750000D03*
X72500000Y-101750000D03*
%TO.N,/IO0*%
X97140000Y-65750000D03*
X100500000Y-65750000D03*
%TO.N,/VBUS*%
X113400000Y-80800000D03*
X111600000Y-72050000D03*
%TO.N,/USB_D_P*%
X108500000Y-79750000D03*
X108555331Y-77305331D03*
%TO.N,/ind_cs*%
X74800000Y-56250000D03*
X74800000Y-53450000D03*
%TO.N,/ind_clk*%
X73800000Y-54150000D03*
X73800000Y-56250000D03*
%TD*%
D56*
%TO.N,*%
X115537500Y-61750000D02*
X115537500Y-61612500D01*
X115537500Y-61612500D02*
X116100000Y-61050000D01*
%TO.N,Net-(U3-VCC1)*%
X87395000Y-68600000D02*
X87395000Y-58619938D01*
X87395000Y-58619938D02*
X87275062Y-58500000D01*
%TO.N,GND*%
X77660000Y-78310000D02*
X77700000Y-78350000D01*
D57*
X63700000Y-95212500D02*
X66187500Y-95212500D01*
D56*
X106600000Y-70950000D02*
X106600000Y-71987500D01*
D57*
X66500000Y-97112500D02*
X67137500Y-97750000D01*
D56*
X112600000Y-60850000D02*
X112000000Y-60850000D01*
X110900000Y-78000000D02*
X109862500Y-78000000D01*
D58*
X83237500Y-75650000D02*
X82300000Y-75650000D01*
X58450000Y-81350000D02*
X58450000Y-83372500D01*
X91205000Y-75600000D02*
X91205000Y-74305000D01*
D57*
X66187500Y-95212500D02*
X66500000Y-94900000D01*
D56*
X84287500Y-65350000D02*
X85500000Y-65350000D01*
X118000000Y-76500000D02*
X118000000Y-81000000D01*
D59*
X115325000Y-76400000D02*
X113950000Y-76400000D01*
D56*
X115650000Y-74400000D02*
X115550000Y-74500000D01*
D58*
X58322500Y-85700000D02*
X58322500Y-83500000D01*
D56*
X115650000Y-81000000D02*
X115550000Y-80900000D01*
X98200000Y-98812500D02*
X96050000Y-98812500D01*
X114200000Y-65850000D02*
X114200000Y-65887500D01*
D58*
X58322500Y-87262500D02*
X58285000Y-87300000D01*
D56*
X118000000Y-74400000D02*
X118000000Y-76500000D01*
D58*
X91205000Y-74305000D02*
X91200000Y-74300000D01*
D57*
X66500000Y-94900000D02*
X66500000Y-97112500D01*
D56*
X112000000Y-60850000D02*
X113362500Y-60850000D01*
X113937500Y-60350000D02*
X113400000Y-60887500D01*
X105050000Y-78750000D02*
X104550000Y-78250000D01*
D59*
X113950000Y-76400000D02*
X112950000Y-75400000D01*
D58*
X58322500Y-85700000D02*
X58322500Y-87262500D01*
D56*
X114200000Y-65887500D02*
X113200000Y-66887500D01*
X113362500Y-60850000D02*
X113400000Y-60887500D01*
X112037500Y-66887500D02*
X113600000Y-66887500D01*
X99000000Y-98812500D02*
X98200000Y-98812500D01*
X112637500Y-60887500D02*
X112600000Y-60850000D01*
X114200000Y-65850000D02*
X114700000Y-66350000D01*
X112000000Y-66850000D02*
X112037500Y-66887500D01*
X76210000Y-78310000D02*
X77660000Y-78310000D01*
X118000000Y-81000000D02*
X115650000Y-81000000D01*
D58*
X111462500Y-75400000D02*
X111462500Y-73900000D01*
D56*
X114700000Y-66350000D02*
X115687500Y-66350000D01*
D58*
X58450000Y-83372500D02*
X58322500Y-83500000D01*
D59*
X112950000Y-75400000D02*
X112362500Y-75400000D01*
D56*
X107000000Y-78750000D02*
X105050000Y-78750000D01*
D58*
X112362500Y-75400000D02*
X111462500Y-75400000D01*
D56*
X103600000Y-70950000D02*
X103600000Y-71987500D01*
X58450000Y-62250000D02*
X58450000Y-63850000D01*
D58*
X112362500Y-73900000D02*
X111462500Y-73900000D01*
D56*
X96050000Y-98812500D02*
X96000000Y-98762500D01*
X115687500Y-60350000D02*
X113937500Y-60350000D01*
X118000000Y-74400000D02*
X115650000Y-74400000D01*
%TO.N,+3.3V*%
X112200000Y-72298529D02*
X111498529Y-73000000D01*
X107900000Y-77000000D02*
X107900000Y-76900000D01*
D59*
X84962500Y-83450000D02*
X84962500Y-85687500D01*
D57*
X71650000Y-85750000D02*
X84900000Y-85750000D01*
D56*
X105100000Y-71987500D02*
X105100000Y-71250000D01*
D58*
X59720000Y-81350000D02*
X59720000Y-83172500D01*
D57*
X68700000Y-95000000D02*
X68800000Y-94900000D01*
D56*
X107750000Y-76750000D02*
X107000000Y-76750000D01*
D59*
X85012500Y-75600000D02*
X84962500Y-75650000D01*
D58*
X109400000Y-75400000D02*
X109737500Y-75400000D01*
D56*
X110100000Y-75762500D02*
X109737500Y-75400000D01*
X107900000Y-76900000D02*
X107750000Y-76750000D01*
X112200000Y-71450000D02*
X112200000Y-72298529D01*
D58*
X59720000Y-83172500D02*
X60047500Y-83500000D01*
D59*
X87395000Y-75600000D02*
X85012500Y-75600000D01*
D57*
X104900000Y-85750000D02*
X109700000Y-80950000D01*
D58*
X107900000Y-76900000D02*
X109400000Y-75400000D01*
D57*
X84900000Y-85750000D02*
X104900000Y-85750000D01*
D58*
X109737500Y-75400000D02*
X109737500Y-73000000D01*
D56*
X107650000Y-77250000D02*
X107900000Y-77000000D01*
D57*
X68800000Y-88600000D02*
X71650000Y-85750000D01*
X68800000Y-94900000D02*
X68800000Y-88600000D01*
D58*
X109737500Y-73000000D02*
X109737500Y-73900000D01*
D59*
X84962500Y-75650000D02*
X84962500Y-83450000D01*
D56*
X106000000Y-70350000D02*
X111100000Y-70350000D01*
D58*
X61447500Y-84900000D02*
X60047500Y-83500000D01*
D59*
X84962500Y-85687500D02*
X84900000Y-85750000D01*
D56*
X111100000Y-70350000D02*
X112200000Y-71450000D01*
D59*
X83912500Y-83450000D02*
X84962500Y-83450000D01*
D56*
X111498529Y-73000000D02*
X109737500Y-73000000D01*
X105100000Y-71250000D02*
X106000000Y-70350000D01*
X107000000Y-77250000D02*
X107650000Y-77250000D01*
D58*
X61447500Y-85700000D02*
X61447500Y-84900000D01*
D56*
%TO.N,/EN*%
X80900000Y-75750000D02*
X82800000Y-73850000D01*
X80900000Y-83500000D02*
X80900000Y-75750000D01*
X80900000Y-83500000D02*
X82037500Y-83500000D01*
X62100000Y-83500000D02*
X60990000Y-82390000D01*
X101537500Y-68612500D02*
X113600000Y-68612500D01*
X93300000Y-69650000D02*
X96400000Y-69650000D01*
X80900000Y-83500000D02*
X62100000Y-83500000D01*
X82037500Y-83500000D02*
X82087500Y-83450000D01*
X114137500Y-69150000D02*
X113600000Y-68612500D01*
X60990000Y-82390000D02*
X60990000Y-81350000D01*
X115687500Y-69150000D02*
X114137500Y-69150000D01*
X82800000Y-73850000D02*
X89100000Y-73850000D01*
X101537500Y-68612500D02*
X100500000Y-69650000D01*
X89100000Y-73850000D02*
X93300000Y-69650000D01*
%TO.N,Net-(U6-VCC)*%
X97500000Y-96000000D02*
X97700000Y-95800000D01*
X97699998Y-95799998D02*
X97699998Y-95124997D01*
X97700000Y-95800000D02*
X97699998Y-95799998D01*
X97500000Y-97037500D02*
X97500000Y-96000000D01*
%TO.N,Net-(U6-SS)*%
X96900000Y-95800000D02*
X96900000Y-95075000D01*
X96900000Y-95075000D02*
X97525000Y-94450000D01*
X96000000Y-97037500D02*
X96000000Y-96700000D01*
X96000000Y-96700000D02*
X96900000Y-95800000D01*
D57*
%TO.N,Net-(D2-K)*%
X74350000Y-94900000D02*
X71100000Y-94900000D01*
X71100000Y-96912500D02*
X70262500Y-97750000D01*
X74300000Y-94850000D02*
X74300000Y-92250000D01*
X71100000Y-94900000D02*
X71100000Y-96912500D01*
D56*
%TO.N,Net-(U6-BST)*%
X97699998Y-93274998D02*
X97699998Y-92362498D01*
X97699998Y-92362498D02*
X97300000Y-91962500D01*
%TO.N,Net-(U6-FB)*%
X99762500Y-100400000D02*
X99762500Y-101850000D01*
X98199997Y-96187497D02*
X99000000Y-96987500D01*
X98199997Y-95124997D02*
X98199997Y-96187497D01*
X99762500Y-101850000D02*
X99812500Y-101900000D01*
X99775000Y-100387500D02*
X99762500Y-100400000D01*
X99000000Y-96987500D02*
X99775000Y-97762500D01*
X99775000Y-97762500D02*
X99775000Y-100387500D01*
%TO.N,+5V*%
X98037500Y-100400000D02*
X98037500Y-101850000D01*
D57*
X78200000Y-94850000D02*
X78462500Y-94587500D01*
D56*
X97300000Y-103900000D02*
X81650000Y-103900000D01*
D57*
X78462500Y-94587500D02*
X81000000Y-94587500D01*
D56*
X97987500Y-103212500D02*
X97300000Y-103900000D01*
X98037500Y-101850000D02*
X97987500Y-101900000D01*
D57*
X76500000Y-94850000D02*
X78200000Y-94850000D01*
D56*
X97987500Y-101900000D02*
X97987500Y-103212500D01*
X81650000Y-103900000D02*
X80500000Y-102750000D01*
X80500000Y-102750000D02*
X79500000Y-102750000D01*
%TO.N,/IO0*%
X88100000Y-56000000D02*
X80500000Y-56000000D01*
X80500000Y-56000000D02*
X79250000Y-56000000D01*
X113937500Y-63150000D02*
X115687500Y-63150000D01*
X97140000Y-65750000D02*
X97140000Y-65040000D01*
X113400000Y-62612500D02*
X103637500Y-62612500D01*
X97140000Y-72340000D02*
X97140000Y-65750000D01*
X97140000Y-65040000D02*
X88100000Y-56000000D01*
X79250000Y-56000000D02*
X74960000Y-60290000D01*
X74960000Y-60290000D02*
X74960000Y-63850000D01*
X103637500Y-62612500D02*
X100500000Y-65750000D01*
X113400000Y-62612500D02*
X113937500Y-63150000D01*
%TO.N,Net-(D1-A)*%
X82712500Y-65350000D02*
X81012500Y-65350000D01*
%TO.N,/VBUS*%
X108100000Y-71987500D02*
X111537500Y-71987500D01*
X111100000Y-78648529D02*
X111100000Y-79400000D01*
D57*
X81400000Y-87350000D02*
X76500000Y-92250000D01*
D56*
X111400000Y-79700000D02*
X113400000Y-79700000D01*
D59*
X114100000Y-79000000D02*
X113400000Y-79700000D01*
D57*
X106850000Y-87350000D02*
X81400000Y-87350000D01*
D56*
X112137500Y-78000000D02*
X111748529Y-78000000D01*
D57*
X113400000Y-80800000D02*
X106850000Y-87350000D01*
D56*
X111537500Y-71987500D02*
X111600000Y-72050000D01*
X111748529Y-78000000D02*
X111100000Y-78648529D01*
X111100000Y-79400000D02*
X111400000Y-79700000D01*
D59*
X115325000Y-79000000D02*
X114100000Y-79000000D01*
X113400000Y-79700000D02*
X113400000Y-80800000D01*
D56*
%TO.N,/USB0_D_N*%
X113225000Y-78225000D02*
X112500000Y-78950000D01*
X113802794Y-78225000D02*
X113225000Y-78225000D01*
X112500000Y-78950000D02*
X112137500Y-78950000D01*
X115325000Y-78350000D02*
X114312499Y-78350000D01*
X114312499Y-78350000D02*
X114212499Y-78250000D01*
X114212499Y-78250000D02*
X113827794Y-78250000D01*
X113827794Y-78250000D02*
X113802794Y-78225000D01*
%TO.N,/USB0_D_P*%
X114000000Y-77800000D02*
X113975000Y-77775000D01*
X113225000Y-77775000D02*
X112500000Y-77050000D01*
X114312499Y-77700000D02*
X114212499Y-77800000D01*
X112500000Y-77050000D02*
X112137500Y-77050000D01*
X114212499Y-77800000D02*
X114000000Y-77800000D01*
X113975000Y-77775000D02*
X113225000Y-77775000D01*
X115325000Y-77700000D02*
X114312499Y-77700000D01*
%TO.N,/RTS*%
X100500000Y-77000000D02*
X97400000Y-77000000D01*
X97140000Y-79570000D02*
X97140000Y-81460000D01*
X96670000Y-77812500D02*
X96670000Y-79100000D01*
X104050000Y-81350000D02*
X103900000Y-81500000D01*
X104050000Y-80700000D02*
X104050000Y-81350000D01*
X96670000Y-79100000D02*
X97140000Y-79570000D01*
X97140000Y-81065000D02*
X97140000Y-80840000D01*
X101000000Y-80400000D02*
X101000000Y-77500000D01*
X103900000Y-81500000D02*
X102100000Y-81500000D01*
X97400000Y-77000000D02*
X96670000Y-77730000D01*
X102100000Y-81500000D02*
X101000000Y-80400000D01*
X101000000Y-77500000D02*
X100500000Y-77000000D01*
X96670000Y-77730000D02*
X96670000Y-77812500D01*
%TO.N,Net-(Q1-B)*%
X95870000Y-81460000D02*
X95870000Y-79900000D01*
X95070000Y-79100000D02*
X95070000Y-77812500D01*
X95870000Y-79900000D02*
X95070000Y-79100000D01*
%TO.N,Net-(Q2-B)*%
X96670000Y-75987500D02*
X96670000Y-74900000D01*
X96670000Y-74900000D02*
X95870000Y-74100000D01*
X95870000Y-74100000D02*
X95870000Y-72340000D01*
%TO.N,/DTR*%
X95070000Y-74700000D02*
X94600000Y-74230000D01*
X93470000Y-77587500D02*
X95070000Y-75987500D01*
X106050000Y-80700000D02*
X106050000Y-81850000D01*
X94320000Y-83350000D02*
X93470000Y-82500000D01*
X106050000Y-81850000D02*
X104550000Y-83350000D01*
X104550000Y-83350000D02*
X94320000Y-83350000D01*
X95070000Y-75987500D02*
X95070000Y-74700000D01*
X94600000Y-74230000D02*
X94600000Y-72340000D01*
X93470000Y-82500000D02*
X93470000Y-77587500D01*
%TO.N,Net-(U2-VBUS)*%
X108100000Y-73812500D02*
X106600000Y-73812500D01*
X106050000Y-75800000D02*
X106050000Y-74362500D01*
X106050000Y-74362500D02*
X106600000Y-73812500D01*
%TO.N,Net-(U2-~{RST})*%
X105550000Y-74262500D02*
X105100000Y-73812500D01*
X105550000Y-75800000D02*
X105550000Y-74262500D01*
%TO.N,Net-(U2-~{SUSPEND})*%
X104550000Y-74762500D02*
X103600000Y-73812500D01*
X104550000Y-75800000D02*
X104550000Y-74762500D01*
%TO.N,/TXD0*%
X62260000Y-63850000D02*
X62260000Y-62840000D01*
X89050000Y-54850000D02*
X99700000Y-65500000D01*
X70250000Y-54850000D02*
X89050000Y-54850000D01*
X99700000Y-65500000D02*
X99700000Y-75987500D01*
X62260000Y-62840000D02*
X70250000Y-54850000D01*
%TO.N,/RXD*%
X101800000Y-82100000D02*
X99700000Y-80000000D01*
X99700000Y-80000000D02*
X99700000Y-77812500D01*
X104550000Y-81850000D02*
X104300000Y-82100000D01*
X104300000Y-82100000D02*
X101800000Y-82100000D01*
X104550000Y-80700000D02*
X104550000Y-81850000D01*
%TO.N,/RXD0*%
X70600000Y-55400000D02*
X63530000Y-62470000D01*
X88500000Y-55400000D02*
X70600000Y-55400000D01*
X98200000Y-75987500D02*
X98200000Y-74500000D01*
X98800000Y-73900000D02*
X98800000Y-65700000D01*
X98800000Y-65700000D02*
X88500000Y-55400000D01*
X98200000Y-74500000D02*
X98800000Y-73900000D01*
X63530000Y-62470000D02*
X63530000Y-63850000D01*
%TO.N,/TXD*%
X104400000Y-82700000D02*
X101500000Y-82700000D01*
X105050000Y-80700000D02*
X105050000Y-82050000D01*
X105050000Y-82050000D02*
X104400000Y-82700000D01*
X98200000Y-79400000D02*
X98200000Y-77812500D01*
X101500000Y-82700000D02*
X98200000Y-79400000D01*
%TO.N,/USB_D_N*%
X108682898Y-78950000D02*
X107482898Y-77750000D01*
X109862500Y-78950000D02*
X108682898Y-78950000D01*
X107482898Y-77750000D02*
X107000000Y-77750000D01*
%TO.N,/USB_D_P*%
X107415798Y-78250000D02*
X107000000Y-78250000D01*
X108500000Y-79334202D02*
X107415798Y-78250000D01*
X108500000Y-79750000D02*
X108500000Y-79334202D01*
X108810662Y-77050000D02*
X108555331Y-77305331D01*
X109862500Y-77050000D02*
X108810662Y-77050000D01*
%TO.N,/rtc_ce*%
X91205000Y-69549999D02*
X89254999Y-71500000D01*
X89254999Y-71500000D02*
X84100000Y-71500000D01*
X78560000Y-77040000D02*
X76210000Y-77040000D01*
X84100000Y-71500000D02*
X78560000Y-77040000D01*
X91205000Y-68600000D02*
X91205000Y-69549999D01*
%TO.N,Net-(U3-X1)*%
X88665000Y-78915000D02*
X90200000Y-80450000D01*
X88665000Y-75600000D02*
X88665000Y-78915000D01*
%TO.N,Net-(U3-X2)*%
X89935000Y-75600000D02*
X89935000Y-78285000D01*
X89935000Y-78285000D02*
X90200000Y-78550000D01*
%TO.N,/rtc_io*%
X76210000Y-68150000D02*
X78550000Y-68150000D01*
X89935000Y-69549999D02*
X89935000Y-68600000D01*
X88784999Y-70700000D02*
X89935000Y-69549999D01*
X78550000Y-68150000D02*
X81100000Y-70700000D01*
X81100000Y-70700000D02*
X88784999Y-70700000D01*
%TO.N,/rtc_scl*%
X79400000Y-66900000D02*
X79300000Y-66900000D01*
X82700000Y-70200000D02*
X79400000Y-66900000D01*
X88665000Y-68600000D02*
X88665000Y-69549999D01*
X88665000Y-69549999D02*
X88014999Y-70200000D01*
X88014999Y-70200000D02*
X82700000Y-70200000D01*
X79300000Y-66900000D02*
X79280000Y-66880000D01*
X79280000Y-66880000D02*
X76210000Y-66880000D01*
%TO.N,/ind_din*%
X59720000Y-62520000D02*
X70590000Y-51650000D01*
X81345999Y-45204001D02*
X81345999Y-43599999D01*
X70590000Y-51650000D02*
X74900000Y-51650000D01*
X59720000Y-63850000D02*
X59720000Y-62520000D01*
X74900000Y-51650000D02*
X81345999Y-45204001D01*
%TO.N,/ind_cs*%
X75200000Y-53050000D02*
X75250000Y-53000000D01*
X74800000Y-56250000D02*
X69880000Y-61170000D01*
X75250000Y-53000000D02*
X74800000Y-53450000D01*
X82345999Y-43599999D02*
X82345999Y-45904001D01*
X82345999Y-45904001D02*
X75200000Y-53050000D01*
X69880000Y-61170000D02*
X69880000Y-63850000D01*
%TO.N,/ind_clk*%
X75300000Y-54150000D02*
X73800000Y-54150000D01*
X73800000Y-56250000D02*
X68610000Y-61440000D01*
X68610000Y-61440000D02*
X68610000Y-63850000D01*
X83346000Y-46104000D02*
X75300000Y-54150000D01*
X83346000Y-43599999D02*
X83346000Y-46104000D01*
%TO.N,/led*%
X73690000Y-64800000D02*
X73690000Y-63850000D01*
X74240000Y-65350000D02*
X73690000Y-64800000D01*
X79187500Y-65350000D02*
X74240000Y-65350000D01*
%TO.N,unconnected-(U4-IO35-Pad7)*%
X66085000Y-81365000D02*
X66070000Y-81350000D01*
%TO.N,unconnected-(U4-IO12-Pad14)*%
X75060000Y-81450000D02*
X74960000Y-81350000D01*
X75160000Y-81550000D02*
X74960000Y-81350000D01*
%TD*%
%TA.AperFunction,Conductor*%
%TO.N,Net-(U6-SW)*%
G36*
X97718039Y-89319685D02*
G01*
X97763794Y-89372489D01*
X97775000Y-89424000D01*
X97775000Y-90651000D01*
X97755315Y-90718039D01*
X97702511Y-90763794D01*
X97651000Y-90775000D01*
X96824999Y-90775000D01*
X96500000Y-91099999D01*
X96500000Y-92800000D01*
X97315435Y-93615435D01*
X97330856Y-93638513D01*
X97332248Y-93637584D01*
X97339031Y-93647736D01*
X97339032Y-93647738D01*
X97394397Y-93730599D01*
X97394398Y-93730600D01*
X97487414Y-93792751D01*
X97486483Y-93794143D01*
X97509562Y-93809562D01*
X97525000Y-93825000D01*
X98426001Y-93825000D01*
X98434686Y-93827550D01*
X98443648Y-93826262D01*
X98467688Y-93837240D01*
X98493040Y-93844685D01*
X98498967Y-93851525D01*
X98507204Y-93855287D01*
X98521493Y-93877521D01*
X98538795Y-93897489D01*
X98541082Y-93908003D01*
X98544978Y-93914065D01*
X98550001Y-93949000D01*
X98550001Y-93950500D01*
X98530316Y-94017539D01*
X98477512Y-94063294D01*
X98426001Y-94074500D01*
X98124335Y-94074500D01*
X98114157Y-94075000D01*
X97835842Y-94075000D01*
X97825664Y-94074500D01*
X97824674Y-94074500D01*
X97225326Y-94074500D01*
X97225323Y-94074500D01*
X97152264Y-94089032D01*
X97152260Y-94089033D01*
X97069399Y-94144399D01*
X97014033Y-94227260D01*
X97014032Y-94227262D01*
X97006794Y-94263653D01*
X96974408Y-94325563D01*
X96972858Y-94327141D01*
X96036319Y-95263681D01*
X95974996Y-95297166D01*
X95948638Y-95300000D01*
X93624000Y-95300000D01*
X93556961Y-95280315D01*
X93511206Y-95227511D01*
X93500000Y-95176000D01*
X93500000Y-89424000D01*
X93519685Y-89356961D01*
X93572489Y-89311206D01*
X93624000Y-89300000D01*
X97651000Y-89300000D01*
X97718039Y-89319685D01*
G37*
%TD.AperFunction*%
%TD*%
%TA.AperFunction,Conductor*%
%TO.N,+3.3V*%
G36*
X76043039Y-84519685D02*
G01*
X76088794Y-84572489D01*
X76100000Y-84624000D01*
X76100000Y-90248637D01*
X76080315Y-90315676D01*
X76063681Y-90336318D01*
X75003359Y-91396639D01*
X74942036Y-91430124D01*
X74872344Y-91425140D01*
X74846787Y-91412060D01*
X74773920Y-91363371D01*
X74773907Y-91363364D01*
X74591839Y-91287950D01*
X74591829Y-91287947D01*
X74398543Y-91249500D01*
X74398541Y-91249500D01*
X74201459Y-91249500D01*
X74201457Y-91249500D01*
X74008170Y-91287947D01*
X74008160Y-91287950D01*
X73826092Y-91363364D01*
X73826079Y-91363371D01*
X73662218Y-91472860D01*
X73662214Y-91472863D01*
X73522863Y-91612214D01*
X73522860Y-91612218D01*
X73413371Y-91776079D01*
X73413364Y-91776092D01*
X73337950Y-91958160D01*
X73337947Y-91958170D01*
X73299500Y-92151456D01*
X73299500Y-92976000D01*
X73279815Y-93043039D01*
X73227011Y-93088794D01*
X73175500Y-93100000D01*
X61251362Y-93100000D01*
X61184323Y-93080315D01*
X61163681Y-93063681D01*
X60836319Y-92736319D01*
X60802834Y-92674996D01*
X60800000Y-92648638D01*
X60800000Y-85151362D01*
X60819685Y-85084323D01*
X60836319Y-85063681D01*
X61363681Y-84536319D01*
X61425004Y-84502834D01*
X61451362Y-84500000D01*
X75976000Y-84500000D01*
X76043039Y-84519685D01*
G37*
%TD.AperFunction*%
%TD*%
%TA.AperFunction,Conductor*%
%TO.N,GND*%
G36*
X84198604Y-95968461D02*
G01*
X84201649Y-95970339D01*
X84201650Y-95970340D01*
X84348484Y-96060908D01*
X84512247Y-96115174D01*
X84613323Y-96125500D01*
X85186676Y-96125499D01*
X85186684Y-96125498D01*
X85186687Y-96125498D01*
X85242030Y-96119844D01*
X85287753Y-96115174D01*
X85451516Y-96060908D01*
X85598350Y-95970340D01*
X85598350Y-95970339D01*
X85601396Y-95968461D01*
X85666493Y-95950000D01*
X91576000Y-95950000D01*
X91643039Y-95969685D01*
X91688794Y-96022489D01*
X91700000Y-96074000D01*
X91700000Y-100026000D01*
X91680315Y-100093039D01*
X91627511Y-100138794D01*
X91576000Y-100150000D01*
X81051362Y-100150000D01*
X80984323Y-100130315D01*
X80963681Y-100113681D01*
X79936319Y-99086319D01*
X79902834Y-99024996D01*
X79900000Y-98998638D01*
X79900000Y-96074000D01*
X79919685Y-96006961D01*
X79972489Y-95961206D01*
X80024000Y-95950000D01*
X84133507Y-95950000D01*
X84198604Y-95968461D01*
G37*
%TD.AperFunction*%
%TD*%
%TA.AperFunction,Conductor*%
%TO.N,GND*%
G36*
X106043039Y-93569683D02*
G01*
X106088794Y-93622487D01*
X106100000Y-93673998D01*
X106100000Y-98076000D01*
X106080315Y-98143039D01*
X106027511Y-98188794D01*
X105976000Y-98200000D01*
X101651362Y-98200000D01*
X101584323Y-98180315D01*
X101563681Y-98163681D01*
X99136319Y-95736319D01*
X99102834Y-95674996D01*
X99100000Y-95648638D01*
X99100000Y-94800000D01*
X99084564Y-94784564D01*
X99069141Y-94761482D01*
X99067750Y-94762412D01*
X99007834Y-94672740D01*
X99005600Y-94669396D01*
X99005598Y-94669395D01*
X99005598Y-94669394D01*
X98912586Y-94607246D01*
X98913513Y-94605857D01*
X98890431Y-94590431D01*
X98875000Y-94575000D01*
X98460557Y-94575000D01*
X98433159Y-94566955D01*
X98405053Y-94561884D01*
X98400060Y-94557236D01*
X98393518Y-94555315D01*
X98374821Y-94533738D01*
X98353915Y-94514274D01*
X98352227Y-94507663D01*
X98347763Y-94502511D01*
X98343699Y-94474247D01*
X98336636Y-94446574D01*
X98338789Y-94440103D01*
X98337819Y-94433353D01*
X98349683Y-94407374D01*
X98358701Y-94380280D01*
X98364010Y-94376001D01*
X98366844Y-94369797D01*
X98390869Y-94354357D01*
X98413104Y-94336439D01*
X98422470Y-94334048D01*
X98425622Y-94332023D01*
X98447302Y-94327710D01*
X98461255Y-94326209D01*
X98474509Y-94325500D01*
X98575665Y-94325500D01*
X98585843Y-94325000D01*
X98800000Y-94325000D01*
X99100000Y-94025000D01*
X99100000Y-93673998D01*
X99119685Y-93606959D01*
X99172489Y-93561204D01*
X99224000Y-93549998D01*
X105976000Y-93549998D01*
X106043039Y-93569683D01*
G37*
%TD.AperFunction*%
%TD*%
%TA.AperFunction,Conductor*%
%TO.N,+9V*%
G36*
X109837539Y-89219685D02*
G01*
X109883294Y-89272489D01*
X109894500Y-89324000D01*
X109894500Y-94825998D01*
X109874815Y-94893037D01*
X109822011Y-94938792D01*
X109770500Y-94949998D01*
X106479500Y-94949998D01*
X106412461Y-94930313D01*
X106366706Y-94877509D01*
X106355500Y-94825998D01*
X106355500Y-93673998D01*
X106349661Y-93619685D01*
X106338455Y-93568174D01*
X106331219Y-93541800D01*
X106331216Y-93541794D01*
X106281894Y-93455179D01*
X106281890Y-93455174D01*
X106281888Y-93455170D01*
X106246097Y-93413865D01*
X106236136Y-93402369D01*
X106203359Y-93370741D01*
X106115022Y-93324532D01*
X106115022Y-93324531D01*
X106047990Y-93304849D01*
X106047978Y-93304846D01*
X105976001Y-93294498D01*
X105976000Y-93294498D01*
X99224000Y-93294498D01*
X99223997Y-93294498D01*
X99169687Y-93300336D01*
X99118181Y-93311541D01*
X99118172Y-93311544D01*
X99091807Y-93318777D01*
X99091796Y-93318781D01*
X99005181Y-93368103D01*
X99005173Y-93368109D01*
X98952371Y-93413861D01*
X98920743Y-93446638D01*
X98874534Y-93534975D01*
X98874533Y-93534976D01*
X98871610Y-93544931D01*
X98833831Y-93603706D01*
X98770274Y-93632727D01*
X98701116Y-93622779D01*
X98683745Y-93613091D01*
X98669699Y-93603706D01*
X98647741Y-93589034D01*
X98647740Y-93589033D01*
X98647736Y-93589032D01*
X98574678Y-93574500D01*
X98574675Y-93574500D01*
X98469647Y-93574500D01*
X98452002Y-93573238D01*
X98426003Y-93569500D01*
X98426001Y-93569500D01*
X98199498Y-93569500D01*
X98132459Y-93549815D01*
X98086704Y-93497011D01*
X98075498Y-93445500D01*
X98075498Y-92974345D01*
X98074997Y-92964146D01*
X98074997Y-92176365D01*
X98094682Y-92109326D01*
X98111316Y-92088684D01*
X100963681Y-89236319D01*
X101025004Y-89202834D01*
X101051362Y-89200000D01*
X109770500Y-89200000D01*
X109837539Y-89219685D01*
G37*
%TD.AperFunction*%
%TD*%
%TA.AperFunction,Conductor*%
%TO.N,GND*%
G36*
X116823039Y-80669685D02*
G01*
X116868794Y-80722489D01*
X116873327Y-80743327D01*
X116880000Y-80750000D01*
X117600272Y-80750000D01*
X117508386Y-80788060D01*
X117438060Y-80858386D01*
X117400000Y-80950272D01*
X117400000Y-81049728D01*
X117438060Y-81141614D01*
X117508386Y-81211940D01*
X117600272Y-81250000D01*
X116694000Y-81250000D01*
X116626961Y-81230315D01*
X116581206Y-81177511D01*
X116576672Y-81156672D01*
X116570000Y-81150000D01*
X115800000Y-81150000D01*
X115800000Y-82199999D01*
X116049972Y-82199999D01*
X116049986Y-82199998D01*
X116152697Y-82189505D01*
X116319119Y-82134358D01*
X116319124Y-82134356D01*
X116468345Y-82042315D01*
X116592315Y-81918345D01*
X116684356Y-81769124D01*
X116684359Y-81769117D01*
X116718504Y-81666073D01*
X116758276Y-81608628D01*
X116822791Y-81581804D01*
X116891567Y-81594119D01*
X116923891Y-81617395D01*
X117044406Y-81737910D01*
X117044410Y-81737913D01*
X117199999Y-81841875D01*
X117200008Y-81841880D01*
X117372894Y-81913491D01*
X117372902Y-81913493D01*
X117556428Y-81949999D01*
X117556431Y-81950000D01*
X117750000Y-81950000D01*
X117750000Y-81250000D01*
X118250000Y-81250000D01*
X118250000Y-81950000D01*
X118443569Y-81950000D01*
X118443571Y-81949999D01*
X118627097Y-81913493D01*
X118627105Y-81913491D01*
X118728547Y-81871473D01*
X118798016Y-81864004D01*
X118860496Y-81895279D01*
X118896148Y-81955368D01*
X118900000Y-81986034D01*
X118900000Y-98098638D01*
X118891355Y-98128078D01*
X118884832Y-98158065D01*
X118881077Y-98163080D01*
X118880315Y-98165677D01*
X118863681Y-98186319D01*
X118836319Y-98213681D01*
X118774996Y-98247166D01*
X118748638Y-98250000D01*
X116728485Y-98250000D01*
X116661446Y-98230315D01*
X116615691Y-98177511D01*
X116605747Y-98108353D01*
X116634772Y-98044797D01*
X116672190Y-98015515D01*
X116736171Y-97982914D01*
X116927186Y-97844133D01*
X117094133Y-97677186D01*
X117232914Y-97486171D01*
X117340102Y-97275802D01*
X117413065Y-97051247D01*
X117429102Y-96950000D01*
X116383012Y-96950000D01*
X116415925Y-96892993D01*
X116450000Y-96765826D01*
X116450000Y-96634174D01*
X116415925Y-96507007D01*
X116383012Y-96450000D01*
X117429102Y-96450000D01*
X117413065Y-96348752D01*
X117340102Y-96124197D01*
X117232914Y-95913828D01*
X117094133Y-95722813D01*
X116927186Y-95555866D01*
X116736171Y-95417085D01*
X116525802Y-95309897D01*
X116301247Y-95236934D01*
X116301248Y-95236934D01*
X116068052Y-95200000D01*
X115450000Y-95200000D01*
X115450000Y-96200000D01*
X114950000Y-96200000D01*
X114950000Y-95200000D01*
X114331948Y-95200000D01*
X114098752Y-95236934D01*
X113874197Y-95309897D01*
X113663828Y-95417085D01*
X113472813Y-95555866D01*
X113305866Y-95722813D01*
X113167085Y-95913828D01*
X113059897Y-96124197D01*
X112986934Y-96348752D01*
X112970898Y-96450000D01*
X114016988Y-96450000D01*
X113984075Y-96507007D01*
X113950000Y-96634174D01*
X113950000Y-96765826D01*
X113984075Y-96892993D01*
X114016988Y-96950000D01*
X112970898Y-96950000D01*
X112986934Y-97051247D01*
X113059897Y-97275802D01*
X113167085Y-97486171D01*
X113305866Y-97677186D01*
X113472813Y-97844133D01*
X113663828Y-97982914D01*
X113727810Y-98015515D01*
X113778606Y-98063490D01*
X113795401Y-98131311D01*
X113772863Y-98197446D01*
X113718148Y-98240897D01*
X113671515Y-98250000D01*
X111251362Y-98250000D01*
X111184323Y-98230315D01*
X111163681Y-98213681D01*
X110436319Y-97486319D01*
X110402834Y-97424996D01*
X110400000Y-97398638D01*
X110400000Y-91431947D01*
X112700000Y-91431947D01*
X112700000Y-91950000D01*
X113700000Y-91950000D01*
X113700000Y-92450000D01*
X112700000Y-92450000D01*
X112700000Y-92968052D01*
X112736934Y-93201247D01*
X112809897Y-93425802D01*
X112917085Y-93636171D01*
X113055866Y-93827186D01*
X113222813Y-93994133D01*
X113413828Y-94132914D01*
X113624195Y-94240102D01*
X113848744Y-94313063D01*
X113848750Y-94313065D01*
X113950000Y-94329101D01*
X113950000Y-93283012D01*
X114007007Y-93315925D01*
X114134174Y-93350000D01*
X114265826Y-93350000D01*
X114392993Y-93315925D01*
X114450000Y-93283012D01*
X114450000Y-94329100D01*
X114551249Y-94313065D01*
X114551255Y-94313063D01*
X114775804Y-94240102D01*
X114986171Y-94132914D01*
X115177186Y-93994133D01*
X115344133Y-93827186D01*
X115482914Y-93636171D01*
X115590102Y-93425802D01*
X115663065Y-93201247D01*
X115700000Y-92968052D01*
X115700000Y-92450000D01*
X114700000Y-92450000D01*
X114700000Y-92096530D01*
X116149500Y-92096530D01*
X116149500Y-92303469D01*
X116189868Y-92506412D01*
X116189870Y-92506420D01*
X116269058Y-92697596D01*
X116384024Y-92869657D01*
X116530342Y-93015975D01*
X116530345Y-93015977D01*
X116702402Y-93130941D01*
X116893580Y-93210130D01*
X117043743Y-93239999D01*
X117096530Y-93250499D01*
X117096534Y-93250500D01*
X117096535Y-93250500D01*
X117303466Y-93250500D01*
X117303467Y-93250499D01*
X117506420Y-93210130D01*
X117697598Y-93130941D01*
X117869655Y-93015977D01*
X118015977Y-92869655D01*
X118130941Y-92697598D01*
X118210130Y-92506420D01*
X118250500Y-92303465D01*
X118250500Y-92096535D01*
X118210130Y-91893580D01*
X118130941Y-91702402D01*
X118015977Y-91530345D01*
X118015975Y-91530342D01*
X117869657Y-91384024D01*
X117783626Y-91326541D01*
X117697598Y-91269059D01*
X117634669Y-91242993D01*
X117506420Y-91189870D01*
X117506412Y-91189868D01*
X117303469Y-91149500D01*
X117303465Y-91149500D01*
X117096535Y-91149500D01*
X117096530Y-91149500D01*
X116893587Y-91189868D01*
X116893579Y-91189870D01*
X116702403Y-91269058D01*
X116530342Y-91384024D01*
X116384024Y-91530342D01*
X116269058Y-91702403D01*
X116189870Y-91893579D01*
X116189868Y-91893587D01*
X116149500Y-92096530D01*
X114700000Y-92096530D01*
X114700000Y-91950000D01*
X115700000Y-91950000D01*
X115700000Y-91431947D01*
X115663065Y-91198752D01*
X115590102Y-90974197D01*
X115482914Y-90763828D01*
X115344133Y-90572813D01*
X115177186Y-90405866D01*
X114986171Y-90267085D01*
X114775802Y-90159897D01*
X114551247Y-90086934D01*
X114450000Y-90070897D01*
X114450000Y-91116988D01*
X114392993Y-91084075D01*
X114265826Y-91050000D01*
X114134174Y-91050000D01*
X114007007Y-91084075D01*
X113950000Y-91116988D01*
X113950000Y-90070897D01*
X113848752Y-90086934D01*
X113624197Y-90159897D01*
X113413828Y-90267085D01*
X113222813Y-90405866D01*
X113055866Y-90572813D01*
X112917085Y-90763828D01*
X112809897Y-90974197D01*
X112736934Y-91198752D01*
X112700000Y-91431947D01*
X110400000Y-91431947D01*
X110400000Y-87450000D01*
X112970898Y-87450000D01*
X114016988Y-87450000D01*
X113984075Y-87507007D01*
X113950000Y-87634174D01*
X113950000Y-87765826D01*
X113984075Y-87892993D01*
X114016988Y-87950000D01*
X112970898Y-87950000D01*
X112986934Y-88051247D01*
X113059897Y-88275802D01*
X113167085Y-88486171D01*
X113305866Y-88677186D01*
X113472813Y-88844133D01*
X113663828Y-88982914D01*
X113874197Y-89090102D01*
X114098752Y-89163065D01*
X114098751Y-89163065D01*
X114331948Y-89200000D01*
X114950000Y-89200000D01*
X114950000Y-88200000D01*
X115450000Y-88200000D01*
X115450000Y-89200000D01*
X116068052Y-89200000D01*
X116301247Y-89163065D01*
X116525802Y-89090102D01*
X116736171Y-88982914D01*
X116927186Y-88844133D01*
X117094133Y-88677186D01*
X117232914Y-88486171D01*
X117340102Y-88275802D01*
X117413065Y-88051247D01*
X117429102Y-87950000D01*
X116383012Y-87950000D01*
X116415925Y-87892993D01*
X116450000Y-87765826D01*
X116450000Y-87634174D01*
X116415925Y-87507007D01*
X116383012Y-87450000D01*
X117429102Y-87450000D01*
X117413065Y-87348752D01*
X117340102Y-87124197D01*
X117232914Y-86913828D01*
X117094133Y-86722813D01*
X116927186Y-86555866D01*
X116736171Y-86417085D01*
X116525802Y-86309897D01*
X116301247Y-86236934D01*
X116301248Y-86236934D01*
X116068052Y-86200000D01*
X115450000Y-86200000D01*
X115450000Y-87200000D01*
X114950000Y-87200000D01*
X114950000Y-86200000D01*
X114331948Y-86200000D01*
X114098752Y-86236934D01*
X113874197Y-86309897D01*
X113663828Y-86417085D01*
X113472813Y-86555866D01*
X113305866Y-86722813D01*
X113167085Y-86913828D01*
X113059897Y-87124197D01*
X112986934Y-87348752D01*
X112970898Y-87450000D01*
X110400000Y-87450000D01*
X110400000Y-85266281D01*
X110419685Y-85199242D01*
X110436319Y-85178600D01*
X111033576Y-84581344D01*
X114143694Y-81471226D01*
X114205017Y-81437741D01*
X114274709Y-81442725D01*
X114330642Y-81484597D01*
X114354733Y-81546305D01*
X114360494Y-81602696D01*
X114415641Y-81769119D01*
X114415643Y-81769124D01*
X114507684Y-81918345D01*
X114631654Y-82042315D01*
X114780875Y-82134356D01*
X114780880Y-82134358D01*
X114947302Y-82189505D01*
X114947309Y-82189506D01*
X115050019Y-82199999D01*
X115299999Y-82199999D01*
X115300000Y-82199998D01*
X115300000Y-81024000D01*
X115319685Y-80956961D01*
X115372489Y-80911206D01*
X115424000Y-80900000D01*
X115550000Y-80900000D01*
X115550000Y-80774000D01*
X115569685Y-80706961D01*
X115622489Y-80661206D01*
X115674000Y-80650000D01*
X116756000Y-80650000D01*
X116823039Y-80669685D01*
G37*
%TD.AperFunction*%
%TA.AperFunction,Conductor*%
G36*
X118250000Y-80750000D02*
G01*
X117750000Y-80750000D01*
X117750000Y-76750000D01*
X116549988Y-76750000D01*
X116530808Y-76744368D01*
X116510830Y-76743655D01*
X116497968Y-76734725D01*
X116482949Y-76730315D01*
X116469859Y-76715209D01*
X116453437Y-76703807D01*
X116439224Y-76679854D01*
X116437194Y-76677511D01*
X116435442Y-76673489D01*
X116429438Y-76658993D01*
X116420000Y-76611544D01*
X116420000Y-76600000D01*
X116407736Y-76587736D01*
X116382461Y-76580315D01*
X116351125Y-76551487D01*
X116328284Y-76521720D01*
X116328282Y-76521719D01*
X116328282Y-76521718D01*
X116202841Y-76425464D01*
X116202839Y-76425463D01*
X116198816Y-76422376D01*
X116157614Y-76365948D01*
X116153459Y-76296202D01*
X116187671Y-76235281D01*
X116249389Y-76202529D01*
X116274303Y-76200000D01*
X116528638Y-76200000D01*
X116595677Y-76219685D01*
X116616319Y-76236319D01*
X116630000Y-76250000D01*
X117750000Y-76250000D01*
X117750000Y-74650000D01*
X118250000Y-74650000D01*
X118250000Y-80750000D01*
G37*
%TD.AperFunction*%
%TA.AperFunction,Conductor*%
G36*
X118615677Y-37769685D02*
G01*
X118636319Y-37786319D01*
X118863681Y-38013681D01*
X118897166Y-38075004D01*
X118900000Y-38101362D01*
X118900000Y-73413965D01*
X118880315Y-73481004D01*
X118827511Y-73526759D01*
X118758353Y-73536703D01*
X118728548Y-73528526D01*
X118627109Y-73486509D01*
X118627097Y-73486506D01*
X118443570Y-73450000D01*
X118250000Y-73450000D01*
X118250000Y-74150000D01*
X117750000Y-74150000D01*
X117750000Y-73450000D01*
X117556430Y-73450000D01*
X117372902Y-73486506D01*
X117372894Y-73486508D01*
X117200008Y-73558119D01*
X117199999Y-73558124D01*
X117044410Y-73662086D01*
X116923891Y-73782605D01*
X116862568Y-73816089D01*
X116792876Y-73811105D01*
X116736943Y-73769233D01*
X116718504Y-73733926D01*
X116684359Y-73630882D01*
X116684356Y-73630875D01*
X116592315Y-73481654D01*
X116468345Y-73357684D01*
X116319124Y-73265643D01*
X116319119Y-73265641D01*
X116152697Y-73210494D01*
X116152690Y-73210493D01*
X116049986Y-73200000D01*
X115800000Y-73200000D01*
X115800000Y-74250000D01*
X116570000Y-74250000D01*
X116579976Y-74240023D01*
X116589685Y-74206961D01*
X116642489Y-74161206D01*
X116694000Y-74150000D01*
X117600272Y-74150000D01*
X117508386Y-74188060D01*
X117438060Y-74258386D01*
X117400000Y-74350272D01*
X117400000Y-74449728D01*
X117438060Y-74541614D01*
X117508386Y-74611940D01*
X117600272Y-74650000D01*
X116880000Y-74650000D01*
X116870023Y-74659976D01*
X116860315Y-74693039D01*
X116807511Y-74738794D01*
X116756000Y-74750000D01*
X114350001Y-74750000D01*
X114350001Y-75099986D01*
X114360494Y-75202697D01*
X114415641Y-75369119D01*
X114415643Y-75369124D01*
X114507684Y-75518345D01*
X114540926Y-75551587D01*
X114574411Y-75612910D01*
X114569427Y-75682602D01*
X114527555Y-75738535D01*
X114500698Y-75753829D01*
X114447412Y-75775900D01*
X114322075Y-75872075D01*
X114225899Y-75997413D01*
X114165444Y-76143368D01*
X114157987Y-76200000D01*
X114375697Y-76200000D01*
X114401016Y-76207434D01*
X114427138Y-76211174D01*
X114434012Y-76217123D01*
X114442736Y-76219685D01*
X114460014Y-76239625D01*
X114479971Y-76256896D01*
X114482538Y-76265619D01*
X114488491Y-76272489D01*
X114492246Y-76298606D01*
X114499697Y-76323923D01*
X114497141Y-76332647D01*
X114498435Y-76341647D01*
X114487472Y-76365651D01*
X114480054Y-76390975D01*
X114471815Y-76399935D01*
X114469410Y-76405203D01*
X114456958Y-76417662D01*
X114448701Y-76424824D01*
X114447159Y-76425464D01*
X114321718Y-76521718D01*
X114291239Y-76561438D01*
X114281761Y-76569662D01*
X114260940Y-76579186D01*
X114242447Y-76592690D01*
X114224634Y-76595794D01*
X114218223Y-76598727D01*
X114212503Y-76597908D01*
X114200500Y-76600000D01*
X114157990Y-76600000D01*
X114157988Y-76600001D01*
X114165441Y-76656622D01*
X114165445Y-76656634D01*
X114173837Y-76676895D01*
X114181304Y-76746364D01*
X114173838Y-76771794D01*
X114164956Y-76793238D01*
X114164955Y-76793239D01*
X114149501Y-76910629D01*
X114149500Y-76910645D01*
X114149500Y-77029118D01*
X114146117Y-77040635D01*
X114147259Y-77052584D01*
X114136456Y-77073538D01*
X114129815Y-77096157D01*
X114119944Y-77105568D01*
X114115244Y-77114687D01*
X114087501Y-77136504D01*
X114050469Y-77157885D01*
X113988468Y-77174499D01*
X113888347Y-77174499D01*
X113888331Y-77174500D01*
X113525097Y-77174500D01*
X113495656Y-77165855D01*
X113465670Y-77159332D01*
X113460654Y-77155577D01*
X113458058Y-77154815D01*
X113437416Y-77138181D01*
X113336819Y-77037584D01*
X113303334Y-76976261D01*
X113300500Y-76949903D01*
X113300500Y-76834313D01*
X113300499Y-76834298D01*
X113297598Y-76797432D01*
X113297597Y-76797426D01*
X113254939Y-76650599D01*
X113251744Y-76639602D01*
X113168081Y-76498135D01*
X113168079Y-76498133D01*
X113168076Y-76498129D01*
X113051870Y-76381923D01*
X113051862Y-76381917D01*
X112910396Y-76298255D01*
X112910393Y-76298254D01*
X112752573Y-76252402D01*
X112752567Y-76252401D01*
X112715701Y-76249500D01*
X112715694Y-76249500D01*
X112473697Y-76249500D01*
X112406658Y-76229815D01*
X112360903Y-76177011D01*
X112350959Y-76107853D01*
X112368159Y-76060403D01*
X112435448Y-75951311D01*
X112435453Y-75951300D01*
X112489680Y-75787652D01*
X112499999Y-75686654D01*
X112500000Y-75686641D01*
X112500000Y-75650000D01*
X111586500Y-75650000D01*
X111519461Y-75630315D01*
X111473706Y-75577511D01*
X111462500Y-75526000D01*
X111462500Y-75400000D01*
X111336500Y-75400000D01*
X111269461Y-75380315D01*
X111223706Y-75327511D01*
X111212500Y-75276000D01*
X111212500Y-75150000D01*
X111712500Y-75150000D01*
X112499999Y-75150000D01*
X112499999Y-75113360D01*
X112499998Y-75113345D01*
X112489680Y-75012347D01*
X112435453Y-74848699D01*
X112435450Y-74848692D01*
X112353047Y-74715098D01*
X112334606Y-74647705D01*
X112353047Y-74584902D01*
X112435450Y-74451307D01*
X112435453Y-74451300D01*
X112489680Y-74287652D01*
X112499999Y-74186654D01*
X112500000Y-74186641D01*
X112500000Y-74150000D01*
X111712500Y-74150000D01*
X111712500Y-75150000D01*
X111212500Y-75150000D01*
X111212500Y-74024000D01*
X111232185Y-73956961D01*
X111284989Y-73911206D01*
X111336440Y-73900013D01*
X114350000Y-73900013D01*
X114350000Y-74250000D01*
X115300000Y-74250000D01*
X115300000Y-73200000D01*
X115050029Y-73200000D01*
X115050012Y-73200001D01*
X114947302Y-73210494D01*
X114780880Y-73265641D01*
X114780875Y-73265643D01*
X114631654Y-73357684D01*
X114507684Y-73481654D01*
X114415643Y-73630875D01*
X114415641Y-73630880D01*
X114360494Y-73797302D01*
X114360493Y-73797309D01*
X114350000Y-73900013D01*
X111336440Y-73900013D01*
X111336500Y-73900000D01*
X111462500Y-73900000D01*
X111462500Y-73774000D01*
X111482185Y-73706961D01*
X111534989Y-73661206D01*
X111586500Y-73650000D01*
X112499999Y-73650000D01*
X112499999Y-73613360D01*
X112499998Y-73613345D01*
X112489680Y-73512347D01*
X112435453Y-73348699D01*
X112435448Y-73348688D01*
X112344947Y-73201965D01*
X112344944Y-73201961D01*
X112333054Y-73190071D01*
X112299569Y-73128748D01*
X112304553Y-73059056D01*
X112333052Y-73014711D01*
X112680520Y-72667245D01*
X112759577Y-72530314D01*
X112800501Y-72377586D01*
X112800501Y-72219471D01*
X112800501Y-72211876D01*
X112800500Y-72211858D01*
X112800500Y-71539059D01*
X112800501Y-71539046D01*
X112800501Y-71370945D01*
X112800501Y-71370943D01*
X112759577Y-71218215D01*
X112722883Y-71154660D01*
X112722883Y-71154659D01*
X112680522Y-71081287D01*
X112680521Y-71081286D01*
X112680520Y-71081284D01*
X112568716Y-70969480D01*
X112568715Y-70969479D01*
X112564385Y-70965149D01*
X112564374Y-70965139D01*
X111587590Y-69988355D01*
X111587588Y-69988352D01*
X111468717Y-69869481D01*
X111468716Y-69869480D01*
X111381904Y-69819360D01*
X111381904Y-69819359D01*
X111381900Y-69819358D01*
X111331785Y-69790423D01*
X111179057Y-69749499D01*
X111020943Y-69749499D01*
X111013347Y-69749499D01*
X111013331Y-69749500D01*
X106079057Y-69749500D01*
X105920942Y-69749500D01*
X105768215Y-69790423D01*
X105768214Y-69790423D01*
X105768212Y-69790424D01*
X105768209Y-69790425D01*
X105718096Y-69819359D01*
X105718095Y-69819360D01*
X105674689Y-69844420D01*
X105631285Y-69869479D01*
X105631282Y-69869481D01*
X105463063Y-70037701D01*
X105401740Y-70071186D01*
X105332048Y-70066202D01*
X105287701Y-70037701D01*
X104674681Y-69424681D01*
X104641196Y-69363358D01*
X104646180Y-69293666D01*
X104688052Y-69237733D01*
X104753516Y-69213316D01*
X104762362Y-69213000D01*
X112211548Y-69213000D01*
X112278587Y-69232685D01*
X112317086Y-69271903D01*
X112379657Y-69373346D01*
X112379660Y-69373350D01*
X112501650Y-69495340D01*
X112648484Y-69585908D01*
X112812247Y-69640174D01*
X112913323Y-69650500D01*
X113486676Y-69650499D01*
X113486684Y-69650498D01*
X113486687Y-69650498D01*
X113510165Y-69648099D01*
X113587753Y-69640174D01*
X113660607Y-69616031D01*
X113730432Y-69613630D01*
X113760665Y-69628330D01*
X113761747Y-69626456D01*
X113768781Y-69630517D01*
X113768784Y-69630520D01*
X113905715Y-69709577D01*
X114058443Y-69750501D01*
X114058446Y-69750501D01*
X114224154Y-69750501D01*
X114224170Y-69750500D01*
X114637749Y-69750500D01*
X114704788Y-69770185D01*
X114737015Y-69800188D01*
X114779951Y-69857542D01*
X114779954Y-69857546D01*
X114795896Y-69869480D01*
X114895164Y-69943793D01*
X114895171Y-69943797D01*
X115030017Y-69994091D01*
X115030016Y-69994091D01*
X115036944Y-69994835D01*
X115089627Y-70000500D01*
X116008011Y-70000499D01*
X116075050Y-70020183D01*
X116120805Y-70072987D01*
X116131695Y-70115651D01*
X116132195Y-70122652D01*
X116173133Y-70262068D01*
X116173136Y-70262075D01*
X116251686Y-70384301D01*
X116251688Y-70384304D01*
X116251689Y-70384305D01*
X116251690Y-70384306D01*
X116361503Y-70479460D01*
X116361504Y-70479460D01*
X116361506Y-70479462D01*
X116493669Y-70539819D01*
X116493676Y-70539821D01*
X116637500Y-70560500D01*
X116637501Y-70560500D01*
X117987500Y-70560500D01*
X118060152Y-70555304D01*
X118199569Y-70514367D01*
X118321806Y-70435810D01*
X118416960Y-70325997D01*
X118446155Y-70262069D01*
X118477319Y-70193830D01*
X118477321Y-70193823D01*
X118477565Y-70192127D01*
X118498000Y-70050000D01*
X118498000Y-68900000D01*
X118492804Y-68827348D01*
X118451867Y-68687931D01*
X118451514Y-68687382D01*
X118373313Y-68565698D01*
X118373311Y-68565695D01*
X118373310Y-68565694D01*
X118263497Y-68470540D01*
X118263495Y-68470539D01*
X118263493Y-68470537D01*
X118131330Y-68410180D01*
X118131323Y-68410178D01*
X118003281Y-68391769D01*
X117987500Y-68389500D01*
X117337500Y-68389500D01*
X117337497Y-68389500D01*
X117264847Y-68394695D01*
X117125431Y-68435633D01*
X117125424Y-68435636D01*
X117003198Y-68514186D01*
X117003191Y-68514192D01*
X116903682Y-68629031D01*
X116844904Y-68666805D01*
X116775034Y-68666805D01*
X116716257Y-68629030D01*
X116704950Y-68613758D01*
X116698213Y-68603027D01*
X116681296Y-68557669D01*
X116609684Y-68462007D01*
X116606979Y-68457699D01*
X116598817Y-68428773D01*
X116588315Y-68400616D01*
X116587999Y-68391769D01*
X116587999Y-67107397D01*
X116607684Y-67040358D01*
X116612733Y-67033086D01*
X116680850Y-66942093D01*
X116680853Y-66942088D01*
X116695580Y-66902602D01*
X116737451Y-66846667D01*
X116802914Y-66822249D01*
X116871188Y-66837100D01*
X116916078Y-66878894D01*
X116951686Y-66934301D01*
X116951688Y-66934304D01*
X116951689Y-66934305D01*
X116951690Y-66934306D01*
X117061503Y-67029460D01*
X117061504Y-67029460D01*
X117061506Y-67029462D01*
X117193669Y-67089819D01*
X117193676Y-67089821D01*
X117337500Y-67110500D01*
X117337501Y-67110500D01*
X117987500Y-67110500D01*
X118060152Y-67105304D01*
X118199569Y-67064367D01*
X118321806Y-66985810D01*
X118416960Y-66875997D01*
X118416962Y-66875993D01*
X118477319Y-66743830D01*
X118477321Y-66743823D01*
X118479703Y-66727257D01*
X118498000Y-66600000D01*
X118500000Y-66600000D01*
X118500000Y-58650000D01*
X116400000Y-58650000D01*
X116400000Y-59001975D01*
X116303198Y-59064186D01*
X116303195Y-59064188D01*
X116208040Y-59174003D01*
X116208037Y-59174006D01*
X116147680Y-59306169D01*
X116147678Y-59306177D01*
X116135103Y-59393646D01*
X116106078Y-59457202D01*
X116047300Y-59494977D01*
X116012365Y-59500000D01*
X115937500Y-59500000D01*
X115937500Y-60226000D01*
X115917815Y-60293039D01*
X115865011Y-60338794D01*
X115813500Y-60350000D01*
X115687500Y-60350000D01*
X115687500Y-60425500D01*
X115667815Y-60492539D01*
X115615011Y-60538294D01*
X115563500Y-60549500D01*
X114939629Y-60549500D01*
X114939623Y-60549501D01*
X114880016Y-60555908D01*
X114782764Y-60592182D01*
X114739431Y-60600000D01*
X114637500Y-60600000D01*
X114637500Y-60641102D01*
X114631261Y-60662347D01*
X114629682Y-60684436D01*
X114619068Y-60703873D01*
X114617815Y-60708141D01*
X114612768Y-60715410D01*
X114603901Y-60727257D01*
X114598266Y-60734784D01*
X114542332Y-60776655D01*
X114472641Y-60781639D01*
X114411318Y-60748154D01*
X114377833Y-60686831D01*
X114374999Y-60660473D01*
X114374999Y-60538360D01*
X114374998Y-60538344D01*
X114364680Y-60437347D01*
X114310453Y-60273699D01*
X114310448Y-60273688D01*
X114219947Y-60126965D01*
X114219944Y-60126961D01*
X114098038Y-60005055D01*
X114098034Y-60005052D01*
X114012276Y-59952155D01*
X114637500Y-59952155D01*
X114637500Y-60100000D01*
X115437500Y-60100000D01*
X115437500Y-59500000D01*
X115089655Y-59500000D01*
X115030127Y-59506401D01*
X115030120Y-59506403D01*
X114895413Y-59556645D01*
X114895406Y-59556649D01*
X114780312Y-59642809D01*
X114780309Y-59642812D01*
X114694149Y-59757906D01*
X114694145Y-59757913D01*
X114643903Y-59892620D01*
X114643901Y-59892627D01*
X114637500Y-59952155D01*
X114012276Y-59952155D01*
X113951311Y-59914551D01*
X113951300Y-59914546D01*
X113787652Y-59860319D01*
X113686654Y-59850000D01*
X113650000Y-59850000D01*
X113650000Y-60763500D01*
X113630315Y-60830539D01*
X113577511Y-60876294D01*
X113526000Y-60887500D01*
X113400000Y-60887500D01*
X113400000Y-61013500D01*
X113380315Y-61080539D01*
X113327511Y-61126294D01*
X113276000Y-61137500D01*
X112425001Y-61137500D01*
X112425001Y-61236654D01*
X112435319Y-61337652D01*
X112489546Y-61501300D01*
X112489551Y-61501311D01*
X112580052Y-61648034D01*
X112580055Y-61648038D01*
X112593982Y-61661965D01*
X112627467Y-61723288D01*
X112622483Y-61792980D01*
X112608608Y-61819712D01*
X112602110Y-61829199D01*
X112579660Y-61851650D01*
X112515536Y-61955611D01*
X112513855Y-61958066D01*
X112488992Y-61978365D01*
X112465138Y-61999822D01*
X112461778Y-62000585D01*
X112459734Y-62002255D01*
X112449094Y-62003467D01*
X112411548Y-62012000D01*
X103716557Y-62012000D01*
X103558443Y-62012000D01*
X103405715Y-62052923D01*
X103405714Y-62052923D01*
X103405712Y-62052924D01*
X103405709Y-62052925D01*
X103355596Y-62081859D01*
X103355595Y-62081860D01*
X103312189Y-62106920D01*
X103268785Y-62131979D01*
X103268782Y-62131981D01*
X100485339Y-64915425D01*
X100468741Y-64924487D01*
X100455133Y-64937619D01*
X100425636Y-64948025D01*
X100424016Y-64948910D01*
X100421850Y-64949361D01*
X100301281Y-64973344D01*
X100231689Y-64967117D01*
X100189408Y-64939408D01*
X96900000Y-61650000D01*
X96750597Y-61650000D01*
X96683558Y-61630315D01*
X96662916Y-61613681D01*
X95587580Y-60538345D01*
X112425000Y-60538345D01*
X112425000Y-60637500D01*
X113150000Y-60637500D01*
X113150000Y-59850000D01*
X113113361Y-59850000D01*
X113113343Y-59850001D01*
X113012347Y-59860319D01*
X112848699Y-59914546D01*
X112848688Y-59914551D01*
X112701965Y-60005052D01*
X112701961Y-60005055D01*
X112580055Y-60126961D01*
X112580052Y-60126965D01*
X112489551Y-60273688D01*
X112489546Y-60273699D01*
X112435319Y-60437347D01*
X112425000Y-60538345D01*
X95587580Y-60538345D01*
X93431182Y-58381947D01*
X105775062Y-58381947D01*
X105775062Y-58618052D01*
X105811996Y-58851247D01*
X105884959Y-59075802D01*
X105992149Y-59286174D01*
X106052400Y-59369104D01*
X106052402Y-59369105D01*
X106674020Y-58747487D01*
X106699040Y-58807890D01*
X106770174Y-58914351D01*
X106860711Y-59004888D01*
X106967172Y-59076022D01*
X107027573Y-59101041D01*
X106405955Y-59722658D01*
X106488890Y-59782914D01*
X106699259Y-59890102D01*
X106923814Y-59963065D01*
X106923813Y-59963065D01*
X107157010Y-60000000D01*
X107393114Y-60000000D01*
X107626309Y-59963065D01*
X107850864Y-59890102D01*
X108061225Y-59782918D01*
X108061231Y-59782914D01*
X108144166Y-59722658D01*
X108144167Y-59722658D01*
X107522550Y-59101041D01*
X107582952Y-59076022D01*
X107689413Y-59004888D01*
X107779950Y-58914351D01*
X107851084Y-58807890D01*
X107876103Y-58747488D01*
X108497720Y-59369105D01*
X108497720Y-59369104D01*
X108557976Y-59286169D01*
X108557980Y-59286163D01*
X108665164Y-59075802D01*
X108738127Y-58851247D01*
X108775062Y-58618052D01*
X108775062Y-58381947D01*
X108738127Y-58148752D01*
X108665164Y-57924197D01*
X108557976Y-57713828D01*
X108497720Y-57630894D01*
X108497720Y-57630893D01*
X107876103Y-58252511D01*
X107851084Y-58192110D01*
X107779950Y-58085649D01*
X107689413Y-57995112D01*
X107582952Y-57923978D01*
X107522550Y-57898958D01*
X108144167Y-57277340D01*
X108144166Y-57277338D01*
X108061236Y-57217087D01*
X107850864Y-57109897D01*
X107626309Y-57036934D01*
X107626310Y-57036934D01*
X107393114Y-57000000D01*
X107157010Y-57000000D01*
X106923814Y-57036934D01*
X106699259Y-57109897D01*
X106488892Y-57217084D01*
X106405956Y-57277340D01*
X107027574Y-57898958D01*
X106967172Y-57923978D01*
X106860711Y-57995112D01*
X106770174Y-58085649D01*
X106699040Y-58192110D01*
X106674020Y-58252512D01*
X106052402Y-57630894D01*
X105992146Y-57713830D01*
X105884959Y-57924197D01*
X105811996Y-58148752D01*
X105775062Y-58381947D01*
X93431182Y-58381947D01*
X89537590Y-54488355D01*
X89537588Y-54488352D01*
X89418717Y-54369481D01*
X89418716Y-54369480D01*
X89331904Y-54319360D01*
X89331904Y-54319359D01*
X89331900Y-54319358D01*
X89281785Y-54290423D01*
X89129057Y-54249499D01*
X88970943Y-54249499D01*
X88963347Y-54249499D01*
X88963331Y-54249500D01*
X76349097Y-54249500D01*
X76282058Y-54229815D01*
X76236303Y-54177011D01*
X76226359Y-54107853D01*
X76255384Y-54044297D01*
X76261416Y-54037819D01*
X78118596Y-52180639D01*
X83704506Y-46594727D01*
X83704511Y-46594724D01*
X83714714Y-46584520D01*
X83714716Y-46584520D01*
X83826520Y-46472716D01*
X83877439Y-46384521D01*
X83905577Y-46335785D01*
X83946500Y-46183058D01*
X83946500Y-46024943D01*
X83946500Y-44837319D01*
X83966185Y-44770280D01*
X83996192Y-44738050D01*
X84003546Y-44732545D01*
X84089796Y-44617330D01*
X84140091Y-44482482D01*
X84146500Y-44422872D01*
X84146499Y-42777127D01*
X84140091Y-42717516D01*
X84089884Y-42582905D01*
X84089797Y-42582670D01*
X84089793Y-42582663D01*
X84003547Y-42467454D01*
X84003544Y-42467451D01*
X83888335Y-42381205D01*
X83888328Y-42381201D01*
X83753486Y-42330909D01*
X83753485Y-42330908D01*
X83753483Y-42330908D01*
X83693873Y-42324499D01*
X83693863Y-42324499D01*
X82998129Y-42324499D01*
X82998123Y-42324500D01*
X82938518Y-42330907D01*
X82889330Y-42349253D01*
X82819639Y-42354236D01*
X82802666Y-42349252D01*
X82753485Y-42330909D01*
X82753484Y-42330908D01*
X82753482Y-42330908D01*
X82693872Y-42324499D01*
X82693862Y-42324499D01*
X81998128Y-42324499D01*
X81998122Y-42324500D01*
X81938515Y-42330907D01*
X81889331Y-42349252D01*
X81819639Y-42354236D01*
X81802666Y-42349252D01*
X81753485Y-42330909D01*
X81753484Y-42330908D01*
X81753482Y-42330908D01*
X81693872Y-42324499D01*
X81693862Y-42324499D01*
X80998128Y-42324499D01*
X80998122Y-42324500D01*
X80938517Y-42330907D01*
X80888616Y-42349519D01*
X80818925Y-42354502D01*
X80801952Y-42349518D01*
X80753380Y-42331402D01*
X80753373Y-42331400D01*
X80693845Y-42324999D01*
X80596001Y-42324999D01*
X80596001Y-42576924D01*
X80588183Y-42620257D01*
X80551907Y-42717516D01*
X80545500Y-42777115D01*
X80545499Y-42777126D01*
X80545499Y-43349999D01*
X80545500Y-43599999D01*
X80545500Y-44422875D01*
X80551907Y-44482482D01*
X80588183Y-44579740D01*
X80596001Y-44623073D01*
X80596001Y-44874999D01*
X80623202Y-44902200D01*
X80656687Y-44963523D01*
X80651703Y-45033215D01*
X80623202Y-45077562D01*
X74687584Y-51013181D01*
X74626261Y-51046666D01*
X74599903Y-51049500D01*
X70510940Y-51049500D01*
X70470019Y-51060464D01*
X70470019Y-51060465D01*
X70432751Y-51070451D01*
X70358214Y-51090423D01*
X70358209Y-51090426D01*
X70221290Y-51169475D01*
X70221282Y-51169481D01*
X66308063Y-55082701D01*
X66246740Y-55116186D01*
X66177048Y-55111202D01*
X66132701Y-55082701D01*
X58300000Y-47250000D01*
X40951362Y-47250000D01*
X40921921Y-47241355D01*
X40891935Y-47234832D01*
X40886919Y-47231077D01*
X40884323Y-47230315D01*
X40863681Y-47213681D01*
X40836319Y-47186319D01*
X40802834Y-47124996D01*
X40800000Y-47098638D01*
X40800000Y-44422843D01*
X79546001Y-44422843D01*
X79552402Y-44482371D01*
X79552404Y-44482378D01*
X79602646Y-44617085D01*
X79602650Y-44617092D01*
X79688810Y-44732186D01*
X79688813Y-44732189D01*
X79803907Y-44818349D01*
X79803914Y-44818353D01*
X79938621Y-44868595D01*
X79938628Y-44868597D01*
X79998156Y-44874998D01*
X79998173Y-44874999D01*
X80096001Y-44874999D01*
X80096001Y-43849999D01*
X79546001Y-43849999D01*
X79546001Y-44422843D01*
X40800000Y-44422843D01*
X40800000Y-42777154D01*
X79546001Y-42777154D01*
X79546001Y-43349999D01*
X80096001Y-43349999D01*
X80096001Y-42324999D01*
X79998156Y-42324999D01*
X79938628Y-42331400D01*
X79938621Y-42331402D01*
X79803914Y-42381644D01*
X79803907Y-42381648D01*
X79688813Y-42467808D01*
X79688810Y-42467811D01*
X79602650Y-42582905D01*
X79602646Y-42582912D01*
X79552404Y-42717619D01*
X79552402Y-42717626D01*
X79546001Y-42777154D01*
X40800000Y-42777154D01*
X40800000Y-40647843D01*
X77946001Y-40647843D01*
X77952402Y-40707371D01*
X77952404Y-40707378D01*
X78002646Y-40842085D01*
X78002650Y-40842092D01*
X78088810Y-40957186D01*
X78088813Y-40957189D01*
X78203907Y-41043349D01*
X78203914Y-41043353D01*
X78338621Y-41093595D01*
X78338628Y-41093597D01*
X78398156Y-41099998D01*
X78398173Y-41099999D01*
X78796001Y-41099999D01*
X79296001Y-41099999D01*
X79693829Y-41099999D01*
X79693845Y-41099998D01*
X79753373Y-41093597D01*
X79753380Y-41093595D01*
X79888087Y-41043353D01*
X79888094Y-41043349D01*
X80003188Y-40957189D01*
X80003191Y-40957186D01*
X80089351Y-40842092D01*
X80089355Y-40842085D01*
X80139597Y-40707378D01*
X80139599Y-40707371D01*
X80146000Y-40647843D01*
X83546000Y-40647843D01*
X83552401Y-40707371D01*
X83552403Y-40707378D01*
X83602645Y-40842085D01*
X83602649Y-40842092D01*
X83688809Y-40957186D01*
X83688812Y-40957189D01*
X83803906Y-41043349D01*
X83803913Y-41043353D01*
X83938620Y-41093595D01*
X83938627Y-41093597D01*
X83998155Y-41099998D01*
X83998172Y-41099999D01*
X84396000Y-41099999D01*
X84896000Y-41099999D01*
X85293828Y-41099999D01*
X85293844Y-41099998D01*
X85353372Y-41093597D01*
X85353379Y-41093595D01*
X85488086Y-41043353D01*
X85488093Y-41043349D01*
X85603187Y-40957189D01*
X85603190Y-40957186D01*
X85689350Y-40842092D01*
X85689354Y-40842085D01*
X85739596Y-40707378D01*
X85739598Y-40707371D01*
X85745999Y-40647843D01*
X85746000Y-40647826D01*
X85746000Y-39949999D01*
X84896000Y-39949999D01*
X84896000Y-41099999D01*
X84396000Y-41099999D01*
X84396000Y-39949999D01*
X83546000Y-39949999D01*
X83546000Y-40647843D01*
X80146000Y-40647843D01*
X80146001Y-40647826D01*
X80146001Y-39949999D01*
X79296001Y-39949999D01*
X79296001Y-41099999D01*
X78796001Y-41099999D01*
X78796001Y-39949999D01*
X77946001Y-39949999D01*
X77946001Y-40647843D01*
X40800000Y-40647843D01*
X40800000Y-38752154D01*
X77946001Y-38752154D01*
X77946001Y-39449999D01*
X78796001Y-39449999D01*
X79296001Y-39449999D01*
X80146001Y-39449999D01*
X80146001Y-38752171D01*
X80146000Y-38752154D01*
X83546000Y-38752154D01*
X83546000Y-39449999D01*
X84396000Y-39449999D01*
X84896000Y-39449999D01*
X85746000Y-39449999D01*
X85746000Y-38752171D01*
X85745999Y-38752154D01*
X85739598Y-38692626D01*
X85739596Y-38692619D01*
X85689354Y-38557912D01*
X85689350Y-38557905D01*
X85603190Y-38442811D01*
X85603187Y-38442808D01*
X85488093Y-38356648D01*
X85488086Y-38356644D01*
X85353379Y-38306402D01*
X85353372Y-38306400D01*
X85293844Y-38299999D01*
X84896000Y-38299999D01*
X84896000Y-39449999D01*
X84396000Y-39449999D01*
X84396000Y-38299999D01*
X83998155Y-38299999D01*
X83938627Y-38306400D01*
X83938620Y-38306402D01*
X83803913Y-38356644D01*
X83803906Y-38356648D01*
X83688812Y-38442808D01*
X83688809Y-38442811D01*
X83602649Y-38557905D01*
X83602645Y-38557912D01*
X83552403Y-38692619D01*
X83552401Y-38692626D01*
X83546000Y-38752154D01*
X80146000Y-38752154D01*
X80139599Y-38692626D01*
X80139597Y-38692619D01*
X80089355Y-38557912D01*
X80089351Y-38557905D01*
X80003191Y-38442811D01*
X80003188Y-38442808D01*
X79888094Y-38356648D01*
X79888087Y-38356644D01*
X79753380Y-38306402D01*
X79753373Y-38306400D01*
X79693845Y-38299999D01*
X79296001Y-38299999D01*
X79296001Y-39449999D01*
X78796001Y-39449999D01*
X78796001Y-38299999D01*
X78398156Y-38299999D01*
X78338628Y-38306400D01*
X78338621Y-38306402D01*
X78203914Y-38356644D01*
X78203907Y-38356648D01*
X78088813Y-38442808D01*
X78088810Y-38442811D01*
X78002650Y-38557905D01*
X78002646Y-38557912D01*
X77952404Y-38692619D01*
X77952402Y-38692626D01*
X77946001Y-38752154D01*
X40800000Y-38752154D01*
X40800000Y-37874000D01*
X40819685Y-37806961D01*
X40872489Y-37761206D01*
X40924000Y-37750000D01*
X118548638Y-37750000D01*
X118615677Y-37769685D01*
G37*
%TD.AperFunction*%
%TA.AperFunction,Conductor*%
G36*
X112478587Y-63232685D02*
G01*
X112517086Y-63271903D01*
X112579657Y-63373346D01*
X112579660Y-63373350D01*
X112701650Y-63495340D01*
X112848484Y-63585908D01*
X113012247Y-63640174D01*
X113113323Y-63650500D01*
X113570162Y-63650499D01*
X113632161Y-63667111D01*
X113705715Y-63709577D01*
X113858443Y-63750501D01*
X113858446Y-63750501D01*
X114024154Y-63750501D01*
X114024170Y-63750500D01*
X114637749Y-63750500D01*
X114704788Y-63770185D01*
X114737015Y-63800188D01*
X114779951Y-63857542D01*
X114779954Y-63857546D01*
X114779957Y-63857548D01*
X114895164Y-63943793D01*
X114895171Y-63943797D01*
X115030017Y-63994091D01*
X115030016Y-63994091D01*
X115036944Y-63994835D01*
X115089627Y-64000500D01*
X116008011Y-64000499D01*
X116075050Y-64020183D01*
X116120805Y-64072987D01*
X116131695Y-64115651D01*
X116132195Y-64122652D01*
X116173133Y-64262068D01*
X116173136Y-64262075D01*
X116251686Y-64384301D01*
X116251688Y-64384304D01*
X116251689Y-64384305D01*
X116251690Y-64384306D01*
X116361503Y-64479460D01*
X116361504Y-64479460D01*
X116361506Y-64479462D01*
X116400000Y-64497041D01*
X116400000Y-65001975D01*
X116303198Y-65064186D01*
X116303195Y-65064188D01*
X116208040Y-65174003D01*
X116208037Y-65174006D01*
X116147680Y-65306169D01*
X116147678Y-65306177D01*
X116135103Y-65393646D01*
X116106078Y-65457202D01*
X116047300Y-65494977D01*
X116012365Y-65500000D01*
X115937500Y-65500000D01*
X115937500Y-66226000D01*
X115917815Y-66293039D01*
X115865011Y-66338794D01*
X115813500Y-66350000D01*
X115687500Y-66350000D01*
X115687500Y-66425500D01*
X115667815Y-66492539D01*
X115615011Y-66538294D01*
X115563500Y-66549500D01*
X114939629Y-66549500D01*
X114939623Y-66549501D01*
X114880016Y-66555908D01*
X114782764Y-66592182D01*
X114739431Y-66600000D01*
X114637500Y-66600000D01*
X114637500Y-66641102D01*
X114617815Y-66708141D01*
X114612768Y-66715410D01*
X114605501Y-66725117D01*
X114543703Y-66807669D01*
X114543702Y-66807671D01*
X114493408Y-66942517D01*
X114487001Y-67002116D01*
X114487000Y-67002135D01*
X114487000Y-68350902D01*
X114480761Y-68372147D01*
X114479182Y-68394236D01*
X114471109Y-68405019D01*
X114467315Y-68417941D01*
X114450581Y-68432440D01*
X114437310Y-68450169D01*
X114424689Y-68454876D01*
X114414511Y-68463696D01*
X114392593Y-68466847D01*
X114371846Y-68474586D01*
X114358685Y-68471723D01*
X114345353Y-68473640D01*
X114325209Y-68464440D01*
X114303573Y-68459734D01*
X114285847Y-68446465D01*
X114281797Y-68444615D01*
X114275319Y-68438583D01*
X114211818Y-68375082D01*
X114178333Y-68313759D01*
X114175499Y-68287401D01*
X114175499Y-68263330D01*
X114175498Y-68263313D01*
X114165174Y-68162247D01*
X114128947Y-68052923D01*
X114110908Y-67998484D01*
X114020340Y-67851650D01*
X114006017Y-67837327D01*
X113972532Y-67776004D01*
X113977516Y-67706312D01*
X114006021Y-67661960D01*
X114019947Y-67648035D01*
X114110448Y-67501311D01*
X114110453Y-67501300D01*
X114164680Y-67337652D01*
X114174999Y-67236654D01*
X114175000Y-67236641D01*
X114175000Y-67137500D01*
X112225001Y-67137500D01*
X112225001Y-67236654D01*
X112235319Y-67337652D01*
X112289546Y-67501300D01*
X112289551Y-67501311D01*
X112380052Y-67648034D01*
X112380055Y-67648038D01*
X112393982Y-67661965D01*
X112427467Y-67723288D01*
X112422483Y-67792980D01*
X112408608Y-67819712D01*
X112402110Y-67829199D01*
X112379660Y-67851650D01*
X112315536Y-67955611D01*
X112313855Y-67958066D01*
X112288992Y-67978365D01*
X112265138Y-67999822D01*
X112261778Y-68000585D01*
X112259734Y-68002255D01*
X112249094Y-68003467D01*
X112211548Y-68012000D01*
X103313362Y-68012000D01*
X103246323Y-67992315D01*
X103225681Y-67975681D01*
X101788345Y-66538345D01*
X112225000Y-66538345D01*
X112225000Y-66637500D01*
X112950000Y-66637500D01*
X113450000Y-66637500D01*
X114174999Y-66637500D01*
X114174999Y-66538360D01*
X114174998Y-66538345D01*
X114164680Y-66437347D01*
X114110453Y-66273699D01*
X114110448Y-66273688D01*
X114019947Y-66126965D01*
X114019944Y-66126961D01*
X113898038Y-66005055D01*
X113898034Y-66005052D01*
X113812276Y-65952155D01*
X114637500Y-65952155D01*
X114637500Y-66100000D01*
X115437500Y-66100000D01*
X115437500Y-65500000D01*
X115089655Y-65500000D01*
X115030127Y-65506401D01*
X115030120Y-65506403D01*
X114895413Y-65556645D01*
X114895406Y-65556649D01*
X114780312Y-65642809D01*
X114780309Y-65642812D01*
X114694149Y-65757906D01*
X114694145Y-65757913D01*
X114643903Y-65892620D01*
X114643901Y-65892627D01*
X114637500Y-65952155D01*
X113812276Y-65952155D01*
X113751311Y-65914551D01*
X113751300Y-65914546D01*
X113587652Y-65860319D01*
X113486654Y-65850000D01*
X113450000Y-65850000D01*
X113450000Y-66637500D01*
X112950000Y-66637500D01*
X112950000Y-65850000D01*
X112913361Y-65850000D01*
X112913343Y-65850001D01*
X112812347Y-65860319D01*
X112648699Y-65914546D01*
X112648688Y-65914551D01*
X112501965Y-66005052D01*
X112501961Y-66005055D01*
X112380055Y-66126961D01*
X112380052Y-66126965D01*
X112289551Y-66273688D01*
X112289546Y-66273699D01*
X112235319Y-66437347D01*
X112225000Y-66538345D01*
X101788345Y-66538345D01*
X101310591Y-66060591D01*
X101306786Y-66053623D01*
X101300347Y-66048980D01*
X101290281Y-66023397D01*
X101277106Y-65999268D01*
X101277020Y-65989692D01*
X101274766Y-65983962D01*
X101276655Y-65948718D01*
X101300638Y-65828149D01*
X101333023Y-65766239D01*
X101334518Y-65764716D01*
X103849916Y-63249319D01*
X103911239Y-63215834D01*
X103937597Y-63213000D01*
X112411548Y-63213000D01*
X112478587Y-63232685D01*
G37*
%TD.AperFunction*%
%TD*%
%TA.AperFunction,Conductor*%
%TO.N,GND*%
G36*
X118500000Y-66600000D02*
G01*
X118498000Y-66600000D01*
X118498000Y-66599998D01*
X118498000Y-65450000D01*
X118492804Y-65377348D01*
X118451867Y-65237931D01*
X118373310Y-65115694D01*
X118263497Y-65020540D01*
X118263495Y-65020539D01*
X118263493Y-65020537D01*
X118131330Y-64960180D01*
X118131323Y-64960178D01*
X118008178Y-64942473D01*
X117987500Y-64939500D01*
X116637500Y-64939500D01*
X116637497Y-64939500D01*
X116564847Y-64944695D01*
X116425431Y-64985633D01*
X116425429Y-64985634D01*
X116400000Y-65001976D01*
X116400000Y-64497041D01*
X116493669Y-64539819D01*
X116493676Y-64539821D01*
X116637500Y-64560500D01*
X116637501Y-64560500D01*
X117987500Y-64560500D01*
X118060152Y-64555304D01*
X118199569Y-64514367D01*
X118321806Y-64435810D01*
X118416960Y-64325997D01*
X118446155Y-64262069D01*
X118477319Y-64193830D01*
X118477321Y-64193823D01*
X118498000Y-64050000D01*
X118498000Y-62900000D01*
X118492804Y-62827348D01*
X118451867Y-62687931D01*
X118451514Y-62687382D01*
X118373313Y-62565698D01*
X118373311Y-62565695D01*
X118373310Y-62565694D01*
X118263497Y-62470540D01*
X118263495Y-62470539D01*
X118263493Y-62470537D01*
X118131330Y-62410180D01*
X118131323Y-62410178D01*
X118003281Y-62391769D01*
X117987500Y-62389500D01*
X117337500Y-62389500D01*
X117337497Y-62389500D01*
X117264847Y-62394695D01*
X117125431Y-62435633D01*
X117125424Y-62435636D01*
X117003198Y-62514186D01*
X117003191Y-62514192D01*
X116903682Y-62629031D01*
X116844904Y-62666805D01*
X116775034Y-62666805D01*
X116716257Y-62629030D01*
X116704950Y-62613758D01*
X116698213Y-62603027D01*
X116681296Y-62557669D01*
X116609684Y-62462007D01*
X116606979Y-62457699D01*
X116598817Y-62428773D01*
X116588315Y-62400616D01*
X116587999Y-62391769D01*
X116587999Y-61438986D01*
X116604612Y-61376985D01*
X116659577Y-61281785D01*
X116700500Y-61129057D01*
X116700500Y-60970943D01*
X116700500Y-60965752D01*
X116720185Y-60898713D01*
X116772989Y-60852958D01*
X116842147Y-60843014D01*
X116905703Y-60872039D01*
X116928815Y-60898711D01*
X116951690Y-60934306D01*
X117061503Y-61029460D01*
X117061504Y-61029460D01*
X117061506Y-61029462D01*
X117193669Y-61089819D01*
X117193676Y-61089821D01*
X117337500Y-61110500D01*
X117337501Y-61110500D01*
X117987500Y-61110500D01*
X118060152Y-61105304D01*
X118199569Y-61064367D01*
X118321806Y-60985810D01*
X118416960Y-60875997D01*
X118418768Y-60872039D01*
X118477319Y-60743830D01*
X118477321Y-60743823D01*
X118479764Y-60726833D01*
X118498000Y-60600000D01*
X118498000Y-59450000D01*
X118492804Y-59377348D01*
X118451867Y-59237931D01*
X118373310Y-59115694D01*
X118263497Y-59020540D01*
X118263495Y-59020539D01*
X118263493Y-59020537D01*
X118131330Y-58960180D01*
X118131323Y-58960178D01*
X118008178Y-58942473D01*
X117987500Y-58939500D01*
X116637500Y-58939500D01*
X116637497Y-58939500D01*
X116564847Y-58944695D01*
X116425431Y-58985633D01*
X116425429Y-58985634D01*
X116400000Y-59001976D01*
X116400000Y-58650000D01*
X118500000Y-58650000D01*
X118500000Y-66600000D01*
G37*
%TD.AperFunction*%
%TD*%
%TA.AperFunction,Conductor*%
%TO.N,+5V*%
G36*
X89343039Y-89319685D02*
G01*
X89388794Y-89372489D01*
X89400000Y-89424000D01*
X89400000Y-95320500D01*
X89380315Y-95387539D01*
X89327511Y-95433294D01*
X89276000Y-95444500D01*
X85666488Y-95444500D01*
X85528572Y-95463678D01*
X85463479Y-95482138D01*
X85371537Y-95522583D01*
X85371513Y-95522593D01*
X85336102Y-95538171D01*
X85333056Y-95540049D01*
X85332979Y-95540105D01*
X85332976Y-95540100D01*
X85331633Y-95540928D01*
X85331612Y-95540938D01*
X85331126Y-95541238D01*
X85331028Y-95541301D01*
X85314874Y-95551265D01*
X85248762Y-95592042D01*
X85222672Y-95604208D01*
X85194193Y-95613645D01*
X85167884Y-95619287D01*
X85167301Y-95619347D01*
X85154606Y-95619999D01*
X84645393Y-95619999D01*
X84632732Y-95619350D01*
X84632133Y-95619289D01*
X84605804Y-95613645D01*
X84577329Y-95604209D01*
X84551238Y-95592042D01*
X84463985Y-95538224D01*
X84463977Y-95538220D01*
X84336521Y-95482138D01*
X84271422Y-95463677D01*
X84133511Y-95444500D01*
X84133507Y-95444500D01*
X80024000Y-95444500D01*
X80023991Y-95444500D01*
X80023990Y-95444501D01*
X79916549Y-95456052D01*
X79916537Y-95456054D01*
X79865027Y-95467260D01*
X79762502Y-95501383D01*
X79762496Y-95501386D01*
X79641462Y-95579171D01*
X79641451Y-95579179D01*
X79588659Y-95624923D01*
X79494433Y-95733664D01*
X79494431Y-95733666D01*
X79448410Y-95834433D01*
X79448407Y-95834442D01*
X79434662Y-95864541D01*
X79424250Y-95900000D01*
X79400000Y-95900000D01*
X79400000Y-96035746D01*
X79397968Y-96049876D01*
X79397968Y-96049878D01*
X79394500Y-96073998D01*
X79394500Y-96897974D01*
X79376039Y-96963070D01*
X79365189Y-96980659D01*
X79365185Y-96980668D01*
X79354153Y-97013960D01*
X79310001Y-97147203D01*
X79310001Y-97147204D01*
X79310000Y-97147204D01*
X79299500Y-97249983D01*
X79299500Y-98175001D01*
X79299501Y-98175019D01*
X79310000Y-98277796D01*
X79310001Y-98277799D01*
X79337408Y-98360506D01*
X79365186Y-98444334D01*
X79376038Y-98461927D01*
X79394500Y-98527025D01*
X79394500Y-98998640D01*
X79397396Y-99052661D01*
X79397399Y-99052702D01*
X79398095Y-99059173D01*
X79400000Y-99076887D01*
X79400000Y-99156669D01*
X79417809Y-99156371D01*
X79439957Y-99215752D01*
X79439960Y-99215762D01*
X79459164Y-99267248D01*
X79459166Y-99267252D01*
X79459168Y-99267257D01*
X79492653Y-99328580D01*
X79578877Y-99443761D01*
X79578881Y-99443765D01*
X79578886Y-99443771D01*
X80147363Y-100012247D01*
X80606239Y-100471123D01*
X80606255Y-100471137D01*
X80606262Y-100471144D01*
X80646480Y-100507271D01*
X80646492Y-100507281D01*
X80646500Y-100507288D01*
X80661778Y-100519600D01*
X80663292Y-100520820D01*
X80667142Y-100523922D01*
X80711026Y-100555567D01*
X80841903Y-100615338D01*
X80908942Y-100635023D01*
X80908946Y-100635024D01*
X81051362Y-100655500D01*
X81051365Y-100655500D01*
X91575990Y-100655500D01*
X91576000Y-100655500D01*
X91683456Y-100643947D01*
X91734967Y-100632741D01*
X91769197Y-100621347D01*
X91837497Y-100598616D01*
X91837501Y-100598613D01*
X91837504Y-100598613D01*
X91958543Y-100520825D01*
X92011347Y-100475070D01*
X92082639Y-100392796D01*
X92141418Y-100355022D01*
X92176351Y-100350000D01*
X96776000Y-100350000D01*
X96843039Y-100369685D01*
X96888794Y-100422489D01*
X96900000Y-100474000D01*
X96900000Y-103100000D01*
X101400000Y-103100000D01*
X105163681Y-99336319D01*
X105225004Y-99302834D01*
X105251362Y-99300000D01*
X118048638Y-99300000D01*
X118078078Y-99308644D01*
X118108065Y-99315168D01*
X118113080Y-99318922D01*
X118115677Y-99319685D01*
X118136319Y-99336319D01*
X118163681Y-99363681D01*
X118197166Y-99425004D01*
X118200000Y-99451362D01*
X118200000Y-105776000D01*
X118180315Y-105843039D01*
X118127511Y-105888794D01*
X118076000Y-105900000D01*
X40924000Y-105900000D01*
X40856961Y-105880315D01*
X40811206Y-105827511D01*
X40800000Y-105776000D01*
X40800000Y-99224000D01*
X40819685Y-99156961D01*
X40872489Y-99111206D01*
X40924000Y-99100000D01*
X66431484Y-99100000D01*
X66470488Y-99106294D01*
X66572203Y-99139999D01*
X66674991Y-99150500D01*
X67600008Y-99150499D01*
X67600016Y-99150498D01*
X67600019Y-99150498D01*
X67656302Y-99144748D01*
X67702797Y-99139999D01*
X67804512Y-99106294D01*
X67843516Y-99100000D01*
X69556484Y-99100000D01*
X69595488Y-99106294D01*
X69697203Y-99139999D01*
X69799991Y-99150500D01*
X70725008Y-99150499D01*
X70725016Y-99150498D01*
X70725019Y-99150498D01*
X70781302Y-99144748D01*
X70827797Y-99139999D01*
X70929512Y-99106294D01*
X70968516Y-99100000D01*
X71476000Y-99100000D01*
X71543039Y-99119685D01*
X71588794Y-99172489D01*
X71600000Y-99224000D01*
X71600000Y-99300000D01*
X81563681Y-89336319D01*
X81625004Y-89302834D01*
X81651362Y-89300000D01*
X89276000Y-89300000D01*
X89343039Y-89319685D01*
G37*
%TD.AperFunction*%
%TD*%
M02*
