%TF.GenerationSoftware,KiCad,Pcbnew,9.0.3*%
%TF.CreationDate,2025-08-19T04:28:39+03:00*%
%TF.ProjectId,esp,6573702e-6b69-4636-9164-5f7063625858,rev?*%
%TF.SameCoordinates,Original*%
%TF.FileFunction,Paste,Top*%
%TF.FilePolarity,Positive*%
%FSLAX46Y46*%
G04 Gerber Fmt 4.6, Leading zero omitted, Abs format (unit mm)*
G04 Created by KiCad (PCBNEW 9.0.3) date 2025-08-19 04:28:39*
%MOMM*%
%LPD*%
G01*
G04 APERTURE LIST*
G04 Aperture macros list*
%AMRoundRect*
0 Rectangle with rounded corners*
0 $1 Rounding radius*
0 $2 $3 $4 $5 $6 $7 $8 $9 X,Y pos of 4 corners*
0 Add a 4 corners polygon primitive as box body*
4,1,4,$2,$3,$4,$5,$6,$7,$8,$9,$2,$3,0*
0 Add four circle primitives for the rounded corners*
1,1,$1+$1,$2,$3*
1,1,$1+$1,$4,$5*
1,1,$1+$1,$6,$7*
1,1,$1+$1,$8,$9*
0 Add four rect primitives between the rounded corners*
20,1,$1+$1,$2,$3,$4,$5,0*
20,1,$1+$1,$4,$5,$6,$7,0*
20,1,$1+$1,$6,$7,$8,$9,0*
20,1,$1+$1,$8,$9,$2,$3,0*%
G04 Aperture macros list end*
%ADD10RoundRect,0.125000X-0.125000X-0.125000X0.125000X-0.125000X0.125000X0.125000X-0.125000X0.125000X0*%
%ADD11RoundRect,0.250000X-0.650000X0.412500X-0.650000X-0.412500X0.650000X-0.412500X0.650000X0.412500X0*%
%ADD12RoundRect,0.237500X0.250000X0.237500X-0.250000X0.237500X-0.250000X-0.237500X0.250000X-0.237500X0*%
%ADD13RoundRect,0.237500X-0.237500X0.300000X-0.237500X-0.300000X0.237500X-0.300000X0.237500X0.300000X0*%
%ADD14RoundRect,0.150000X-0.512500X-0.150000X0.512500X-0.150000X0.512500X0.150000X-0.512500X0.150000X0*%
%ADD15R,0.249999X0.549999*%
%ADD16R,1.000000X0.249999*%
%ADD17R,1.300000X0.249999*%
%ADD18R,0.549999X0.249999*%
%ADD19R,0.600000X1.550000*%
%ADD20R,1.200000X1.800000*%
%ADD21RoundRect,0.375000X0.375000X-0.625000X0.375000X0.625000X-0.375000X0.625000X-0.375000X-0.625000X0*%
%ADD22RoundRect,0.500000X1.400000X-0.500000X1.400000X0.500000X-1.400000X0.500000X-1.400000X-0.500000X0*%
%ADD23RoundRect,0.237500X0.237500X-0.250000X0.237500X0.250000X-0.237500X0.250000X-0.237500X-0.250000X0*%
%ADD24RoundRect,0.150000X0.150000X-0.800000X0.150000X0.800000X-0.150000X0.800000X-0.150000X-0.800000X0*%
%ADD25RoundRect,0.100000X0.575000X-0.100000X0.575000X0.100000X-0.575000X0.100000X-0.575000X-0.100000X0*%
%ADD26O,1.600000X0.900000*%
%ADD27RoundRect,0.250000X0.450000X-0.550000X0.450000X0.550000X-0.450000X0.550000X-0.450000X-0.550000X0*%
%ADD28RoundRect,0.250000X0.700000X-0.700000X0.700000X0.700000X-0.700000X0.700000X-0.700000X-0.700000X0*%
%ADD29RoundRect,0.237500X-0.300000X-0.237500X0.300000X-0.237500X0.300000X0.237500X-0.300000X0.237500X0*%
%ADD30RoundRect,0.237500X-0.237500X0.250000X-0.237500X-0.250000X0.237500X-0.250000X0.237500X0.250000X0*%
%ADD31R,1.100000X0.700000*%
%ADD32R,1.100000X1.400000*%
%ADD33RoundRect,0.237500X0.237500X-0.300000X0.237500X0.300000X-0.237500X0.300000X-0.237500X-0.300000X0*%
%ADD34RoundRect,0.218750X0.218750X0.256250X-0.218750X0.256250X-0.218750X-0.256250X0.218750X-0.256250X0*%
%ADD35RoundRect,0.225000X0.225000X0.225000X-0.225000X0.225000X-0.225000X-0.225000X0.225000X-0.225000X0*%
%ADD36RoundRect,0.062500X0.337500X0.062500X-0.337500X0.062500X-0.337500X-0.062500X0.337500X-0.062500X0*%
%ADD37RoundRect,0.062500X0.062500X0.337500X-0.062500X0.337500X-0.062500X-0.337500X0.062500X-0.337500X0*%
%ADD38RoundRect,0.250000X0.412500X0.650000X-0.412500X0.650000X-0.412500X-0.650000X0.412500X-0.650000X0*%
%ADD39R,0.900000X1.500000*%
%ADD40R,1.500000X0.900000*%
%ADD41R,2.413000X5.334000*%
%ADD42RoundRect,0.237500X0.300000X0.237500X-0.300000X0.237500X-0.300000X-0.237500X0.300000X-0.237500X0*%
%ADD43RoundRect,0.237500X-0.250000X-0.237500X0.250000X-0.237500X0.250000X0.237500X-0.250000X0.237500X0*%
G04 APERTURE END LIST*
D10*
%TO.C,D3*%
X74300000Y-92250000D03*
X76500000Y-92250000D03*
%TD*%
D11*
%TO.C,C6*%
X104500000Y-92037500D03*
X104500000Y-95162500D03*
%TD*%
D12*
%TO.C,R5*%
X83912500Y-83450000D03*
X82087500Y-83450000D03*
%TD*%
D13*
%TO.C,C10*%
X96000000Y-97037500D03*
X96000000Y-98762500D03*
%TD*%
D14*
%TO.C,U1*%
X109862500Y-77050000D03*
X109862500Y-78000000D03*
X109862500Y-78950000D03*
X112137500Y-78950000D03*
X112137500Y-78000000D03*
X112137500Y-77050000D03*
%TD*%
D15*
%TO.C,U6*%
X97699998Y-95124997D03*
X98199997Y-95124997D03*
X98699999Y-95124997D03*
D16*
X98649999Y-94450000D03*
D15*
X98699999Y-93274998D03*
X98199997Y-93274998D03*
X97699998Y-93274998D03*
D17*
X97900001Y-93950000D03*
D18*
X97525000Y-94450000D03*
%TD*%
D19*
%TO.C,J3*%
X83346000Y-43599999D03*
X82345999Y-43599999D03*
X81345999Y-43599999D03*
X80346001Y-43599999D03*
D20*
X84646000Y-39699999D03*
X79046001Y-39699999D03*
%TD*%
D11*
%TO.C,C17*%
X83000000Y-94587500D03*
X83000000Y-97712500D03*
%TD*%
%TO.C,C7*%
X102200000Y-92037500D03*
X102200000Y-95162500D03*
%TD*%
D12*
%TO.C,R11*%
X99812500Y-101900000D03*
X97987500Y-101900000D03*
%TD*%
D21*
%TO.C,U5*%
X66500000Y-94900000D03*
X68800000Y-94900000D03*
D22*
X68800000Y-88600000D03*
D21*
X71100000Y-94900000D03*
%TD*%
D23*
%TO.C,R1*%
X108100000Y-73812500D03*
X108100000Y-71987500D03*
%TD*%
%TO.C,R12*%
X99000000Y-98812500D03*
X99000000Y-96987500D03*
%TD*%
D24*
%TO.C,U3*%
X87395000Y-75600000D03*
X88665000Y-75600000D03*
X89935000Y-75600000D03*
X91205000Y-75600000D03*
X91205000Y-68600000D03*
X89935000Y-68600000D03*
X88665000Y-68600000D03*
X87395000Y-68600000D03*
%TD*%
D25*
%TO.C,J2*%
X115325000Y-79000000D03*
X115325000Y-78350000D03*
X115325000Y-77700000D03*
X115325000Y-77050000D03*
X115325000Y-76400000D03*
D26*
X118000000Y-81000000D03*
D27*
X115550000Y-80900000D03*
D28*
X118000000Y-78900000D03*
X118000000Y-76500000D03*
D27*
X115550000Y-74500000D03*
D26*
X118000000Y-74400000D03*
%TD*%
D11*
%TO.C,C12*%
X63700000Y-92087500D03*
X63700000Y-95212500D03*
%TD*%
D29*
%TO.C,C1*%
X109737500Y-75400000D03*
X111462500Y-75400000D03*
%TD*%
%TO.C,C20*%
X83237500Y-75650000D03*
X84962500Y-75650000D03*
%TD*%
D13*
%TO.C,C19*%
X84900000Y-95087500D03*
X84900000Y-96812500D03*
%TD*%
D30*
%TO.C,R9*%
X99700000Y-75987500D03*
X99700000Y-77812500D03*
%TD*%
D13*
%TO.C,C9*%
X97500000Y-97037500D03*
X97500000Y-98762500D03*
%TD*%
D29*
%TO.C,C2*%
X109737500Y-73900000D03*
X111462500Y-73900000D03*
%TD*%
D31*
%TO.C,S1*%
X115687500Y-66350000D03*
X115687500Y-69150000D03*
D32*
X115537500Y-67750000D03*
%TD*%
D33*
%TO.C,C3*%
X113200000Y-68612500D03*
X113200000Y-66887500D03*
%TD*%
D23*
%TO.C,R7*%
X95070000Y-77812500D03*
X95070000Y-75987500D03*
%TD*%
D34*
%TO.C,D1*%
X84287500Y-65350000D03*
X82712500Y-65350000D03*
%TD*%
D35*
%TO.C,U2*%
X105670000Y-79370000D03*
X105670000Y-78250000D03*
X105670000Y-77130000D03*
X104550000Y-79370000D03*
X104550000Y-78250000D03*
X104550000Y-77130000D03*
X103430000Y-79370000D03*
X103430000Y-78250000D03*
X103430000Y-77130000D03*
D36*
X107000000Y-79750000D03*
X107000000Y-79250000D03*
X107000000Y-78750000D03*
X107000000Y-78250000D03*
X107000000Y-77750000D03*
X107000000Y-77250000D03*
X107000000Y-76750000D03*
D37*
X106050000Y-75800000D03*
X105550000Y-75800000D03*
X105050000Y-75800000D03*
X104550000Y-75800000D03*
X104050000Y-75800000D03*
X103550000Y-75800000D03*
X103050000Y-75800000D03*
D36*
X102100000Y-76750000D03*
X102100000Y-77250000D03*
X102100000Y-77750000D03*
X102100000Y-78250000D03*
X102100000Y-78750000D03*
X102100000Y-79250000D03*
X102100000Y-79750000D03*
D37*
X103050000Y-80700000D03*
X103550000Y-80700000D03*
X104050000Y-80700000D03*
X104550000Y-80700000D03*
X105050000Y-80700000D03*
X105550000Y-80700000D03*
X106050000Y-80700000D03*
%TD*%
D23*
%TO.C,R8*%
X96670000Y-77812500D03*
X96670000Y-75987500D03*
%TD*%
D31*
%TO.C,S2*%
X115687500Y-60350000D03*
X115687500Y-63150000D03*
D32*
X115537500Y-61750000D03*
%TD*%
D38*
%TO.C,C11*%
X70262500Y-97750000D03*
X67137500Y-97750000D03*
%TD*%
D33*
%TO.C,C13*%
X97300000Y-91962500D03*
X97300000Y-90237500D03*
%TD*%
D39*
%TO.C,U4*%
X58450000Y-81350000D03*
X59720000Y-81350000D03*
X60990000Y-81350000D03*
X62260000Y-81350000D03*
X63530000Y-81350000D03*
X64800000Y-81350000D03*
X66070000Y-81350000D03*
X67340000Y-81350000D03*
X68610000Y-81350000D03*
X69880000Y-81350000D03*
X71150000Y-81350000D03*
X72420000Y-81350000D03*
X73690000Y-81350000D03*
X74960000Y-81350000D03*
D40*
X76210000Y-78310000D03*
X76210000Y-77040000D03*
X76210000Y-75770000D03*
X76210000Y-74500000D03*
X76210000Y-73230000D03*
X76210000Y-71960000D03*
X76210000Y-70690000D03*
X76210000Y-69420000D03*
X76210000Y-68150000D03*
X76210000Y-66880000D03*
D39*
X74960000Y-63850000D03*
X73690000Y-63850000D03*
X72420000Y-63850000D03*
X71150000Y-63850000D03*
X69880000Y-63850000D03*
X68610000Y-63850000D03*
X67340000Y-63850000D03*
X66070000Y-63850000D03*
X64800000Y-63850000D03*
X63530000Y-63850000D03*
X62260000Y-63850000D03*
X60990000Y-63850000D03*
X59720000Y-63850000D03*
X58450000Y-63850000D03*
%TD*%
D10*
%TO.C,D2*%
X74300000Y-94850000D03*
X76500000Y-94850000D03*
%TD*%
D41*
%TO.C,L2*%
X87180500Y-92350000D03*
X94419500Y-92350000D03*
%TD*%
D23*
%TO.C,R3*%
X105100000Y-73812500D03*
X105100000Y-71987500D03*
%TD*%
D30*
%TO.C,R10*%
X98200000Y-75987500D03*
X98200000Y-77812500D03*
%TD*%
D42*
%TO.C,C5*%
X60047500Y-83500000D03*
X58322500Y-83500000D03*
%TD*%
D38*
%TO.C,C4*%
X61447500Y-85700000D03*
X58322500Y-85700000D03*
%TD*%
D29*
%TO.C,C14*%
X98037500Y-100400000D03*
X99762500Y-100400000D03*
%TD*%
D30*
%TO.C,R2*%
X106600000Y-71987500D03*
X106600000Y-73812500D03*
%TD*%
D13*
%TO.C,C8*%
X100200000Y-92737500D03*
X100200000Y-94462500D03*
%TD*%
D30*
%TO.C,R4*%
X103600000Y-71987500D03*
X103600000Y-73812500D03*
%TD*%
D11*
%TO.C,C18*%
X80700000Y-94587500D03*
X80700000Y-97712500D03*
%TD*%
D43*
%TO.C,R6*%
X79187500Y-65350000D03*
X81012500Y-65350000D03*
%TD*%
D33*
%TO.C,C16*%
X113400000Y-62612500D03*
X113400000Y-60887500D03*
%TD*%
M02*
