%TF.GenerationSoftware,KiCad,Pcbnew,9.0.3*%
%TF.CreationDate,2025-08-19T04:26:06+03:00*%
%TF.ProjectId,wtf_clock,7774665f-636c-46f6-936b-2e6b69636164,rev?*%
%TF.SameCoordinates,Original*%
%TF.FileFunction,Soldermask,Bot*%
%TF.FilePolarity,Negative*%
%FSLAX46Y46*%
G04 Gerber Fmt 4.6, Leading zero omitted, Abs format (unit mm)*
G04 Created by KiCad (PCBNEW 9.0.3) date 2025-08-19 04:26:06*
%MOMM*%
%LPD*%
G01*
G04 APERTURE LIST*
G04 Aperture macros list*
%AMRoundRect*
0 Rectangle with rounded corners*
0 $1 Rounding radius*
0 $2 $3 $4 $5 $6 $7 $8 $9 X,Y pos of 4 corners*
0 Add a 4 corners polygon primitive as box body*
4,1,4,$2,$3,$4,$5,$6,$7,$8,$9,$2,$3,0*
0 Add four circle primitives for the rounded corners*
1,1,$1+$1,$2,$3*
1,1,$1+$1,$4,$5*
1,1,$1+$1,$6,$7*
1,1,$1+$1,$8,$9*
0 Add four rect primitives between the rounded corners*
20,1,$1+$1,$2,$3,$4,$5,0*
20,1,$1+$1,$4,$5,$6,$7,0*
20,1,$1+$1,$6,$7,$8,$9,0*
20,1,$1+$1,$8,$9,$2,$3,0*%
G04 Aperture macros list end*
%ADD10RoundRect,0.250000X-0.350000X-0.350000X0.350000X-0.350000X0.350000X0.350000X-0.350000X0.350000X0*%
%ADD11C,1.200000*%
%ADD12C,5.300000*%
%ADD13RoundRect,0.150000X-0.875000X-0.150000X0.875000X-0.150000X0.875000X0.150000X-0.875000X0.150000X0*%
%ADD14RoundRect,0.237500X0.250000X0.237500X-0.250000X0.237500X-0.250000X-0.237500X0.250000X-0.237500X0*%
%ADD15RoundRect,0.237500X-0.300000X-0.237500X0.300000X-0.237500X0.300000X0.237500X-0.300000X0.237500X0*%
%ADD16RoundRect,0.237500X0.300000X0.237500X-0.300000X0.237500X-0.300000X-0.237500X0.300000X-0.237500X0*%
%ADD17R,1.550000X0.600000*%
%ADD18R,1.800000X1.200000*%
G04 APERTURE END LIST*
D10*
%TO.C,HL12*%
X267350000Y-114010000D03*
D11*
X269890000Y-114010000D03*
X272430000Y-114010000D03*
X274970000Y-114010000D03*
X277510000Y-114010000D03*
X280050000Y-114010000D03*
X280050000Y-106390000D03*
X277510000Y-106390000D03*
X274970000Y-106390000D03*
X272430000Y-106390000D03*
X269890000Y-106390000D03*
X267350000Y-106390000D03*
%TD*%
D10*
%TO.C,HL89*%
X235150000Y-187160000D03*
D11*
X237690000Y-187160000D03*
X240230000Y-187160000D03*
X242770000Y-187160000D03*
X245310000Y-187160000D03*
X247850000Y-187160000D03*
X247850000Y-179540000D03*
X245310000Y-179540000D03*
X242770000Y-179540000D03*
X240230000Y-179540000D03*
X237690000Y-179540000D03*
X235150000Y-179540000D03*
%TD*%
D10*
%TO.C,HL5*%
X170750000Y-103560000D03*
D11*
X173290000Y-103560000D03*
X175830000Y-103560000D03*
X178370000Y-103560000D03*
X180910000Y-103560000D03*
X183450000Y-103560000D03*
X183450000Y-95940000D03*
X180910000Y-95940000D03*
X178370000Y-95940000D03*
X175830000Y-95940000D03*
X173290000Y-95940000D03*
X170750000Y-95940000D03*
%TD*%
D10*
%TO.C,HL62*%
X396150000Y-176710000D03*
D11*
X398690000Y-176710000D03*
X401230000Y-176710000D03*
X403770000Y-176710000D03*
X406310000Y-176710000D03*
X408850000Y-176710000D03*
X408850000Y-169090000D03*
X406310000Y-169090000D03*
X403770000Y-169090000D03*
X401230000Y-169090000D03*
X398690000Y-169090000D03*
X396150000Y-169090000D03*
%TD*%
D10*
%TO.C,HL14*%
X299550000Y-114010000D03*
D11*
X302090000Y-114010000D03*
X304630000Y-114010000D03*
X307170000Y-114010000D03*
X309710000Y-114010000D03*
X312250000Y-114010000D03*
X312250000Y-106390000D03*
X309710000Y-106390000D03*
X307170000Y-106390000D03*
X304630000Y-106390000D03*
X302090000Y-106390000D03*
X299550000Y-106390000D03*
%TD*%
D10*
%TO.C,HL49*%
X235150000Y-145360000D03*
D11*
X237690000Y-145360000D03*
X240230000Y-145360000D03*
X242770000Y-145360000D03*
X245310000Y-145360000D03*
X247850000Y-145360000D03*
X247850000Y-137740000D03*
X245310000Y-137740000D03*
X242770000Y-137740000D03*
X240230000Y-137740000D03*
X237690000Y-137740000D03*
X235150000Y-137740000D03*
%TD*%
D10*
%TO.C,HL93*%
X299550000Y-187160000D03*
D11*
X302090000Y-187160000D03*
X304630000Y-187160000D03*
X307170000Y-187160000D03*
X309710000Y-187160000D03*
X312250000Y-187160000D03*
X312250000Y-179540000D03*
X309710000Y-179540000D03*
X307170000Y-179540000D03*
X304630000Y-179540000D03*
X302090000Y-179540000D03*
X299550000Y-179540000D03*
%TD*%
D10*
%TO.C,HL26*%
X331750000Y-134910000D03*
D11*
X334290000Y-134910000D03*
X336830000Y-134910000D03*
X339370000Y-134910000D03*
X341910000Y-134910000D03*
X344450000Y-134910000D03*
X344450000Y-127290000D03*
X341910000Y-127290000D03*
X339370000Y-127290000D03*
X336830000Y-127290000D03*
X334290000Y-127290000D03*
X331750000Y-127290000D03*
%TD*%
D10*
%TO.C,HL90*%
X235150000Y-197610000D03*
D11*
X237690000Y-197610000D03*
X240230000Y-197610000D03*
X242770000Y-197610000D03*
X245310000Y-197610000D03*
X247850000Y-197610000D03*
X247850000Y-189990000D03*
X245310000Y-189990000D03*
X242770000Y-189990000D03*
X240230000Y-189990000D03*
X237690000Y-189990000D03*
X235150000Y-189990000D03*
%TD*%
D10*
%TO.C,HL97*%
X363950000Y-187160000D03*
D11*
X366490000Y-187160000D03*
X369030000Y-187160000D03*
X371570000Y-187160000D03*
X374110000Y-187160000D03*
X376650000Y-187160000D03*
X376650000Y-179540000D03*
X374110000Y-179540000D03*
X371570000Y-179540000D03*
X369030000Y-179540000D03*
X366490000Y-179540000D03*
X363950000Y-179540000D03*
%TD*%
D10*
%TO.C,HL81*%
X106350000Y-187160000D03*
D11*
X108890000Y-187160000D03*
X111430000Y-187160000D03*
X113970000Y-187160000D03*
X116510000Y-187160000D03*
X119050000Y-187160000D03*
X119050000Y-179540000D03*
X116510000Y-179540000D03*
X113970000Y-179540000D03*
X111430000Y-179540000D03*
X108890000Y-179540000D03*
X106350000Y-179540000D03*
%TD*%
D10*
%TO.C,HL82*%
X106350000Y-197610000D03*
D11*
X108890000Y-197610000D03*
X111430000Y-197610000D03*
X113970000Y-197610000D03*
X116510000Y-197610000D03*
X119050000Y-197610000D03*
X119050000Y-189990000D03*
X116510000Y-189990000D03*
X113970000Y-189990000D03*
X111430000Y-189990000D03*
X108890000Y-189990000D03*
X106350000Y-189990000D03*
%TD*%
D10*
%TO.C,HL6*%
X170750000Y-114010000D03*
D11*
X173290000Y-114010000D03*
X175830000Y-114010000D03*
X178370000Y-114010000D03*
X180910000Y-114010000D03*
X183450000Y-114010000D03*
X183450000Y-106390000D03*
X180910000Y-106390000D03*
X178370000Y-106390000D03*
X175830000Y-106390000D03*
X173290000Y-106390000D03*
X170750000Y-106390000D03*
%TD*%
D10*
%TO.C,HL73*%
X202950000Y-166260000D03*
D11*
X205490000Y-166260000D03*
X208030000Y-166260000D03*
X210570000Y-166260000D03*
X213110000Y-166260000D03*
X215650000Y-166260000D03*
X215650000Y-158640000D03*
X213110000Y-158640000D03*
X210570000Y-158640000D03*
X208030000Y-158640000D03*
X205490000Y-158640000D03*
X202950000Y-158640000D03*
%TD*%
D10*
%TO.C,HL48*%
X202950000Y-155810000D03*
D11*
X205490000Y-155810000D03*
X208030000Y-155810000D03*
X210570000Y-155810000D03*
X213110000Y-155810000D03*
X215650000Y-155810000D03*
X215650000Y-148190000D03*
X213110000Y-148190000D03*
X210570000Y-148190000D03*
X208030000Y-148190000D03*
X205490000Y-148190000D03*
X202950000Y-148190000D03*
%TD*%
D10*
%TO.C,HL96*%
X331750000Y-197610000D03*
D11*
X334290000Y-197610000D03*
X336830000Y-197610000D03*
X339370000Y-197610000D03*
X341910000Y-197610000D03*
X344450000Y-197610000D03*
X344450000Y-189990000D03*
X341910000Y-189990000D03*
X339370000Y-189990000D03*
X336830000Y-189990000D03*
X334290000Y-189990000D03*
X331750000Y-189990000D03*
%TD*%
D10*
%TO.C,HL65*%
X331750000Y-166260000D03*
D11*
X334290000Y-166260000D03*
X336830000Y-166260000D03*
X339370000Y-166260000D03*
X341910000Y-166260000D03*
X344450000Y-166260000D03*
X344450000Y-158640000D03*
X341910000Y-158640000D03*
X339370000Y-158640000D03*
X336830000Y-158640000D03*
X334290000Y-158640000D03*
X331750000Y-158640000D03*
%TD*%
D10*
%TO.C,HL76*%
X170750000Y-176710000D03*
D11*
X173290000Y-176710000D03*
X175830000Y-176710000D03*
X178370000Y-176710000D03*
X180910000Y-176710000D03*
X183450000Y-176710000D03*
X183450000Y-169090000D03*
X180910000Y-169090000D03*
X178370000Y-169090000D03*
X175830000Y-169090000D03*
X173290000Y-169090000D03*
X170750000Y-169090000D03*
%TD*%
D10*
%TO.C,HL10*%
X235150000Y-114010000D03*
D11*
X237690000Y-114010000D03*
X240230000Y-114010000D03*
X242770000Y-114010000D03*
X245310000Y-114010000D03*
X247850000Y-114010000D03*
X247850000Y-106390000D03*
X245310000Y-106390000D03*
X242770000Y-106390000D03*
X240230000Y-106390000D03*
X237690000Y-106390000D03*
X235150000Y-106390000D03*
%TD*%
D10*
%TO.C,HL35*%
X170750000Y-124460000D03*
D11*
X173290000Y-124460000D03*
X175830000Y-124460000D03*
X178370000Y-124460000D03*
X180910000Y-124460000D03*
X183450000Y-124460000D03*
X183450000Y-116840000D03*
X180910000Y-116840000D03*
X178370000Y-116840000D03*
X175830000Y-116840000D03*
X173290000Y-116840000D03*
X170750000Y-116840000D03*
%TD*%
D10*
%TO.C,HL75*%
X170750000Y-166260000D03*
D11*
X173290000Y-166260000D03*
X175830000Y-166260000D03*
X178370000Y-166260000D03*
X180910000Y-166260000D03*
X183450000Y-166260000D03*
X183450000Y-158640000D03*
X180910000Y-158640000D03*
X178370000Y-158640000D03*
X175830000Y-158640000D03*
X173290000Y-158640000D03*
X170750000Y-158640000D03*
%TD*%
D10*
%TO.C,HL39*%
X106350000Y-124460000D03*
D11*
X108890000Y-124460000D03*
X111430000Y-124460000D03*
X113970000Y-124460000D03*
X116510000Y-124460000D03*
X119050000Y-124460000D03*
X119050000Y-116840000D03*
X116510000Y-116840000D03*
X113970000Y-116840000D03*
X111430000Y-116840000D03*
X108890000Y-116840000D03*
X106350000Y-116840000D03*
%TD*%
D12*
%TO.C,M7*%
X100100000Y-98650000D03*
%TD*%
D10*
%TO.C,HL69*%
X267350000Y-166260000D03*
D11*
X269890000Y-166260000D03*
X272430000Y-166260000D03*
X274970000Y-166260000D03*
X277510000Y-166260000D03*
X280050000Y-166260000D03*
X280050000Y-158640000D03*
X277510000Y-158640000D03*
X274970000Y-158640000D03*
X272430000Y-158640000D03*
X269890000Y-158640000D03*
X267350000Y-158640000D03*
%TD*%
D10*
%TO.C,HL23*%
X363950000Y-124460000D03*
D11*
X366490000Y-124460000D03*
X369030000Y-124460000D03*
X371570000Y-124460000D03*
X374110000Y-124460000D03*
X376650000Y-124460000D03*
X376650000Y-116840000D03*
X374110000Y-116840000D03*
X371570000Y-116840000D03*
X369030000Y-116840000D03*
X366490000Y-116840000D03*
X363950000Y-116840000D03*
%TD*%
D10*
%TO.C,HL99*%
X396150000Y-187160000D03*
D11*
X398690000Y-187160000D03*
X401230000Y-187160000D03*
X403770000Y-187160000D03*
X406310000Y-187160000D03*
X408850000Y-187160000D03*
X408850000Y-179540000D03*
X406310000Y-179540000D03*
X403770000Y-179540000D03*
X401230000Y-179540000D03*
X398690000Y-179540000D03*
X396150000Y-179540000D03*
%TD*%
D10*
%TO.C,HL22*%
X396150000Y-134910000D03*
D11*
X398690000Y-134910000D03*
X401230000Y-134910000D03*
X403770000Y-134910000D03*
X406310000Y-134910000D03*
X408850000Y-134910000D03*
X408850000Y-127290000D03*
X406310000Y-127290000D03*
X403770000Y-127290000D03*
X401230000Y-127290000D03*
X398690000Y-127290000D03*
X396150000Y-127290000D03*
%TD*%
D12*
%TO.C,M8*%
X393100000Y-98650000D03*
%TD*%
D10*
%TO.C,HL52*%
X267350000Y-155810000D03*
D11*
X269890000Y-155810000D03*
X272430000Y-155810000D03*
X274970000Y-155810000D03*
X277510000Y-155810000D03*
X280050000Y-155810000D03*
X280050000Y-148190000D03*
X277510000Y-148190000D03*
X274970000Y-148190000D03*
X272430000Y-148190000D03*
X269890000Y-148190000D03*
X267350000Y-148190000D03*
%TD*%
D10*
%TO.C,HL71*%
X235150000Y-166260000D03*
D11*
X237690000Y-166260000D03*
X240230000Y-166260000D03*
X242770000Y-166260000D03*
X245310000Y-166260000D03*
X247850000Y-166260000D03*
X247850000Y-158640000D03*
X245310000Y-158640000D03*
X242770000Y-158640000D03*
X240230000Y-158640000D03*
X237690000Y-158640000D03*
X235150000Y-158640000D03*
%TD*%
D10*
%TO.C,HL33*%
X202950000Y-124460000D03*
D11*
X205490000Y-124460000D03*
X208030000Y-124460000D03*
X210570000Y-124460000D03*
X213110000Y-124460000D03*
X215650000Y-124460000D03*
X215650000Y-116840000D03*
X213110000Y-116840000D03*
X210570000Y-116840000D03*
X208030000Y-116840000D03*
X205490000Y-116840000D03*
X202950000Y-116840000D03*
%TD*%
D10*
%TO.C,HL80*%
X106350000Y-176710000D03*
D11*
X108890000Y-176710000D03*
X111430000Y-176710000D03*
X113970000Y-176710000D03*
X116510000Y-176710000D03*
X119050000Y-176710000D03*
X119050000Y-169090000D03*
X116510000Y-169090000D03*
X113970000Y-169090000D03*
X111430000Y-169090000D03*
X108890000Y-169090000D03*
X106350000Y-169090000D03*
%TD*%
D10*
%TO.C,HL16*%
X331750000Y-114010000D03*
D11*
X334290000Y-114010000D03*
X336830000Y-114010000D03*
X339370000Y-114010000D03*
X341910000Y-114010000D03*
X344450000Y-114010000D03*
X344450000Y-106390000D03*
X341910000Y-106390000D03*
X339370000Y-106390000D03*
X336830000Y-106390000D03*
X334290000Y-106390000D03*
X331750000Y-106390000D03*
%TD*%
D10*
%TO.C,HL88*%
X202950000Y-197610000D03*
D11*
X205490000Y-197610000D03*
X208030000Y-197610000D03*
X210570000Y-197610000D03*
X213110000Y-197610000D03*
X215650000Y-197610000D03*
X215650000Y-189990000D03*
X213110000Y-189990000D03*
X210570000Y-189990000D03*
X208030000Y-189990000D03*
X205490000Y-189990000D03*
X202950000Y-189990000D03*
%TD*%
D10*
%TO.C,HL43*%
X138550000Y-145360000D03*
D11*
X141090000Y-145360000D03*
X143630000Y-145360000D03*
X146170000Y-145360000D03*
X148710000Y-145360000D03*
X151250000Y-145360000D03*
X151250000Y-137740000D03*
X148710000Y-137740000D03*
X146170000Y-137740000D03*
X143630000Y-137740000D03*
X141090000Y-137740000D03*
X138550000Y-137740000D03*
%TD*%
D10*
%TO.C,HL28*%
X299550000Y-134910000D03*
D11*
X302090000Y-134910000D03*
X304630000Y-134910000D03*
X307170000Y-134910000D03*
X309710000Y-134910000D03*
X312250000Y-134910000D03*
X312250000Y-127290000D03*
X309710000Y-127290000D03*
X307170000Y-127290000D03*
X304630000Y-127290000D03*
X302090000Y-127290000D03*
X299550000Y-127290000D03*
%TD*%
D12*
%TO.C,M2*%
X167600000Y-120650000D03*
%TD*%
D10*
%TO.C,HL18*%
X363950000Y-114010000D03*
D11*
X366490000Y-114010000D03*
X369030000Y-114010000D03*
X371570000Y-114010000D03*
X374110000Y-114010000D03*
X376650000Y-114010000D03*
X376650000Y-106390000D03*
X374110000Y-106390000D03*
X371570000Y-106390000D03*
X369030000Y-106390000D03*
X366490000Y-106390000D03*
X363950000Y-106390000D03*
%TD*%
D10*
%TO.C,HL4*%
X138550000Y-114010000D03*
D11*
X141090000Y-114010000D03*
X143630000Y-114010000D03*
X146170000Y-114010000D03*
X148710000Y-114010000D03*
X151250000Y-114010000D03*
X151250000Y-106390000D03*
X148710000Y-106390000D03*
X146170000Y-106390000D03*
X143630000Y-106390000D03*
X141090000Y-106390000D03*
X138550000Y-106390000D03*
%TD*%
D10*
%TO.C,HL59*%
X396150000Y-145360000D03*
D11*
X398690000Y-145360000D03*
X401230000Y-145360000D03*
X403770000Y-145360000D03*
X406310000Y-145360000D03*
X408850000Y-145360000D03*
X408850000Y-137740000D03*
X406310000Y-137740000D03*
X403770000Y-137740000D03*
X401230000Y-137740000D03*
X398690000Y-137740000D03*
X396150000Y-137740000D03*
%TD*%
D10*
%TO.C,HL44*%
X138550000Y-155810000D03*
D11*
X141090000Y-155810000D03*
X143630000Y-155810000D03*
X146170000Y-155810000D03*
X148710000Y-155810000D03*
X151250000Y-155810000D03*
X151250000Y-148190000D03*
X148710000Y-148190000D03*
X146170000Y-148190000D03*
X143630000Y-148190000D03*
X141090000Y-148190000D03*
X138550000Y-148190000D03*
%TD*%
D10*
%TO.C,HL83*%
X138550000Y-187160000D03*
D11*
X141090000Y-187160000D03*
X143630000Y-187160000D03*
X146170000Y-187160000D03*
X148710000Y-187160000D03*
X151250000Y-187160000D03*
X151250000Y-179540000D03*
X148710000Y-179540000D03*
X146170000Y-179540000D03*
X143630000Y-179540000D03*
X141090000Y-179540000D03*
X138550000Y-179540000D03*
%TD*%
D10*
%TO.C,HL70*%
X267350000Y-176710000D03*
D11*
X269890000Y-176710000D03*
X272430000Y-176710000D03*
X274970000Y-176710000D03*
X277510000Y-176710000D03*
X280050000Y-176710000D03*
X280050000Y-169090000D03*
X277510000Y-169090000D03*
X274970000Y-169090000D03*
X272430000Y-169090000D03*
X269890000Y-169090000D03*
X267350000Y-169090000D03*
%TD*%
D10*
%TO.C,HL31*%
X235150000Y-124460000D03*
D11*
X237690000Y-124460000D03*
X240230000Y-124460000D03*
X242770000Y-124460000D03*
X245310000Y-124460000D03*
X247850000Y-124460000D03*
X247850000Y-116840000D03*
X245310000Y-116840000D03*
X242770000Y-116840000D03*
X240230000Y-116840000D03*
X237690000Y-116840000D03*
X235150000Y-116840000D03*
%TD*%
D10*
%TO.C,HL61*%
X396150000Y-166260000D03*
D11*
X398690000Y-166260000D03*
X401230000Y-166260000D03*
X403770000Y-166260000D03*
X406310000Y-166260000D03*
X408850000Y-166260000D03*
X408850000Y-158640000D03*
X406310000Y-158640000D03*
X403770000Y-158640000D03*
X401230000Y-158640000D03*
X398690000Y-158640000D03*
X396150000Y-158640000D03*
%TD*%
D10*
%TO.C,HL79*%
X106350000Y-166260000D03*
D11*
X108890000Y-166260000D03*
X111430000Y-166260000D03*
X113970000Y-166260000D03*
X116510000Y-166260000D03*
X119050000Y-166260000D03*
X119050000Y-158640000D03*
X116510000Y-158640000D03*
X113970000Y-158640000D03*
X111430000Y-158640000D03*
X108890000Y-158640000D03*
X106350000Y-158640000D03*
%TD*%
D10*
%TO.C,HL85*%
X170750000Y-187160000D03*
D11*
X173290000Y-187160000D03*
X175830000Y-187160000D03*
X178370000Y-187160000D03*
X180910000Y-187160000D03*
X183450000Y-187160000D03*
X183450000Y-179540000D03*
X180910000Y-179540000D03*
X178370000Y-179540000D03*
X175830000Y-179540000D03*
X173290000Y-179540000D03*
X170750000Y-179540000D03*
%TD*%
D10*
%TO.C,HL98*%
X363950000Y-197610000D03*
D11*
X366490000Y-197610000D03*
X369030000Y-197610000D03*
X371570000Y-197610000D03*
X374110000Y-197610000D03*
X376650000Y-197610000D03*
X376650000Y-189990000D03*
X374110000Y-189990000D03*
X371570000Y-189990000D03*
X369030000Y-189990000D03*
X366490000Y-189990000D03*
X363950000Y-189990000D03*
%TD*%
D10*
%TO.C,HL58*%
X363950000Y-155810000D03*
D11*
X366490000Y-155810000D03*
X369030000Y-155810000D03*
X371570000Y-155810000D03*
X374110000Y-155810000D03*
X376650000Y-155810000D03*
X376650000Y-148190000D03*
X374110000Y-148190000D03*
X371570000Y-148190000D03*
X369030000Y-148190000D03*
X366490000Y-148190000D03*
X363950000Y-148190000D03*
%TD*%
D10*
%TO.C,HL57*%
X363950000Y-145360000D03*
D11*
X366490000Y-145360000D03*
X369030000Y-145360000D03*
X371570000Y-145360000D03*
X374110000Y-145360000D03*
X376650000Y-145360000D03*
X376650000Y-137740000D03*
X374110000Y-137740000D03*
X371570000Y-137740000D03*
X369030000Y-137740000D03*
X366490000Y-137740000D03*
X363950000Y-137740000D03*
%TD*%
D12*
%TO.C,M3*%
X100100000Y-183400000D03*
%TD*%
%TO.C,M1*%
X167600000Y-183400000D03*
%TD*%
D10*
%TO.C,HL50*%
X235150000Y-155810000D03*
D11*
X237690000Y-155810000D03*
X240230000Y-155810000D03*
X242770000Y-155810000D03*
X245310000Y-155810000D03*
X247850000Y-155810000D03*
X247850000Y-148190000D03*
X245310000Y-148190000D03*
X242770000Y-148190000D03*
X240230000Y-148190000D03*
X237690000Y-148190000D03*
X235150000Y-148190000D03*
%TD*%
D10*
%TO.C,HL25*%
X331750000Y-124460000D03*
D11*
X334290000Y-124460000D03*
X336830000Y-124460000D03*
X339370000Y-124460000D03*
X341910000Y-124460000D03*
X344450000Y-124460000D03*
X344450000Y-116840000D03*
X341910000Y-116840000D03*
X339370000Y-116840000D03*
X336830000Y-116840000D03*
X334290000Y-116840000D03*
X331750000Y-116840000D03*
%TD*%
D10*
%TO.C,HL1*%
X106350000Y-103560000D03*
D11*
X108890000Y-103560000D03*
X111430000Y-103560000D03*
X113970000Y-103560000D03*
X116510000Y-103560000D03*
X119050000Y-103560000D03*
X119050000Y-95940000D03*
X116510000Y-95940000D03*
X113970000Y-95940000D03*
X111430000Y-95940000D03*
X108890000Y-95940000D03*
X106350000Y-95940000D03*
%TD*%
D12*
%TO.C,M6*%
X393100000Y-194400000D03*
%TD*%
D10*
%TO.C,HL8*%
X202950000Y-114010000D03*
D11*
X205490000Y-114010000D03*
X208030000Y-114010000D03*
X210570000Y-114010000D03*
X213110000Y-114010000D03*
X215650000Y-114010000D03*
X215650000Y-106390000D03*
X213110000Y-106390000D03*
X210570000Y-106390000D03*
X208030000Y-106390000D03*
X205490000Y-106390000D03*
X202950000Y-106390000D03*
%TD*%
D10*
%TO.C,HL46*%
X170750000Y-155810000D03*
D11*
X173290000Y-155810000D03*
X175830000Y-155810000D03*
X178370000Y-155810000D03*
X180910000Y-155810000D03*
X183450000Y-155810000D03*
X183450000Y-148190000D03*
X180910000Y-148190000D03*
X178370000Y-148190000D03*
X175830000Y-148190000D03*
X173290000Y-148190000D03*
X170750000Y-148190000D03*
%TD*%
D10*
%TO.C,HL42*%
X106350000Y-155810000D03*
D11*
X108890000Y-155810000D03*
X111430000Y-155810000D03*
X113970000Y-155810000D03*
X116510000Y-155810000D03*
X119050000Y-155810000D03*
X119050000Y-148190000D03*
X116510000Y-148190000D03*
X113970000Y-148190000D03*
X111430000Y-148190000D03*
X108890000Y-148190000D03*
X106350000Y-148190000D03*
%TD*%
D10*
%TO.C,HL38*%
X138550000Y-134910000D03*
D11*
X141090000Y-134910000D03*
X143630000Y-134910000D03*
X146170000Y-134910000D03*
X148710000Y-134910000D03*
X151250000Y-134910000D03*
X151250000Y-127290000D03*
X148710000Y-127290000D03*
X146170000Y-127290000D03*
X143630000Y-127290000D03*
X141090000Y-127290000D03*
X138550000Y-127290000D03*
%TD*%
D10*
%TO.C,HL13*%
X299550000Y-103560000D03*
D11*
X302090000Y-103560000D03*
X304630000Y-103560000D03*
X307170000Y-103560000D03*
X309710000Y-103560000D03*
X312250000Y-103560000D03*
X312250000Y-95940000D03*
X309710000Y-95940000D03*
X307170000Y-95940000D03*
X304630000Y-95940000D03*
X302090000Y-95940000D03*
X299550000Y-95940000D03*
%TD*%
D10*
%TO.C,HL74*%
X202950000Y-176710000D03*
D11*
X205490000Y-176710000D03*
X208030000Y-176710000D03*
X210570000Y-176710000D03*
X213110000Y-176710000D03*
X215650000Y-176710000D03*
X215650000Y-169090000D03*
X213110000Y-169090000D03*
X210570000Y-169090000D03*
X208030000Y-169090000D03*
X205490000Y-169090000D03*
X202950000Y-169090000D03*
%TD*%
D10*
%TO.C,HL94*%
X299550000Y-197610000D03*
D11*
X302090000Y-197610000D03*
X304630000Y-197610000D03*
X307170000Y-197610000D03*
X309710000Y-197610000D03*
X312250000Y-197610000D03*
X312250000Y-189990000D03*
X309710000Y-189990000D03*
X307170000Y-189990000D03*
X304630000Y-189990000D03*
X302090000Y-189990000D03*
X299550000Y-189990000D03*
%TD*%
D10*
%TO.C,HL27*%
X299550000Y-124460000D03*
D11*
X302090000Y-124460000D03*
X304630000Y-124460000D03*
X307170000Y-124460000D03*
X309710000Y-124460000D03*
X312250000Y-124460000D03*
X312250000Y-116840000D03*
X309710000Y-116840000D03*
X307170000Y-116840000D03*
X304630000Y-116840000D03*
X302090000Y-116840000D03*
X299550000Y-116840000D03*
%TD*%
D10*
%TO.C,HL40*%
X106350000Y-134910000D03*
D11*
X108890000Y-134910000D03*
X111430000Y-134910000D03*
X113970000Y-134910000D03*
X116510000Y-134910000D03*
X119050000Y-134910000D03*
X119050000Y-127290000D03*
X116510000Y-127290000D03*
X113970000Y-127290000D03*
X111430000Y-127290000D03*
X108890000Y-127290000D03*
X106350000Y-127290000D03*
%TD*%
D10*
%TO.C,HL91*%
X267350000Y-187160000D03*
D11*
X269890000Y-187160000D03*
X272430000Y-187160000D03*
X274970000Y-187160000D03*
X277510000Y-187160000D03*
X280050000Y-187160000D03*
X280050000Y-179540000D03*
X277510000Y-179540000D03*
X274970000Y-179540000D03*
X272430000Y-179540000D03*
X269890000Y-179540000D03*
X267350000Y-179540000D03*
%TD*%
D10*
%TO.C,HL86*%
X170750000Y-197610000D03*
D11*
X173290000Y-197610000D03*
X175830000Y-197610000D03*
X178370000Y-197610000D03*
X180910000Y-197610000D03*
X183450000Y-197610000D03*
X183450000Y-189990000D03*
X180910000Y-189990000D03*
X178370000Y-189990000D03*
X175830000Y-189990000D03*
X173290000Y-189990000D03*
X170750000Y-189990000D03*
%TD*%
D10*
%TO.C,HL68*%
X299550000Y-176710000D03*
D11*
X302090000Y-176710000D03*
X304630000Y-176710000D03*
X307170000Y-176710000D03*
X309710000Y-176710000D03*
X312250000Y-176710000D03*
X312250000Y-169090000D03*
X309710000Y-169090000D03*
X307170000Y-169090000D03*
X304630000Y-169090000D03*
X302090000Y-169090000D03*
X299550000Y-169090000D03*
%TD*%
D10*
%TO.C,HL63*%
X363950000Y-166260000D03*
D11*
X366490000Y-166260000D03*
X369030000Y-166260000D03*
X371570000Y-166260000D03*
X374110000Y-166260000D03*
X376650000Y-166260000D03*
X376650000Y-158640000D03*
X374110000Y-158640000D03*
X371570000Y-158640000D03*
X369030000Y-158640000D03*
X366490000Y-158640000D03*
X363950000Y-158640000D03*
%TD*%
D10*
%TO.C,HL72*%
X235150000Y-176710000D03*
D11*
X237690000Y-176710000D03*
X240230000Y-176710000D03*
X242770000Y-176710000D03*
X245310000Y-176710000D03*
X247850000Y-176710000D03*
X247850000Y-169090000D03*
X245310000Y-169090000D03*
X242770000Y-169090000D03*
X240230000Y-169090000D03*
X237690000Y-169090000D03*
X235150000Y-169090000D03*
%TD*%
D10*
%TO.C,HL56*%
X331750000Y-155810000D03*
D11*
X334290000Y-155810000D03*
X336830000Y-155810000D03*
X339370000Y-155810000D03*
X341910000Y-155810000D03*
X344450000Y-155810000D03*
X344450000Y-148190000D03*
X341910000Y-148190000D03*
X339370000Y-148190000D03*
X336830000Y-148190000D03*
X334290000Y-148190000D03*
X331750000Y-148190000D03*
%TD*%
D10*
%TO.C,HL19*%
X396150000Y-103560000D03*
D11*
X398690000Y-103560000D03*
X401230000Y-103560000D03*
X403770000Y-103560000D03*
X406310000Y-103560000D03*
X408850000Y-103560000D03*
X408850000Y-95940000D03*
X406310000Y-95940000D03*
X403770000Y-95940000D03*
X401230000Y-95940000D03*
X398690000Y-95940000D03*
X396150000Y-95940000D03*
%TD*%
D10*
%TO.C,HL11*%
X267350000Y-103560000D03*
D11*
X269890000Y-103560000D03*
X272430000Y-103560000D03*
X274970000Y-103560000D03*
X277510000Y-103560000D03*
X280050000Y-103560000D03*
X280050000Y-95940000D03*
X277510000Y-95940000D03*
X274970000Y-95940000D03*
X272430000Y-95940000D03*
X269890000Y-95940000D03*
X267350000Y-95940000D03*
%TD*%
D10*
%TO.C,HL15*%
X331750000Y-103560000D03*
D11*
X334290000Y-103560000D03*
X336830000Y-103560000D03*
X339370000Y-103560000D03*
X341910000Y-103560000D03*
X344450000Y-103560000D03*
X344450000Y-95940000D03*
X341910000Y-95940000D03*
X339370000Y-95940000D03*
X336830000Y-95940000D03*
X334290000Y-95940000D03*
X331750000Y-95940000D03*
%TD*%
D10*
%TO.C,HL2*%
X106350000Y-114010000D03*
D11*
X108890000Y-114010000D03*
X111430000Y-114010000D03*
X113970000Y-114010000D03*
X116510000Y-114010000D03*
X119050000Y-114010000D03*
X119050000Y-106390000D03*
X116510000Y-106390000D03*
X113970000Y-106390000D03*
X111430000Y-106390000D03*
X108890000Y-106390000D03*
X106350000Y-106390000D03*
%TD*%
D10*
%TO.C,HL32*%
X235150000Y-134910000D03*
D11*
X237690000Y-134910000D03*
X240230000Y-134910000D03*
X242770000Y-134910000D03*
X245310000Y-134910000D03*
X247850000Y-134910000D03*
X247850000Y-127290000D03*
X245310000Y-127290000D03*
X242770000Y-127290000D03*
X240230000Y-127290000D03*
X237690000Y-127290000D03*
X235150000Y-127290000D03*
%TD*%
D10*
%TO.C,HL37*%
X138550000Y-124460000D03*
D11*
X141090000Y-124460000D03*
X143630000Y-124460000D03*
X146170000Y-124460000D03*
X148710000Y-124460000D03*
X151250000Y-124460000D03*
X151250000Y-116840000D03*
X148710000Y-116840000D03*
X146170000Y-116840000D03*
X143630000Y-116840000D03*
X141090000Y-116840000D03*
X138550000Y-116840000D03*
%TD*%
D10*
%TO.C,HL17*%
X363950000Y-103560000D03*
D11*
X366490000Y-103560000D03*
X369030000Y-103560000D03*
X371570000Y-103560000D03*
X374110000Y-103560000D03*
X376650000Y-103560000D03*
X376650000Y-95940000D03*
X374110000Y-95940000D03*
X371570000Y-95940000D03*
X369030000Y-95940000D03*
X366490000Y-95940000D03*
X363950000Y-95940000D03*
%TD*%
D10*
%TO.C,HL92*%
X267350000Y-197610000D03*
D11*
X269890000Y-197610000D03*
X272430000Y-197610000D03*
X274970000Y-197610000D03*
X277510000Y-197610000D03*
X280050000Y-197610000D03*
X280050000Y-189990000D03*
X277510000Y-189990000D03*
X274970000Y-189990000D03*
X272430000Y-189990000D03*
X269890000Y-189990000D03*
X267350000Y-189990000D03*
%TD*%
D10*
%TO.C,HL51*%
X267350000Y-145360000D03*
D11*
X269890000Y-145360000D03*
X272430000Y-145360000D03*
X274970000Y-145360000D03*
X277510000Y-145360000D03*
X280050000Y-145360000D03*
X280050000Y-137740000D03*
X277510000Y-137740000D03*
X274970000Y-137740000D03*
X272430000Y-137740000D03*
X269890000Y-137740000D03*
X267350000Y-137740000D03*
%TD*%
D10*
%TO.C,HL53*%
X299550000Y-145360000D03*
D11*
X302090000Y-145360000D03*
X304630000Y-145360000D03*
X307170000Y-145360000D03*
X309710000Y-145360000D03*
X312250000Y-145360000D03*
X312250000Y-137740000D03*
X309710000Y-137740000D03*
X307170000Y-137740000D03*
X304630000Y-137740000D03*
X302090000Y-137740000D03*
X299550000Y-137740000D03*
%TD*%
D12*
%TO.C,M5*%
X100100000Y-194400000D03*
%TD*%
D10*
%TO.C,HL55*%
X331750000Y-145360000D03*
D11*
X334290000Y-145360000D03*
X336830000Y-145360000D03*
X339370000Y-145360000D03*
X341910000Y-145360000D03*
X344450000Y-145360000D03*
X344450000Y-137740000D03*
X341910000Y-137740000D03*
X339370000Y-137740000D03*
X336830000Y-137740000D03*
X334290000Y-137740000D03*
X331750000Y-137740000D03*
%TD*%
D10*
%TO.C,HL77*%
X138550000Y-166260000D03*
D11*
X141090000Y-166260000D03*
X143630000Y-166260000D03*
X146170000Y-166260000D03*
X148710000Y-166260000D03*
X151250000Y-166260000D03*
X151250000Y-158640000D03*
X148710000Y-158640000D03*
X146170000Y-158640000D03*
X143630000Y-158640000D03*
X141090000Y-158640000D03*
X138550000Y-158640000D03*
%TD*%
D10*
%TO.C,HL67*%
X299550000Y-166260000D03*
D11*
X302090000Y-166260000D03*
X304630000Y-166260000D03*
X307170000Y-166260000D03*
X309710000Y-166260000D03*
X312250000Y-166260000D03*
X312250000Y-158640000D03*
X309710000Y-158640000D03*
X307170000Y-158640000D03*
X304630000Y-158640000D03*
X302090000Y-158640000D03*
X299550000Y-158640000D03*
%TD*%
D10*
%TO.C,HL60*%
X396150000Y-155810000D03*
D11*
X398690000Y-155810000D03*
X401230000Y-155810000D03*
X403770000Y-155810000D03*
X406310000Y-155810000D03*
X408850000Y-155810000D03*
X408850000Y-148190000D03*
X406310000Y-148190000D03*
X403770000Y-148190000D03*
X401230000Y-148190000D03*
X398690000Y-148190000D03*
X396150000Y-148190000D03*
%TD*%
D10*
%TO.C,HL9*%
X235150000Y-103560000D03*
D11*
X237690000Y-103560000D03*
X240230000Y-103560000D03*
X242770000Y-103560000D03*
X245310000Y-103560000D03*
X247850000Y-103560000D03*
X247850000Y-95940000D03*
X245310000Y-95940000D03*
X242770000Y-95940000D03*
X240230000Y-95940000D03*
X237690000Y-95940000D03*
X235150000Y-95940000D03*
%TD*%
D10*
%TO.C,HL47*%
X202950000Y-145360000D03*
D11*
X205490000Y-145360000D03*
X208030000Y-145360000D03*
X210570000Y-145360000D03*
X213110000Y-145360000D03*
X215650000Y-145360000D03*
X215650000Y-137740000D03*
X213110000Y-137740000D03*
X210570000Y-137740000D03*
X208030000Y-137740000D03*
X205490000Y-137740000D03*
X202950000Y-137740000D03*
%TD*%
D10*
%TO.C,HL24*%
X363950000Y-134910000D03*
D11*
X366490000Y-134910000D03*
X369030000Y-134910000D03*
X371570000Y-134910000D03*
X374110000Y-134910000D03*
X376650000Y-134910000D03*
X376650000Y-127290000D03*
X374110000Y-127290000D03*
X371570000Y-127290000D03*
X369030000Y-127290000D03*
X366490000Y-127290000D03*
X363950000Y-127290000D03*
%TD*%
D10*
%TO.C,HL36*%
X170750000Y-134910000D03*
D11*
X173290000Y-134910000D03*
X175830000Y-134910000D03*
X178370000Y-134910000D03*
X180910000Y-134910000D03*
X183450000Y-134910000D03*
X183450000Y-127290000D03*
X180910000Y-127290000D03*
X178370000Y-127290000D03*
X175830000Y-127290000D03*
X173290000Y-127290000D03*
X170750000Y-127290000D03*
%TD*%
D10*
%TO.C,HL87*%
X202950000Y-187160000D03*
D11*
X205490000Y-187160000D03*
X208030000Y-187160000D03*
X210570000Y-187160000D03*
X213110000Y-187160000D03*
X215650000Y-187160000D03*
X215650000Y-179540000D03*
X213110000Y-179540000D03*
X210570000Y-179540000D03*
X208030000Y-179540000D03*
X205490000Y-179540000D03*
X202950000Y-179540000D03*
%TD*%
D10*
%TO.C,HL29*%
X267350000Y-124460000D03*
D11*
X269890000Y-124460000D03*
X272430000Y-124460000D03*
X274970000Y-124460000D03*
X277510000Y-124460000D03*
X280050000Y-124460000D03*
X280050000Y-116840000D03*
X277510000Y-116840000D03*
X274970000Y-116840000D03*
X272430000Y-116840000D03*
X269890000Y-116840000D03*
X267350000Y-116840000D03*
%TD*%
D10*
%TO.C,HL30*%
X267350000Y-134910000D03*
D11*
X269890000Y-134910000D03*
X272430000Y-134910000D03*
X274970000Y-134910000D03*
X277510000Y-134910000D03*
X280050000Y-134910000D03*
X280050000Y-127290000D03*
X277510000Y-127290000D03*
X274970000Y-127290000D03*
X272430000Y-127290000D03*
X269890000Y-127290000D03*
X267350000Y-127290000D03*
%TD*%
D10*
%TO.C,HL41*%
X106350000Y-145360000D03*
D11*
X108890000Y-145360000D03*
X111430000Y-145360000D03*
X113970000Y-145360000D03*
X116510000Y-145360000D03*
X119050000Y-145360000D03*
X119050000Y-137740000D03*
X116510000Y-137740000D03*
X113970000Y-137740000D03*
X111430000Y-137740000D03*
X108890000Y-137740000D03*
X106350000Y-137740000D03*
%TD*%
D10*
%TO.C,HL100*%
X396150000Y-197610000D03*
D11*
X398690000Y-197610000D03*
X401230000Y-197610000D03*
X403770000Y-197610000D03*
X406310000Y-197610000D03*
X408850000Y-197610000D03*
X408850000Y-189990000D03*
X406310000Y-189990000D03*
X403770000Y-189990000D03*
X401230000Y-189990000D03*
X398690000Y-189990000D03*
X396150000Y-189990000D03*
%TD*%
D10*
%TO.C,HL20*%
X396150000Y-114010000D03*
D11*
X398690000Y-114010000D03*
X401230000Y-114010000D03*
X403770000Y-114010000D03*
X406310000Y-114010000D03*
X408850000Y-114010000D03*
X408850000Y-106390000D03*
X406310000Y-106390000D03*
X403770000Y-106390000D03*
X401230000Y-106390000D03*
X398690000Y-106390000D03*
X396150000Y-106390000D03*
%TD*%
D10*
%TO.C,HL34*%
X202950000Y-134910000D03*
D11*
X205490000Y-134910000D03*
X208030000Y-134910000D03*
X210570000Y-134910000D03*
X213110000Y-134910000D03*
X215650000Y-134910000D03*
X215650000Y-127290000D03*
X213110000Y-127290000D03*
X210570000Y-127290000D03*
X208030000Y-127290000D03*
X205490000Y-127290000D03*
X202950000Y-127290000D03*
%TD*%
D10*
%TO.C,HL66*%
X331750000Y-176710000D03*
D11*
X334290000Y-176710000D03*
X336830000Y-176710000D03*
X339370000Y-176710000D03*
X341910000Y-176710000D03*
X344450000Y-176710000D03*
X344450000Y-169090000D03*
X341910000Y-169090000D03*
X339370000Y-169090000D03*
X336830000Y-169090000D03*
X334290000Y-169090000D03*
X331750000Y-169090000D03*
%TD*%
D10*
%TO.C,HL3*%
X138550000Y-103560000D03*
D11*
X141090000Y-103560000D03*
X143630000Y-103560000D03*
X146170000Y-103560000D03*
X148710000Y-103560000D03*
X151250000Y-103560000D03*
X151250000Y-95940000D03*
X148710000Y-95940000D03*
X146170000Y-95940000D03*
X143630000Y-95940000D03*
X141090000Y-95940000D03*
X138550000Y-95940000D03*
%TD*%
D10*
%TO.C,HL64*%
X363950000Y-176710000D03*
D11*
X366490000Y-176710000D03*
X369030000Y-176710000D03*
X371570000Y-176710000D03*
X374110000Y-176710000D03*
X376650000Y-176710000D03*
X376650000Y-169090000D03*
X374110000Y-169090000D03*
X371570000Y-169090000D03*
X369030000Y-169090000D03*
X366490000Y-169090000D03*
X363950000Y-169090000D03*
%TD*%
D10*
%TO.C,HL45*%
X170750000Y-145360000D03*
D11*
X173290000Y-145360000D03*
X175830000Y-145360000D03*
X178370000Y-145360000D03*
X180910000Y-145360000D03*
X183450000Y-145360000D03*
X183450000Y-137740000D03*
X180910000Y-137740000D03*
X178370000Y-137740000D03*
X175830000Y-137740000D03*
X173290000Y-137740000D03*
X170750000Y-137740000D03*
%TD*%
D10*
%TO.C,HL21*%
X396150000Y-124460000D03*
D11*
X398690000Y-124460000D03*
X401230000Y-124460000D03*
X403770000Y-124460000D03*
X406310000Y-124460000D03*
X408850000Y-124460000D03*
X408850000Y-116840000D03*
X406310000Y-116840000D03*
X403770000Y-116840000D03*
X401230000Y-116840000D03*
X398690000Y-116840000D03*
X396150000Y-116840000D03*
%TD*%
D10*
%TO.C,HL95*%
X331750000Y-187160000D03*
D11*
X334290000Y-187160000D03*
X336830000Y-187160000D03*
X339370000Y-187160000D03*
X341910000Y-187160000D03*
X344450000Y-187160000D03*
X344450000Y-179540000D03*
X341910000Y-179540000D03*
X339370000Y-179540000D03*
X336830000Y-179540000D03*
X334290000Y-179540000D03*
X331750000Y-179540000D03*
%TD*%
D10*
%TO.C,HL78*%
X138550000Y-176710000D03*
D11*
X141090000Y-176710000D03*
X143630000Y-176710000D03*
X146170000Y-176710000D03*
X148710000Y-176710000D03*
X151250000Y-176710000D03*
X151250000Y-169090000D03*
X148710000Y-169090000D03*
X146170000Y-169090000D03*
X143630000Y-169090000D03*
X141090000Y-169090000D03*
X138550000Y-169090000D03*
%TD*%
D12*
%TO.C,M4*%
X100100000Y-120650000D03*
%TD*%
D10*
%TO.C,HL54*%
X299550000Y-155810000D03*
D11*
X302090000Y-155810000D03*
X304630000Y-155810000D03*
X307170000Y-155810000D03*
X309710000Y-155810000D03*
X312250000Y-155810000D03*
X312250000Y-148190000D03*
X309710000Y-148190000D03*
X307170000Y-148190000D03*
X304630000Y-148190000D03*
X302090000Y-148190000D03*
X299550000Y-148190000D03*
%TD*%
D10*
%TO.C,HL7*%
X202950000Y-103560000D03*
D11*
X205490000Y-103560000D03*
X208030000Y-103560000D03*
X210570000Y-103560000D03*
X213110000Y-103560000D03*
X215650000Y-103560000D03*
X215650000Y-95940000D03*
X213110000Y-95940000D03*
X210570000Y-95940000D03*
X208030000Y-95940000D03*
X205490000Y-95940000D03*
X202950000Y-95940000D03*
%TD*%
D10*
%TO.C,HL84*%
X138550000Y-197610000D03*
D11*
X141090000Y-197610000D03*
X143630000Y-197610000D03*
X146170000Y-197610000D03*
X148710000Y-197610000D03*
X151250000Y-197610000D03*
X151250000Y-189990000D03*
X148710000Y-189990000D03*
X146170000Y-189990000D03*
X143630000Y-189990000D03*
X141090000Y-189990000D03*
X138550000Y-189990000D03*
%TD*%
D13*
%TO.C,U23*%
X186250000Y-153985000D03*
X186250000Y-152715000D03*
X186250000Y-151445000D03*
X186250000Y-150175000D03*
X186250000Y-148905000D03*
X186250000Y-147635000D03*
X186250000Y-146365000D03*
X186250000Y-145095000D03*
X186250000Y-143825000D03*
X186250000Y-142555000D03*
X186250000Y-141285000D03*
X186250000Y-140015000D03*
X195550000Y-140015000D03*
X195550000Y-141285000D03*
X195550000Y-142555000D03*
X195550000Y-143825000D03*
X195550000Y-145095000D03*
X195550000Y-146365000D03*
X195550000Y-147635000D03*
X195550000Y-148905000D03*
X195550000Y-150175000D03*
X195550000Y-151445000D03*
X195550000Y-152715000D03*
X195550000Y-153985000D03*
%TD*%
D14*
%TO.C,R33*%
X355312500Y-176800000D03*
X353487500Y-176800000D03*
%TD*%
D15*
%TO.C,C50*%
X253137500Y-155900000D03*
X254862500Y-155900000D03*
%TD*%
D13*
%TO.C,U50*%
X411650000Y-195785000D03*
X411650000Y-194515000D03*
X411650000Y-193245000D03*
X411650000Y-191975000D03*
X411650000Y-190705000D03*
X411650000Y-189435000D03*
X411650000Y-188165000D03*
X411650000Y-186895000D03*
X411650000Y-185625000D03*
X411650000Y-184355000D03*
X411650000Y-183085000D03*
X411650000Y-181815000D03*
X420950000Y-181815000D03*
X420950000Y-183085000D03*
X420950000Y-184355000D03*
X420950000Y-185625000D03*
X420950000Y-186895000D03*
X420950000Y-188165000D03*
X420950000Y-189435000D03*
X420950000Y-190705000D03*
X420950000Y-191975000D03*
X420950000Y-193245000D03*
X420950000Y-194515000D03*
X420950000Y-195785000D03*
%TD*%
D15*
%TO.C,C34*%
X220937500Y-135000000D03*
X222662500Y-135000000D03*
%TD*%
D16*
%TO.C,C71*%
X258662500Y-158900000D03*
X256937500Y-158900000D03*
%TD*%
D13*
%TO.C,U32*%
X379450000Y-174885000D03*
X379450000Y-173615000D03*
X379450000Y-172345000D03*
X379450000Y-171075000D03*
X379450000Y-169805000D03*
X379450000Y-168535000D03*
X379450000Y-167265000D03*
X379450000Y-165995000D03*
X379450000Y-164725000D03*
X379450000Y-163455000D03*
X379450000Y-162185000D03*
X379450000Y-160915000D03*
X388750000Y-160915000D03*
X388750000Y-162185000D03*
X388750000Y-163455000D03*
X388750000Y-164725000D03*
X388750000Y-165995000D03*
X388750000Y-167265000D03*
X388750000Y-168535000D03*
X388750000Y-169805000D03*
X388750000Y-171075000D03*
X388750000Y-172345000D03*
X388750000Y-173615000D03*
X388750000Y-174885000D03*
%TD*%
D15*
%TO.C,C56*%
X349737500Y-155900000D03*
X351462500Y-155900000D03*
%TD*%
%TO.C,C82*%
X124337500Y-197700000D03*
X126062500Y-197700000D03*
%TD*%
D16*
%TO.C,C93*%
X323062500Y-179800000D03*
X321337500Y-179800000D03*
%TD*%
D14*
%TO.C,R5*%
X258712500Y-114100000D03*
X256887500Y-114100000D03*
%TD*%
%TO.C,R45*%
X258712500Y-197700000D03*
X256887500Y-197700000D03*
%TD*%
D15*
%TO.C,C54*%
X317537500Y-155900000D03*
X319262500Y-155900000D03*
%TD*%
D13*
%TO.C,U3*%
X186250000Y-112185000D03*
X186250000Y-110915000D03*
X186250000Y-109645000D03*
X186250000Y-108375000D03*
X186250000Y-107105000D03*
X186250000Y-105835000D03*
X186250000Y-104565000D03*
X186250000Y-103295000D03*
X186250000Y-102025000D03*
X186250000Y-100755000D03*
X186250000Y-99485000D03*
X186250000Y-98215000D03*
X195550000Y-98215000D03*
X195550000Y-99485000D03*
X195550000Y-100755000D03*
X195550000Y-102025000D03*
X195550000Y-103295000D03*
X195550000Y-104565000D03*
X195550000Y-105835000D03*
X195550000Y-107105000D03*
X195550000Y-108375000D03*
X195550000Y-109645000D03*
X195550000Y-110915000D03*
X195550000Y-112185000D03*
%TD*%
%TO.C,U2*%
X154050000Y-112185000D03*
X154050000Y-110915000D03*
X154050000Y-109645000D03*
X154050000Y-108375000D03*
X154050000Y-107105000D03*
X154050000Y-105835000D03*
X154050000Y-104565000D03*
X154050000Y-103295000D03*
X154050000Y-102025000D03*
X154050000Y-100755000D03*
X154050000Y-99485000D03*
X154050000Y-98215000D03*
X163350000Y-98215000D03*
X163350000Y-99485000D03*
X163350000Y-100755000D03*
X163350000Y-102025000D03*
X163350000Y-103295000D03*
X163350000Y-104565000D03*
X163350000Y-105835000D03*
X163350000Y-107105000D03*
X163350000Y-108375000D03*
X163350000Y-109645000D03*
X163350000Y-110915000D03*
X163350000Y-112185000D03*
%TD*%
D15*
%TO.C,C78*%
X156537500Y-176800000D03*
X158262500Y-176800000D03*
%TD*%
%TO.C,C90*%
X253137500Y-197700000D03*
X254862500Y-197700000D03*
%TD*%
%TO.C,C96*%
X353537500Y-179800000D03*
X355262500Y-179800000D03*
%TD*%
D16*
%TO.C,C73*%
X226462500Y-158900000D03*
X224737500Y-158900000D03*
%TD*%
D14*
%TO.C,R24*%
X226512500Y-155900000D03*
X224687500Y-155900000D03*
%TD*%
D15*
%TO.C,C20*%
X414137500Y-114100000D03*
X415862500Y-114100000D03*
%TD*%
D13*
%TO.C,U40*%
X121850000Y-174885000D03*
X121850000Y-173615000D03*
X121850000Y-172345000D03*
X121850000Y-171075000D03*
X121850000Y-169805000D03*
X121850000Y-168535000D03*
X121850000Y-167265000D03*
X121850000Y-165995000D03*
X121850000Y-164725000D03*
X121850000Y-163455000D03*
X121850000Y-162185000D03*
X121850000Y-160915000D03*
X131150000Y-160915000D03*
X131150000Y-162185000D03*
X131150000Y-163455000D03*
X131150000Y-164725000D03*
X131150000Y-165995000D03*
X131150000Y-167265000D03*
X131150000Y-168535000D03*
X131150000Y-169805000D03*
X131150000Y-171075000D03*
X131150000Y-172345000D03*
X131150000Y-173615000D03*
X131150000Y-174885000D03*
%TD*%
D16*
%TO.C,C99*%
X419662500Y-179800000D03*
X417937500Y-179800000D03*
%TD*%
%TO.C,C63*%
X387462500Y-158900000D03*
X385737500Y-158900000D03*
%TD*%
D14*
%TO.C,R12*%
X387512500Y-135000000D03*
X385687500Y-135000000D03*
%TD*%
D13*
%TO.C,U29*%
X379450000Y-153985000D03*
X379450000Y-152715000D03*
X379450000Y-151445000D03*
X379450000Y-150175000D03*
X379450000Y-148905000D03*
X379450000Y-147635000D03*
X379450000Y-146365000D03*
X379450000Y-145095000D03*
X379450000Y-143825000D03*
X379450000Y-142555000D03*
X379450000Y-141285000D03*
X379450000Y-140015000D03*
X388750000Y-140015000D03*
X388750000Y-141285000D03*
X388750000Y-142555000D03*
X388750000Y-143825000D03*
X388750000Y-145095000D03*
X388750000Y-146365000D03*
X388750000Y-147635000D03*
X388750000Y-148905000D03*
X388750000Y-150175000D03*
X388750000Y-151445000D03*
X388750000Y-152715000D03*
X388750000Y-153985000D03*
%TD*%
D14*
%TO.C,R49*%
X387512500Y-197700000D03*
X385687500Y-197700000D03*
%TD*%
D13*
%TO.C,U12*%
X379450000Y-133085000D03*
X379450000Y-131815000D03*
X379450000Y-130545000D03*
X379450000Y-129275000D03*
X379450000Y-128005000D03*
X379450000Y-126735000D03*
X379450000Y-125465000D03*
X379450000Y-124195000D03*
X379450000Y-122925000D03*
X379450000Y-121655000D03*
X379450000Y-120385000D03*
X379450000Y-119115000D03*
X388750000Y-119115000D03*
X388750000Y-120385000D03*
X388750000Y-121655000D03*
X388750000Y-122925000D03*
X388750000Y-124195000D03*
X388750000Y-125465000D03*
X388750000Y-126735000D03*
X388750000Y-128005000D03*
X388750000Y-129275000D03*
X388750000Y-130545000D03*
X388750000Y-131815000D03*
X388750000Y-133085000D03*
%TD*%
D15*
%TO.C,C100*%
X414137500Y-197700000D03*
X415862500Y-197700000D03*
%TD*%
D13*
%TO.C,U15*%
X282850000Y-133085000D03*
X282850000Y-131815000D03*
X282850000Y-130545000D03*
X282850000Y-129275000D03*
X282850000Y-128005000D03*
X282850000Y-126735000D03*
X282850000Y-125465000D03*
X282850000Y-124195000D03*
X282850000Y-122925000D03*
X282850000Y-121655000D03*
X282850000Y-120385000D03*
X282850000Y-119115000D03*
X292150000Y-119115000D03*
X292150000Y-120385000D03*
X292150000Y-121655000D03*
X292150000Y-122925000D03*
X292150000Y-124195000D03*
X292150000Y-125465000D03*
X292150000Y-126735000D03*
X292150000Y-128005000D03*
X292150000Y-129275000D03*
X292150000Y-130545000D03*
X292150000Y-131815000D03*
X292150000Y-133085000D03*
%TD*%
%TO.C,U5*%
X250650000Y-112185000D03*
X250650000Y-110915000D03*
X250650000Y-109645000D03*
X250650000Y-108375000D03*
X250650000Y-107105000D03*
X250650000Y-105835000D03*
X250650000Y-104565000D03*
X250650000Y-103295000D03*
X250650000Y-102025000D03*
X250650000Y-100755000D03*
X250650000Y-99485000D03*
X250650000Y-98215000D03*
X259950000Y-98215000D03*
X259950000Y-99485000D03*
X259950000Y-100755000D03*
X259950000Y-102025000D03*
X259950000Y-103295000D03*
X259950000Y-104565000D03*
X259950000Y-105835000D03*
X259950000Y-107105000D03*
X259950000Y-108375000D03*
X259950000Y-109645000D03*
X259950000Y-110915000D03*
X259950000Y-112185000D03*
%TD*%
%TO.C,U31*%
X411650000Y-174885000D03*
X411650000Y-173615000D03*
X411650000Y-172345000D03*
X411650000Y-171075000D03*
X411650000Y-169805000D03*
X411650000Y-168535000D03*
X411650000Y-167265000D03*
X411650000Y-165995000D03*
X411650000Y-164725000D03*
X411650000Y-163455000D03*
X411650000Y-162185000D03*
X411650000Y-160915000D03*
X420950000Y-160915000D03*
X420950000Y-162185000D03*
X420950000Y-163455000D03*
X420950000Y-164725000D03*
X420950000Y-165995000D03*
X420950000Y-167265000D03*
X420950000Y-168535000D03*
X420950000Y-169805000D03*
X420950000Y-171075000D03*
X420950000Y-172345000D03*
X420950000Y-173615000D03*
X420950000Y-174885000D03*
%TD*%
D15*
%TO.C,C12*%
X285337500Y-114100000D03*
X287062500Y-114100000D03*
%TD*%
D13*
%TO.C,U6*%
X282850000Y-112185000D03*
X282850000Y-110915000D03*
X282850000Y-109645000D03*
X282850000Y-108375000D03*
X282850000Y-107105000D03*
X282850000Y-105835000D03*
X282850000Y-104565000D03*
X282850000Y-103295000D03*
X282850000Y-102025000D03*
X282850000Y-100755000D03*
X282850000Y-99485000D03*
X282850000Y-98215000D03*
X292150000Y-98215000D03*
X292150000Y-99485000D03*
X292150000Y-100755000D03*
X292150000Y-102025000D03*
X292150000Y-103295000D03*
X292150000Y-104565000D03*
X292150000Y-105835000D03*
X292150000Y-107105000D03*
X292150000Y-108375000D03*
X292150000Y-109645000D03*
X292150000Y-110915000D03*
X292150000Y-112185000D03*
%TD*%
D14*
%TO.C,R31*%
X419712500Y-176800000D03*
X417887500Y-176800000D03*
%TD*%
D13*
%TO.C,U28*%
X347250000Y-153985000D03*
X347250000Y-152715000D03*
X347250000Y-151445000D03*
X347250000Y-150175000D03*
X347250000Y-148905000D03*
X347250000Y-147635000D03*
X347250000Y-146365000D03*
X347250000Y-145095000D03*
X347250000Y-143825000D03*
X347250000Y-142555000D03*
X347250000Y-141285000D03*
X347250000Y-140015000D03*
X356550000Y-140015000D03*
X356550000Y-141285000D03*
X356550000Y-142555000D03*
X356550000Y-143825000D03*
X356550000Y-145095000D03*
X356550000Y-146365000D03*
X356550000Y-147635000D03*
X356550000Y-148905000D03*
X356550000Y-150175000D03*
X356550000Y-151445000D03*
X356550000Y-152715000D03*
X356550000Y-153985000D03*
%TD*%
D14*
%TO.C,R44*%
X226512500Y-197700000D03*
X224687500Y-197700000D03*
%TD*%
D15*
%TO.C,C74*%
X220937500Y-176800000D03*
X222662500Y-176800000D03*
%TD*%
%TO.C,C14*%
X317537500Y-114100000D03*
X319262500Y-114100000D03*
%TD*%
D16*
%TO.C,C83*%
X162062500Y-179800000D03*
X160337500Y-179800000D03*
%TD*%
%TO.C,C91*%
X290862500Y-179800000D03*
X289137500Y-179800000D03*
%TD*%
D13*
%TO.C,U11*%
X411650000Y-133085000D03*
X411650000Y-131815000D03*
X411650000Y-130545000D03*
X411650000Y-129275000D03*
X411650000Y-128005000D03*
X411650000Y-126735000D03*
X411650000Y-125465000D03*
X411650000Y-124195000D03*
X411650000Y-122925000D03*
X411650000Y-121655000D03*
X411650000Y-120385000D03*
X411650000Y-119115000D03*
X420950000Y-119115000D03*
X420950000Y-120385000D03*
X420950000Y-121655000D03*
X420950000Y-122925000D03*
X420950000Y-124195000D03*
X420950000Y-125465000D03*
X420950000Y-126735000D03*
X420950000Y-128005000D03*
X420950000Y-129275000D03*
X420950000Y-130545000D03*
X420950000Y-131815000D03*
X420950000Y-133085000D03*
%TD*%
D15*
%TO.C,C24*%
X381937500Y-135000000D03*
X383662500Y-135000000D03*
%TD*%
D13*
%TO.C,U4*%
X218450000Y-112185000D03*
X218450000Y-110915000D03*
X218450000Y-109645000D03*
X218450000Y-108375000D03*
X218450000Y-107105000D03*
X218450000Y-105835000D03*
X218450000Y-104565000D03*
X218450000Y-103295000D03*
X218450000Y-102025000D03*
X218450000Y-100755000D03*
X218450000Y-99485000D03*
X218450000Y-98215000D03*
X227750000Y-98215000D03*
X227750000Y-99485000D03*
X227750000Y-100755000D03*
X227750000Y-102025000D03*
X227750000Y-103295000D03*
X227750000Y-104565000D03*
X227750000Y-105835000D03*
X227750000Y-107105000D03*
X227750000Y-108375000D03*
X227750000Y-109645000D03*
X227750000Y-110915000D03*
X227750000Y-112185000D03*
%TD*%
D14*
%TO.C,R19*%
X162112500Y-135000000D03*
X160287500Y-135000000D03*
%TD*%
D16*
%TO.C,C59*%
X419662500Y-138000000D03*
X417937500Y-138000000D03*
%TD*%
%TO.C,C7*%
X226462500Y-96200000D03*
X224737500Y-96200000D03*
%TD*%
%TO.C,C77*%
X162062500Y-158900000D03*
X160337500Y-158900000D03*
%TD*%
%TO.C,C87*%
X226462500Y-179800000D03*
X224737500Y-179800000D03*
%TD*%
D15*
%TO.C,C60*%
X414137500Y-155900000D03*
X415862500Y-155900000D03*
%TD*%
%TO.C,C38*%
X156537500Y-135000000D03*
X158262500Y-135000000D03*
%TD*%
D16*
%TO.C,C17*%
X387462500Y-96200000D03*
X385737500Y-96200000D03*
%TD*%
D13*
%TO.C,U13*%
X347250000Y-133085000D03*
X347250000Y-131815000D03*
X347250000Y-130545000D03*
X347250000Y-129275000D03*
X347250000Y-128005000D03*
X347250000Y-126735000D03*
X347250000Y-125465000D03*
X347250000Y-124195000D03*
X347250000Y-122925000D03*
X347250000Y-121655000D03*
X347250000Y-120385000D03*
X347250000Y-119115000D03*
X356550000Y-119115000D03*
X356550000Y-120385000D03*
X356550000Y-121655000D03*
X356550000Y-122925000D03*
X356550000Y-124195000D03*
X356550000Y-125465000D03*
X356550000Y-126735000D03*
X356550000Y-128005000D03*
X356550000Y-129275000D03*
X356550000Y-130545000D03*
X356550000Y-131815000D03*
X356550000Y-133085000D03*
%TD*%
D14*
%TO.C,R17*%
X226512500Y-135000000D03*
X224687500Y-135000000D03*
%TD*%
%TO.C,R11*%
X419712500Y-135000000D03*
X417887500Y-135000000D03*
%TD*%
D15*
%TO.C,C58*%
X381937500Y-155900000D03*
X383662500Y-155900000D03*
%TD*%
D16*
%TO.C,C43*%
X162062500Y-138000000D03*
X160337500Y-138000000D03*
%TD*%
D15*
%TO.C,C4*%
X156537500Y-114100000D03*
X158262500Y-114100000D03*
%TD*%
%TO.C,C10*%
X253137500Y-114100000D03*
X254862500Y-114100000D03*
%TD*%
D13*
%TO.C,U10*%
X411650000Y-112185000D03*
X411650000Y-110915000D03*
X411650000Y-109645000D03*
X411650000Y-108375000D03*
X411650000Y-107105000D03*
X411650000Y-105835000D03*
X411650000Y-104565000D03*
X411650000Y-103295000D03*
X411650000Y-102025000D03*
X411650000Y-100755000D03*
X411650000Y-99485000D03*
X411650000Y-98215000D03*
X420950000Y-98215000D03*
X420950000Y-99485000D03*
X420950000Y-100755000D03*
X420950000Y-102025000D03*
X420950000Y-103295000D03*
X420950000Y-104565000D03*
X420950000Y-105835000D03*
X420950000Y-107105000D03*
X420950000Y-108375000D03*
X420950000Y-109645000D03*
X420950000Y-110915000D03*
X420950000Y-112185000D03*
%TD*%
%TO.C,U16*%
X250650000Y-133085000D03*
X250650000Y-131815000D03*
X250650000Y-130545000D03*
X250650000Y-129275000D03*
X250650000Y-128005000D03*
X250650000Y-126735000D03*
X250650000Y-125465000D03*
X250650000Y-124195000D03*
X250650000Y-122925000D03*
X250650000Y-121655000D03*
X250650000Y-120385000D03*
X250650000Y-119115000D03*
X259950000Y-119115000D03*
X259950000Y-120385000D03*
X259950000Y-121655000D03*
X259950000Y-122925000D03*
X259950000Y-124195000D03*
X259950000Y-125465000D03*
X259950000Y-126735000D03*
X259950000Y-128005000D03*
X259950000Y-129275000D03*
X259950000Y-130545000D03*
X259950000Y-131815000D03*
X259950000Y-133085000D03*
%TD*%
%TO.C,U46*%
X282850000Y-195785000D03*
X282850000Y-194515000D03*
X282850000Y-193245000D03*
X282850000Y-191975000D03*
X282850000Y-190705000D03*
X282850000Y-189435000D03*
X282850000Y-188165000D03*
X282850000Y-186895000D03*
X282850000Y-185625000D03*
X282850000Y-184355000D03*
X282850000Y-183085000D03*
X282850000Y-181815000D03*
X292150000Y-181815000D03*
X292150000Y-183085000D03*
X292150000Y-184355000D03*
X292150000Y-185625000D03*
X292150000Y-186895000D03*
X292150000Y-188165000D03*
X292150000Y-189435000D03*
X292150000Y-190705000D03*
X292150000Y-191975000D03*
X292150000Y-193245000D03*
X292150000Y-194515000D03*
X292150000Y-195785000D03*
%TD*%
D15*
%TO.C,C26*%
X349737500Y-135000000D03*
X351462500Y-135000000D03*
%TD*%
%TO.C,C36*%
X188737500Y-135000000D03*
X190462500Y-135000000D03*
%TD*%
%TO.C,C40*%
X124337500Y-135000000D03*
X126062500Y-135000000D03*
%TD*%
%TO.C,C22*%
X414137500Y-135000000D03*
X415862500Y-135000000D03*
%TD*%
D16*
%TO.C,C53*%
X322862500Y-138000000D03*
X321137500Y-138000000D03*
%TD*%
%TO.C,C23*%
X387462500Y-117100000D03*
X385737500Y-117100000D03*
%TD*%
D14*
%TO.C,R28*%
X355312500Y-155900000D03*
X353487500Y-155900000D03*
%TD*%
D15*
%TO.C,C42*%
X124337500Y-155900000D03*
X126062500Y-155900000D03*
%TD*%
D14*
%TO.C,R34*%
X323112500Y-176800000D03*
X321287500Y-176800000D03*
%TD*%
D16*
%TO.C,C1*%
X129862500Y-96200000D03*
X128137500Y-96200000D03*
%TD*%
D13*
%TO.C,U47*%
X315050000Y-195785000D03*
X315050000Y-194515000D03*
X315050000Y-193245000D03*
X315050000Y-191975000D03*
X315050000Y-190705000D03*
X315050000Y-189435000D03*
X315050000Y-188165000D03*
X315050000Y-186895000D03*
X315050000Y-185625000D03*
X315050000Y-184355000D03*
X315050000Y-183085000D03*
X315050000Y-181815000D03*
X324350000Y-181815000D03*
X324350000Y-183085000D03*
X324350000Y-184355000D03*
X324350000Y-185625000D03*
X324350000Y-186895000D03*
X324350000Y-188165000D03*
X324350000Y-189435000D03*
X324350000Y-190705000D03*
X324350000Y-191975000D03*
X324350000Y-193245000D03*
X324350000Y-194515000D03*
X324350000Y-195785000D03*
%TD*%
D15*
%TO.C,C66*%
X349737500Y-176800000D03*
X351462500Y-176800000D03*
%TD*%
D16*
%TO.C,C25*%
X355262500Y-117100000D03*
X353537500Y-117100000D03*
%TD*%
D14*
%TO.C,R50*%
X419712500Y-197700000D03*
X417887500Y-197700000D03*
%TD*%
D15*
%TO.C,C6*%
X188737500Y-114100000D03*
X190462500Y-114100000D03*
%TD*%
D16*
%TO.C,C37*%
X162062500Y-117100000D03*
X160337500Y-117100000D03*
%TD*%
D14*
%TO.C,R27*%
X323112500Y-155900000D03*
X321287500Y-155900000D03*
%TD*%
D16*
%TO.C,C19*%
X419662500Y-96200000D03*
X417937500Y-96200000D03*
%TD*%
D13*
%TO.C,U17*%
X218450000Y-133085000D03*
X218450000Y-131815000D03*
X218450000Y-130545000D03*
X218450000Y-129275000D03*
X218450000Y-128005000D03*
X218450000Y-126735000D03*
X218450000Y-125465000D03*
X218450000Y-124195000D03*
X218450000Y-122925000D03*
X218450000Y-121655000D03*
X218450000Y-120385000D03*
X218450000Y-119115000D03*
X227750000Y-119115000D03*
X227750000Y-120385000D03*
X227750000Y-121655000D03*
X227750000Y-122925000D03*
X227750000Y-124195000D03*
X227750000Y-125465000D03*
X227750000Y-126735000D03*
X227750000Y-128005000D03*
X227750000Y-129275000D03*
X227750000Y-130545000D03*
X227750000Y-131815000D03*
X227750000Y-133085000D03*
%TD*%
%TO.C,U33*%
X347250000Y-174885000D03*
X347250000Y-173615000D03*
X347250000Y-172345000D03*
X347250000Y-171075000D03*
X347250000Y-169805000D03*
X347250000Y-168535000D03*
X347250000Y-167265000D03*
X347250000Y-165995000D03*
X347250000Y-164725000D03*
X347250000Y-163455000D03*
X347250000Y-162185000D03*
X347250000Y-160915000D03*
X356550000Y-160915000D03*
X356550000Y-162185000D03*
X356550000Y-163455000D03*
X356550000Y-164725000D03*
X356550000Y-165995000D03*
X356550000Y-167265000D03*
X356550000Y-168535000D03*
X356550000Y-169805000D03*
X356550000Y-171075000D03*
X356550000Y-172345000D03*
X356550000Y-173615000D03*
X356550000Y-174885000D03*
%TD*%
%TO.C,U43*%
X186250000Y-195785000D03*
X186250000Y-194515000D03*
X186250000Y-193245000D03*
X186250000Y-191975000D03*
X186250000Y-190705000D03*
X186250000Y-189435000D03*
X186250000Y-188165000D03*
X186250000Y-186895000D03*
X186250000Y-185625000D03*
X186250000Y-184355000D03*
X186250000Y-183085000D03*
X186250000Y-181815000D03*
X195550000Y-181815000D03*
X195550000Y-183085000D03*
X195550000Y-184355000D03*
X195550000Y-185625000D03*
X195550000Y-186895000D03*
X195550000Y-188165000D03*
X195550000Y-189435000D03*
X195550000Y-190705000D03*
X195550000Y-191975000D03*
X195550000Y-193245000D03*
X195550000Y-194515000D03*
X195550000Y-195785000D03*
%TD*%
%TO.C,U25*%
X250650000Y-153985000D03*
X250650000Y-152715000D03*
X250650000Y-151445000D03*
X250650000Y-150175000D03*
X250650000Y-148905000D03*
X250650000Y-147635000D03*
X250650000Y-146365000D03*
X250650000Y-145095000D03*
X250650000Y-143825000D03*
X250650000Y-142555000D03*
X250650000Y-141285000D03*
X250650000Y-140015000D03*
X259950000Y-140015000D03*
X259950000Y-141285000D03*
X259950000Y-142555000D03*
X259950000Y-143825000D03*
X259950000Y-145095000D03*
X259950000Y-146365000D03*
X259950000Y-147635000D03*
X259950000Y-148905000D03*
X259950000Y-150175000D03*
X259950000Y-151445000D03*
X259950000Y-152715000D03*
X259950000Y-153985000D03*
%TD*%
D16*
%TO.C,C57*%
X387462500Y-138000000D03*
X385737500Y-138000000D03*
%TD*%
%TO.C,C81*%
X129862500Y-179800000D03*
X128137500Y-179800000D03*
%TD*%
D15*
%TO.C,C68*%
X317537500Y-176800000D03*
X319262500Y-176800000D03*
%TD*%
D16*
%TO.C,C27*%
X323062500Y-117100000D03*
X321337500Y-117100000D03*
%TD*%
%TO.C,C5*%
X194262500Y-96200000D03*
X192537500Y-96200000D03*
%TD*%
%TO.C,C65*%
X355262500Y-158900000D03*
X353537500Y-158900000D03*
%TD*%
D13*
%TO.C,U9*%
X379450000Y-112185000D03*
X379450000Y-110915000D03*
X379450000Y-109645000D03*
X379450000Y-108375000D03*
X379450000Y-107105000D03*
X379450000Y-105835000D03*
X379450000Y-104565000D03*
X379450000Y-103295000D03*
X379450000Y-102025000D03*
X379450000Y-100755000D03*
X379450000Y-99485000D03*
X379450000Y-98215000D03*
X388750000Y-98215000D03*
X388750000Y-99485000D03*
X388750000Y-100755000D03*
X388750000Y-102025000D03*
X388750000Y-103295000D03*
X388750000Y-104565000D03*
X388750000Y-105835000D03*
X388750000Y-107105000D03*
X388750000Y-108375000D03*
X388750000Y-109645000D03*
X388750000Y-110915000D03*
X388750000Y-112185000D03*
%TD*%
%TO.C,U37*%
X218450000Y-174885000D03*
X218450000Y-173615000D03*
X218450000Y-172345000D03*
X218450000Y-171075000D03*
X218450000Y-169805000D03*
X218450000Y-168535000D03*
X218450000Y-167265000D03*
X218450000Y-165995000D03*
X218450000Y-164725000D03*
X218450000Y-163455000D03*
X218450000Y-162185000D03*
X218450000Y-160915000D03*
X227750000Y-160915000D03*
X227750000Y-162185000D03*
X227750000Y-163455000D03*
X227750000Y-164725000D03*
X227750000Y-165995000D03*
X227750000Y-167265000D03*
X227750000Y-168535000D03*
X227750000Y-169805000D03*
X227750000Y-171075000D03*
X227750000Y-172345000D03*
X227750000Y-173615000D03*
X227750000Y-174885000D03*
%TD*%
D14*
%TO.C,R36*%
X258712500Y-176800000D03*
X256887500Y-176800000D03*
%TD*%
D13*
%TO.C,U27*%
X315050000Y-153985000D03*
X315050000Y-152715000D03*
X315050000Y-151445000D03*
X315050000Y-150175000D03*
X315050000Y-148905000D03*
X315050000Y-147635000D03*
X315050000Y-146365000D03*
X315050000Y-145095000D03*
X315050000Y-143825000D03*
X315050000Y-142555000D03*
X315050000Y-141285000D03*
X315050000Y-140015000D03*
X324350000Y-140015000D03*
X324350000Y-141285000D03*
X324350000Y-142555000D03*
X324350000Y-143825000D03*
X324350000Y-145095000D03*
X324350000Y-146365000D03*
X324350000Y-147635000D03*
X324350000Y-148905000D03*
X324350000Y-150175000D03*
X324350000Y-151445000D03*
X324350000Y-152715000D03*
X324350000Y-153985000D03*
%TD*%
%TO.C,U22*%
X154050000Y-153985000D03*
X154050000Y-152715000D03*
X154050000Y-151445000D03*
X154050000Y-150175000D03*
X154050000Y-148905000D03*
X154050000Y-147635000D03*
X154050000Y-146365000D03*
X154050000Y-145095000D03*
X154050000Y-143825000D03*
X154050000Y-142555000D03*
X154050000Y-141285000D03*
X154050000Y-140015000D03*
X163350000Y-140015000D03*
X163350000Y-141285000D03*
X163350000Y-142555000D03*
X163350000Y-143825000D03*
X163350000Y-145095000D03*
X163350000Y-146365000D03*
X163350000Y-147635000D03*
X163350000Y-148905000D03*
X163350000Y-150175000D03*
X163350000Y-151445000D03*
X163350000Y-152715000D03*
X163350000Y-153985000D03*
%TD*%
D14*
%TO.C,R23*%
X194312500Y-155900000D03*
X192487500Y-155900000D03*
%TD*%
D13*
%TO.C,U49*%
X379450000Y-195785000D03*
X379450000Y-194515000D03*
X379450000Y-193245000D03*
X379450000Y-191975000D03*
X379450000Y-190705000D03*
X379450000Y-189435000D03*
X379450000Y-188165000D03*
X379450000Y-186895000D03*
X379450000Y-185625000D03*
X379450000Y-184355000D03*
X379450000Y-183085000D03*
X379450000Y-181815000D03*
X388750000Y-181815000D03*
X388750000Y-183085000D03*
X388750000Y-184355000D03*
X388750000Y-185625000D03*
X388750000Y-186895000D03*
X388750000Y-188165000D03*
X388750000Y-189435000D03*
X388750000Y-190705000D03*
X388750000Y-191975000D03*
X388750000Y-193245000D03*
X388750000Y-194515000D03*
X388750000Y-195785000D03*
%TD*%
D15*
%TO.C,C80*%
X124337500Y-176800000D03*
X126062500Y-176800000D03*
%TD*%
D14*
%TO.C,R15*%
X290912500Y-135000000D03*
X289087500Y-135000000D03*
%TD*%
D13*
%TO.C,U34*%
X315050000Y-174885000D03*
X315050000Y-173615000D03*
X315050000Y-172345000D03*
X315050000Y-171075000D03*
X315050000Y-169805000D03*
X315050000Y-168535000D03*
X315050000Y-167265000D03*
X315050000Y-165995000D03*
X315050000Y-164725000D03*
X315050000Y-163455000D03*
X315050000Y-162185000D03*
X315050000Y-160915000D03*
X324350000Y-160915000D03*
X324350000Y-162185000D03*
X324350000Y-163455000D03*
X324350000Y-164725000D03*
X324350000Y-165995000D03*
X324350000Y-167265000D03*
X324350000Y-168535000D03*
X324350000Y-169805000D03*
X324350000Y-171075000D03*
X324350000Y-172345000D03*
X324350000Y-173615000D03*
X324350000Y-174885000D03*
%TD*%
D16*
%TO.C,C3*%
X162062500Y-96200000D03*
X160337500Y-96200000D03*
%TD*%
D14*
%TO.C,R20*%
X129912500Y-135000000D03*
X128087500Y-135000000D03*
%TD*%
D15*
%TO.C,C98*%
X381937500Y-197700000D03*
X383662500Y-197700000D03*
%TD*%
D14*
%TO.C,R8*%
X355312500Y-114100000D03*
X353487500Y-114100000D03*
%TD*%
D16*
%TO.C,C15*%
X355262500Y-96200000D03*
X353537500Y-96200000D03*
%TD*%
%TO.C,C89*%
X258662500Y-179800000D03*
X256937500Y-179800000D03*
%TD*%
D13*
%TO.C,U45*%
X250650000Y-195785000D03*
X250650000Y-194515000D03*
X250650000Y-193245000D03*
X250650000Y-191975000D03*
X250650000Y-190705000D03*
X250650000Y-189435000D03*
X250650000Y-188165000D03*
X250650000Y-186895000D03*
X250650000Y-185625000D03*
X250650000Y-184355000D03*
X250650000Y-183085000D03*
X250650000Y-181815000D03*
X259950000Y-181815000D03*
X259950000Y-183085000D03*
X259950000Y-184355000D03*
X259950000Y-185625000D03*
X259950000Y-186895000D03*
X259950000Y-188165000D03*
X259950000Y-189435000D03*
X259950000Y-190705000D03*
X259950000Y-191975000D03*
X259950000Y-193245000D03*
X259950000Y-194515000D03*
X259950000Y-195785000D03*
%TD*%
D15*
%TO.C,C48*%
X220937500Y-155900000D03*
X222662500Y-155900000D03*
%TD*%
D16*
%TO.C,C31*%
X258662500Y-117100000D03*
X256937500Y-117100000D03*
%TD*%
D13*
%TO.C,U26*%
X282850000Y-153985000D03*
X282850000Y-152715000D03*
X282850000Y-151445000D03*
X282850000Y-150175000D03*
X282850000Y-148905000D03*
X282850000Y-147635000D03*
X282850000Y-146365000D03*
X282850000Y-145095000D03*
X282850000Y-143825000D03*
X282850000Y-142555000D03*
X282850000Y-141285000D03*
X282850000Y-140015000D03*
X292150000Y-140015000D03*
X292150000Y-141285000D03*
X292150000Y-142555000D03*
X292150000Y-143825000D03*
X292150000Y-145095000D03*
X292150000Y-146365000D03*
X292150000Y-147635000D03*
X292150000Y-148905000D03*
X292150000Y-150175000D03*
X292150000Y-151445000D03*
X292150000Y-152715000D03*
X292150000Y-153985000D03*
%TD*%
D15*
%TO.C,C62*%
X414137500Y-176800000D03*
X415862500Y-176800000D03*
%TD*%
D14*
%TO.C,R25*%
X258712500Y-155900000D03*
X256887500Y-155900000D03*
%TD*%
%TO.C,R40*%
X129912500Y-176800000D03*
X128087500Y-176800000D03*
%TD*%
%TO.C,R9*%
X387512500Y-114100000D03*
X385687500Y-114100000D03*
%TD*%
D15*
%TO.C,C52*%
X285337500Y-155900000D03*
X287062500Y-155900000D03*
%TD*%
%TO.C,C30*%
X285337500Y-135000000D03*
X287062500Y-135000000D03*
%TD*%
D14*
%TO.C,R43*%
X194312500Y-197700000D03*
X192487500Y-197700000D03*
%TD*%
%TO.C,R30*%
X419712500Y-155900000D03*
X417887500Y-155900000D03*
%TD*%
D15*
%TO.C,C46*%
X188737500Y-155900000D03*
X190462500Y-155900000D03*
%TD*%
D14*
%TO.C,R32*%
X387512500Y-176800000D03*
X385687500Y-176800000D03*
%TD*%
D16*
%TO.C,C75*%
X194262500Y-158900000D03*
X192537500Y-158900000D03*
%TD*%
D13*
%TO.C,U24*%
X218450000Y-153985000D03*
X218450000Y-152715000D03*
X218450000Y-151445000D03*
X218450000Y-150175000D03*
X218450000Y-148905000D03*
X218450000Y-147635000D03*
X218450000Y-146365000D03*
X218450000Y-145095000D03*
X218450000Y-143825000D03*
X218450000Y-142555000D03*
X218450000Y-141285000D03*
X218450000Y-140015000D03*
X227750000Y-140015000D03*
X227750000Y-141285000D03*
X227750000Y-142555000D03*
X227750000Y-143825000D03*
X227750000Y-145095000D03*
X227750000Y-146365000D03*
X227750000Y-147635000D03*
X227750000Y-148905000D03*
X227750000Y-150175000D03*
X227750000Y-151445000D03*
X227750000Y-152715000D03*
X227750000Y-153985000D03*
%TD*%
D15*
%TO.C,C16*%
X349737500Y-114100000D03*
X351462500Y-114100000D03*
%TD*%
D14*
%TO.C,R46*%
X290912500Y-197700000D03*
X289087500Y-197700000D03*
%TD*%
D16*
%TO.C,C79*%
X129862500Y-158900000D03*
X128137500Y-158900000D03*
%TD*%
D15*
%TO.C,C84*%
X156537500Y-197700000D03*
X158262500Y-197700000D03*
%TD*%
D16*
%TO.C,C13*%
X323062500Y-96200000D03*
X321337500Y-96200000D03*
%TD*%
D15*
%TO.C,C64*%
X381937500Y-176800000D03*
X383662500Y-176800000D03*
%TD*%
%TO.C,C28*%
X317537500Y-135000000D03*
X319262500Y-135000000D03*
%TD*%
D16*
%TO.C,C45*%
X194262500Y-138000000D03*
X192537500Y-138000000D03*
%TD*%
%TO.C,C21*%
X419662500Y-117100000D03*
X417937500Y-117100000D03*
%TD*%
D13*
%TO.C,U39*%
X154050000Y-174885000D03*
X154050000Y-173615000D03*
X154050000Y-172345000D03*
X154050000Y-171075000D03*
X154050000Y-169805000D03*
X154050000Y-168535000D03*
X154050000Y-167265000D03*
X154050000Y-165995000D03*
X154050000Y-164725000D03*
X154050000Y-163455000D03*
X154050000Y-162185000D03*
X154050000Y-160915000D03*
X163350000Y-160915000D03*
X163350000Y-162185000D03*
X163350000Y-163455000D03*
X163350000Y-164725000D03*
X163350000Y-165995000D03*
X163350000Y-167265000D03*
X163350000Y-168535000D03*
X163350000Y-169805000D03*
X163350000Y-171075000D03*
X163350000Y-172345000D03*
X163350000Y-173615000D03*
X163350000Y-174885000D03*
%TD*%
%TO.C,U38*%
X186250000Y-174885000D03*
X186250000Y-173615000D03*
X186250000Y-172345000D03*
X186250000Y-171075000D03*
X186250000Y-169805000D03*
X186250000Y-168535000D03*
X186250000Y-167265000D03*
X186250000Y-165995000D03*
X186250000Y-164725000D03*
X186250000Y-163455000D03*
X186250000Y-162185000D03*
X186250000Y-160915000D03*
X195550000Y-160915000D03*
X195550000Y-162185000D03*
X195550000Y-163455000D03*
X195550000Y-164725000D03*
X195550000Y-165995000D03*
X195550000Y-167265000D03*
X195550000Y-168535000D03*
X195550000Y-169805000D03*
X195550000Y-171075000D03*
X195550000Y-172345000D03*
X195550000Y-173615000D03*
X195550000Y-174885000D03*
%TD*%
%TO.C,U19*%
X154050000Y-133085000D03*
X154050000Y-131815000D03*
X154050000Y-130545000D03*
X154050000Y-129275000D03*
X154050000Y-128005000D03*
X154050000Y-126735000D03*
X154050000Y-125465000D03*
X154050000Y-124195000D03*
X154050000Y-122925000D03*
X154050000Y-121655000D03*
X154050000Y-120385000D03*
X154050000Y-119115000D03*
X163350000Y-119115000D03*
X163350000Y-120385000D03*
X163350000Y-121655000D03*
X163350000Y-122925000D03*
X163350000Y-124195000D03*
X163350000Y-125465000D03*
X163350000Y-126735000D03*
X163350000Y-128005000D03*
X163350000Y-129275000D03*
X163350000Y-130545000D03*
X163350000Y-131815000D03*
X163350000Y-133085000D03*
%TD*%
D16*
%TO.C,C29*%
X290862500Y-117100000D03*
X289137500Y-117100000D03*
%TD*%
D14*
%TO.C,R41*%
X129912500Y-197700000D03*
X128087500Y-197700000D03*
%TD*%
D13*
%TO.C,U18*%
X186250000Y-133085000D03*
X186250000Y-131815000D03*
X186250000Y-130545000D03*
X186250000Y-129275000D03*
X186250000Y-128005000D03*
X186250000Y-126735000D03*
X186250000Y-125465000D03*
X186250000Y-124195000D03*
X186250000Y-122925000D03*
X186250000Y-121655000D03*
X186250000Y-120385000D03*
X186250000Y-119115000D03*
X195550000Y-119115000D03*
X195550000Y-120385000D03*
X195550000Y-121655000D03*
X195550000Y-122925000D03*
X195550000Y-124195000D03*
X195550000Y-125465000D03*
X195550000Y-126735000D03*
X195550000Y-128005000D03*
X195550000Y-129275000D03*
X195550000Y-130545000D03*
X195550000Y-131815000D03*
X195550000Y-133085000D03*
%TD*%
D15*
%TO.C,C94*%
X317537500Y-197700000D03*
X319262500Y-197700000D03*
%TD*%
D14*
%TO.C,R29*%
X387512500Y-155900000D03*
X385687500Y-155900000D03*
%TD*%
D16*
%TO.C,C55*%
X355262500Y-138000000D03*
X353537500Y-138000000D03*
%TD*%
D14*
%TO.C,R37*%
X226512500Y-176800000D03*
X224687500Y-176800000D03*
%TD*%
%TO.C,R16*%
X258712500Y-135000000D03*
X256887500Y-135000000D03*
%TD*%
D15*
%TO.C,C70*%
X285337500Y-176800000D03*
X287062500Y-176800000D03*
%TD*%
%TO.C,C2*%
X124337500Y-114100000D03*
X126062500Y-114100000D03*
%TD*%
D14*
%TO.C,R7*%
X323112500Y-114100000D03*
X321287500Y-114100000D03*
%TD*%
D16*
%TO.C,C69*%
X290862500Y-158900000D03*
X289137500Y-158900000D03*
%TD*%
%TO.C,C49*%
X258662500Y-138000000D03*
X256937500Y-138000000D03*
%TD*%
%TO.C,C9*%
X258662500Y-96200000D03*
X256937500Y-96200000D03*
%TD*%
D13*
%TO.C,U30*%
X411650000Y-153985000D03*
X411650000Y-152715000D03*
X411650000Y-151445000D03*
X411650000Y-150175000D03*
X411650000Y-148905000D03*
X411650000Y-147635000D03*
X411650000Y-146365000D03*
X411650000Y-145095000D03*
X411650000Y-143825000D03*
X411650000Y-142555000D03*
X411650000Y-141285000D03*
X411650000Y-140015000D03*
X420950000Y-140015000D03*
X420950000Y-141285000D03*
X420950000Y-142555000D03*
X420950000Y-143825000D03*
X420950000Y-145095000D03*
X420950000Y-146365000D03*
X420950000Y-147635000D03*
X420950000Y-148905000D03*
X420950000Y-150175000D03*
X420950000Y-151445000D03*
X420950000Y-152715000D03*
X420950000Y-153985000D03*
%TD*%
D14*
%TO.C,R22*%
X162112500Y-155900000D03*
X160287500Y-155900000D03*
%TD*%
D16*
%TO.C,C85*%
X194262500Y-179800000D03*
X192537500Y-179800000D03*
%TD*%
D15*
%TO.C,C44*%
X156537500Y-155900000D03*
X158262500Y-155900000D03*
%TD*%
D14*
%TO.C,R3*%
X194312500Y-114100000D03*
X192487500Y-114100000D03*
%TD*%
%TO.C,R48*%
X355312500Y-197700000D03*
X353487500Y-197700000D03*
%TD*%
D13*
%TO.C,U35*%
X282850000Y-174885000D03*
X282850000Y-173615000D03*
X282850000Y-172345000D03*
X282850000Y-171075000D03*
X282850000Y-169805000D03*
X282850000Y-168535000D03*
X282850000Y-167265000D03*
X282850000Y-165995000D03*
X282850000Y-164725000D03*
X282850000Y-163455000D03*
X282850000Y-162185000D03*
X282850000Y-160915000D03*
X292150000Y-160915000D03*
X292150000Y-162185000D03*
X292150000Y-163455000D03*
X292150000Y-164725000D03*
X292150000Y-165995000D03*
X292150000Y-167265000D03*
X292150000Y-168535000D03*
X292150000Y-169805000D03*
X292150000Y-171075000D03*
X292150000Y-172345000D03*
X292150000Y-173615000D03*
X292150000Y-174885000D03*
%TD*%
D16*
%TO.C,C97*%
X387462500Y-179800000D03*
X385737500Y-179800000D03*
%TD*%
D14*
%TO.C,R6*%
X290912500Y-114100000D03*
X289087500Y-114100000D03*
%TD*%
D16*
%TO.C,C35*%
X194262500Y-117100000D03*
X192537500Y-117100000D03*
%TD*%
D14*
%TO.C,R13*%
X355312500Y-135000000D03*
X353487500Y-135000000D03*
%TD*%
%TO.C,R1*%
X129912500Y-114100000D03*
X128087500Y-114100000D03*
%TD*%
%TO.C,R4*%
X226512500Y-114100000D03*
X224687500Y-114100000D03*
%TD*%
D16*
%TO.C,C11*%
X290862500Y-96200000D03*
X289137500Y-96200000D03*
%TD*%
D14*
%TO.C,R39*%
X162112500Y-176800000D03*
X160287500Y-176800000D03*
%TD*%
D16*
%TO.C,C95*%
X351462500Y-197700000D03*
X349737500Y-197700000D03*
%TD*%
%TO.C,C33*%
X226462500Y-117100000D03*
X224737500Y-117100000D03*
%TD*%
D15*
%TO.C,C18*%
X381937500Y-114100000D03*
X383662500Y-114100000D03*
%TD*%
%TO.C,C32*%
X253137500Y-135000000D03*
X254862500Y-135000000D03*
%TD*%
D13*
%TO.C,U36*%
X250650000Y-174885000D03*
X250650000Y-173615000D03*
X250650000Y-172345000D03*
X250650000Y-171075000D03*
X250650000Y-169805000D03*
X250650000Y-168535000D03*
X250650000Y-167265000D03*
X250650000Y-165995000D03*
X250650000Y-164725000D03*
X250650000Y-163455000D03*
X250650000Y-162185000D03*
X250650000Y-160915000D03*
X259950000Y-160915000D03*
X259950000Y-162185000D03*
X259950000Y-163455000D03*
X259950000Y-164725000D03*
X259950000Y-165995000D03*
X259950000Y-167265000D03*
X259950000Y-168535000D03*
X259950000Y-169805000D03*
X259950000Y-171075000D03*
X259950000Y-172345000D03*
X259950000Y-173615000D03*
X259950000Y-174885000D03*
%TD*%
%TO.C,U20*%
X121850000Y-133085000D03*
X121850000Y-131815000D03*
X121850000Y-130545000D03*
X121850000Y-129275000D03*
X121850000Y-128005000D03*
X121850000Y-126735000D03*
X121850000Y-125465000D03*
X121850000Y-124195000D03*
X121850000Y-122925000D03*
X121850000Y-121655000D03*
X121850000Y-120385000D03*
X121850000Y-119115000D03*
X131150000Y-119115000D03*
X131150000Y-120385000D03*
X131150000Y-121655000D03*
X131150000Y-122925000D03*
X131150000Y-124195000D03*
X131150000Y-125465000D03*
X131150000Y-126735000D03*
X131150000Y-128005000D03*
X131150000Y-129275000D03*
X131150000Y-130545000D03*
X131150000Y-131815000D03*
X131150000Y-133085000D03*
%TD*%
D16*
%TO.C,C47*%
X226462500Y-138000000D03*
X224737500Y-138000000D03*
%TD*%
D17*
%TO.C,J1*%
X98350002Y-108554000D03*
X98350002Y-109554001D03*
X98350002Y-110554001D03*
X98350002Y-111553999D03*
D18*
X102250002Y-107254000D03*
X102250002Y-112853999D03*
%TD*%
D14*
%TO.C,R2*%
X162112500Y-114100000D03*
X160287500Y-114100000D03*
%TD*%
%TO.C,R38*%
X194312500Y-176800000D03*
X192487500Y-176800000D03*
%TD*%
D13*
%TO.C,U21*%
X121850000Y-153985000D03*
X121850000Y-152715000D03*
X121850000Y-151445000D03*
X121850000Y-150175000D03*
X121850000Y-148905000D03*
X121850000Y-147635000D03*
X121850000Y-146365000D03*
X121850000Y-145095000D03*
X121850000Y-143825000D03*
X121850000Y-142555000D03*
X121850000Y-141285000D03*
X121850000Y-140015000D03*
X131150000Y-140015000D03*
X131150000Y-141285000D03*
X131150000Y-142555000D03*
X131150000Y-143825000D03*
X131150000Y-145095000D03*
X131150000Y-146365000D03*
X131150000Y-147635000D03*
X131150000Y-148905000D03*
X131150000Y-150175000D03*
X131150000Y-151445000D03*
X131150000Y-152715000D03*
X131150000Y-153985000D03*
%TD*%
D16*
%TO.C,C41*%
X129862500Y-138000000D03*
X128137500Y-138000000D03*
%TD*%
D15*
%TO.C,C88*%
X220937500Y-197700000D03*
X222662500Y-197700000D03*
%TD*%
D13*
%TO.C,U7*%
X315050000Y-112185000D03*
X315050000Y-110915000D03*
X315050000Y-109645000D03*
X315050000Y-108375000D03*
X315050000Y-107105000D03*
X315050000Y-105835000D03*
X315050000Y-104565000D03*
X315050000Y-103295000D03*
X315050000Y-102025000D03*
X315050000Y-100755000D03*
X315050000Y-99485000D03*
X315050000Y-98215000D03*
X324350000Y-98215000D03*
X324350000Y-99485000D03*
X324350000Y-100755000D03*
X324350000Y-102025000D03*
X324350000Y-103295000D03*
X324350000Y-104565000D03*
X324350000Y-105835000D03*
X324350000Y-107105000D03*
X324350000Y-108375000D03*
X324350000Y-109645000D03*
X324350000Y-110915000D03*
X324350000Y-112185000D03*
%TD*%
D16*
%TO.C,C67*%
X323062500Y-158900000D03*
X321337500Y-158900000D03*
%TD*%
D15*
%TO.C,C86*%
X188737500Y-197700000D03*
X190462500Y-197700000D03*
%TD*%
D14*
%TO.C,R21*%
X129912500Y-155900000D03*
X128087500Y-155900000D03*
%TD*%
%TO.C,R18*%
X194312500Y-135000000D03*
X192487500Y-135000000D03*
%TD*%
%TO.C,R10*%
X419712500Y-114100000D03*
X417887500Y-114100000D03*
%TD*%
D13*
%TO.C,U8*%
X347250000Y-112185000D03*
X347250000Y-110915000D03*
X347250000Y-109645000D03*
X347250000Y-108375000D03*
X347250000Y-107105000D03*
X347250000Y-105835000D03*
X347250000Y-104565000D03*
X347250000Y-103295000D03*
X347250000Y-102025000D03*
X347250000Y-100755000D03*
X347250000Y-99485000D03*
X347250000Y-98215000D03*
X356550000Y-98215000D03*
X356550000Y-99485000D03*
X356550000Y-100755000D03*
X356550000Y-102025000D03*
X356550000Y-103295000D03*
X356550000Y-104565000D03*
X356550000Y-105835000D03*
X356550000Y-107105000D03*
X356550000Y-108375000D03*
X356550000Y-109645000D03*
X356550000Y-110915000D03*
X356550000Y-112185000D03*
%TD*%
D14*
%TO.C,R47*%
X323112500Y-197700000D03*
X321287500Y-197700000D03*
%TD*%
D13*
%TO.C,U48*%
X347250000Y-195785000D03*
X347250000Y-194515000D03*
X347250000Y-193245000D03*
X347250000Y-191975000D03*
X347250000Y-190705000D03*
X347250000Y-189435000D03*
X347250000Y-188165000D03*
X347250000Y-186895000D03*
X347250000Y-185625000D03*
X347250000Y-184355000D03*
X347250000Y-183085000D03*
X347250000Y-181815000D03*
X356550000Y-181815000D03*
X356550000Y-183085000D03*
X356550000Y-184355000D03*
X356550000Y-185625000D03*
X356550000Y-186895000D03*
X356550000Y-188165000D03*
X356550000Y-189435000D03*
X356550000Y-190705000D03*
X356550000Y-191975000D03*
X356550000Y-193245000D03*
X356550000Y-194515000D03*
X356550000Y-195785000D03*
%TD*%
D16*
%TO.C,C39*%
X129862500Y-117100000D03*
X128137500Y-117100000D03*
%TD*%
%TO.C,C61*%
X419662500Y-158900000D03*
X417937500Y-158900000D03*
%TD*%
D15*
%TO.C,C92*%
X285337500Y-197700000D03*
X287062500Y-197700000D03*
%TD*%
D14*
%TO.C,R14*%
X323112500Y-135000000D03*
X321287500Y-135000000D03*
%TD*%
D15*
%TO.C,C72*%
X253137500Y-176800000D03*
X254862500Y-176800000D03*
%TD*%
D13*
%TO.C,U42*%
X154050000Y-195785000D03*
X154050000Y-194515000D03*
X154050000Y-193245000D03*
X154050000Y-191975000D03*
X154050000Y-190705000D03*
X154050000Y-189435000D03*
X154050000Y-188165000D03*
X154050000Y-186895000D03*
X154050000Y-185625000D03*
X154050000Y-184355000D03*
X154050000Y-183085000D03*
X154050000Y-181815000D03*
X163350000Y-181815000D03*
X163350000Y-183085000D03*
X163350000Y-184355000D03*
X163350000Y-185625000D03*
X163350000Y-186895000D03*
X163350000Y-188165000D03*
X163350000Y-189435000D03*
X163350000Y-190705000D03*
X163350000Y-191975000D03*
X163350000Y-193245000D03*
X163350000Y-194515000D03*
X163350000Y-195785000D03*
%TD*%
%TO.C,U14*%
X315050000Y-133085000D03*
X315050000Y-131815000D03*
X315050000Y-130545000D03*
X315050000Y-129275000D03*
X315050000Y-128005000D03*
X315050000Y-126735000D03*
X315050000Y-125465000D03*
X315050000Y-124195000D03*
X315050000Y-122925000D03*
X315050000Y-121655000D03*
X315050000Y-120385000D03*
X315050000Y-119115000D03*
X324350000Y-119115000D03*
X324350000Y-120385000D03*
X324350000Y-121655000D03*
X324350000Y-122925000D03*
X324350000Y-124195000D03*
X324350000Y-125465000D03*
X324350000Y-126735000D03*
X324350000Y-128005000D03*
X324350000Y-129275000D03*
X324350000Y-130545000D03*
X324350000Y-131815000D03*
X324350000Y-133085000D03*
%TD*%
%TO.C,U44*%
X218450000Y-195785000D03*
X218450000Y-194515000D03*
X218450000Y-193245000D03*
X218450000Y-191975000D03*
X218450000Y-190705000D03*
X218450000Y-189435000D03*
X218450000Y-188165000D03*
X218450000Y-186895000D03*
X218450000Y-185625000D03*
X218450000Y-184355000D03*
X218450000Y-183085000D03*
X218450000Y-181815000D03*
X227750000Y-181815000D03*
X227750000Y-183085000D03*
X227750000Y-184355000D03*
X227750000Y-185625000D03*
X227750000Y-186895000D03*
X227750000Y-188165000D03*
X227750000Y-189435000D03*
X227750000Y-190705000D03*
X227750000Y-191975000D03*
X227750000Y-193245000D03*
X227750000Y-194515000D03*
X227750000Y-195785000D03*
%TD*%
D16*
%TO.C,C51*%
X290862500Y-138000000D03*
X289137500Y-138000000D03*
%TD*%
D14*
%TO.C,R35*%
X290912500Y-176800000D03*
X289087500Y-176800000D03*
%TD*%
D13*
%TO.C,U1*%
X121850000Y-112185000D03*
X121850000Y-110915000D03*
X121850000Y-109645000D03*
X121850000Y-108375000D03*
X121850000Y-107105000D03*
X121850000Y-105835000D03*
X121850000Y-104565000D03*
X121850000Y-103295000D03*
X121850000Y-102025000D03*
X121850000Y-100755000D03*
X121850000Y-99485000D03*
X121850000Y-98215000D03*
X131150000Y-98215000D03*
X131150000Y-99485000D03*
X131150000Y-100755000D03*
X131150000Y-102025000D03*
X131150000Y-103295000D03*
X131150000Y-104565000D03*
X131150000Y-105835000D03*
X131150000Y-107105000D03*
X131150000Y-108375000D03*
X131150000Y-109645000D03*
X131150000Y-110915000D03*
X131150000Y-112185000D03*
%TD*%
%TO.C,U41*%
X121850000Y-195785000D03*
X121850000Y-194515000D03*
X121850000Y-193245000D03*
X121850000Y-191975000D03*
X121850000Y-190705000D03*
X121850000Y-189435000D03*
X121850000Y-188165000D03*
X121850000Y-186895000D03*
X121850000Y-185625000D03*
X121850000Y-184355000D03*
X121850000Y-183085000D03*
X121850000Y-181815000D03*
X131150000Y-181815000D03*
X131150000Y-183085000D03*
X131150000Y-184355000D03*
X131150000Y-185625000D03*
X131150000Y-186895000D03*
X131150000Y-188165000D03*
X131150000Y-189435000D03*
X131150000Y-190705000D03*
X131150000Y-191975000D03*
X131150000Y-193245000D03*
X131150000Y-194515000D03*
X131150000Y-195785000D03*
%TD*%
D14*
%TO.C,R42*%
X162112500Y-197700000D03*
X160287500Y-197700000D03*
%TD*%
D15*
%TO.C,C8*%
X220937500Y-114100000D03*
X222662500Y-114100000D03*
%TD*%
D14*
%TO.C,R26*%
X290912500Y-155900000D03*
X289087500Y-155900000D03*
%TD*%
D15*
%TO.C,C76*%
X188737500Y-176800000D03*
X190462500Y-176800000D03*
%TD*%
M02*
