%TF.GenerationSoftware,KiCad,Pcbnew,9.0.3*%
%TF.CreationDate,2025-08-19T04:26:06+03:00*%
%TF.ProjectId,wtf_clock,7774665f-636c-46f6-936b-2e6b69636164,rev?*%
%TF.SameCoordinates,Original*%
%TF.FileFunction,Soldermask,Top*%
%TF.FilePolarity,Negative*%
%FSLAX46Y46*%
G04 Gerber Fmt 4.6, Leading zero omitted, Abs format (unit mm)*
G04 Created by KiCad (PCBNEW 9.0.3) date 2025-08-19 04:26:06*
%MOMM*%
%LPD*%
G01*
G04 APERTURE LIST*
G04 Aperture macros list*
%AMRoundRect*
0 Rectangle with rounded corners*
0 $1 Rounding radius*
0 $2 $3 $4 $5 $6 $7 $8 $9 X,Y pos of 4 corners*
0 Add a 4 corners polygon primitive as box body*
4,1,4,$2,$3,$4,$5,$6,$7,$8,$9,$2,$3,0*
0 Add four circle primitives for the rounded corners*
1,1,$1+$1,$2,$3*
1,1,$1+$1,$4,$5*
1,1,$1+$1,$6,$7*
1,1,$1+$1,$8,$9*
0 Add four rect primitives between the rounded corners*
20,1,$1+$1,$2,$3,$4,$5,0*
20,1,$1+$1,$4,$5,$6,$7,0*
20,1,$1+$1,$6,$7,$8,$9,0*
20,1,$1+$1,$8,$9,$2,$3,0*%
G04 Aperture macros list end*
%ADD10RoundRect,0.250000X-0.350000X-0.350000X0.350000X-0.350000X0.350000X0.350000X-0.350000X0.350000X0*%
%ADD11C,1.200000*%
%ADD12C,5.300000*%
G04 APERTURE END LIST*
D10*
%TO.C,HL12*%
X267350000Y-114010000D03*
D11*
X269890000Y-114010000D03*
X272430000Y-114010000D03*
X274970000Y-114010000D03*
X277510000Y-114010000D03*
X280050000Y-114010000D03*
X280050000Y-106390000D03*
X277510000Y-106390000D03*
X274970000Y-106390000D03*
X272430000Y-106390000D03*
X269890000Y-106390000D03*
X267350000Y-106390000D03*
%TD*%
D10*
%TO.C,HL89*%
X235150000Y-187160000D03*
D11*
X237690000Y-187160000D03*
X240230000Y-187160000D03*
X242770000Y-187160000D03*
X245310000Y-187160000D03*
X247850000Y-187160000D03*
X247850000Y-179540000D03*
X245310000Y-179540000D03*
X242770000Y-179540000D03*
X240230000Y-179540000D03*
X237690000Y-179540000D03*
X235150000Y-179540000D03*
%TD*%
D10*
%TO.C,HL5*%
X170750000Y-103560000D03*
D11*
X173290000Y-103560000D03*
X175830000Y-103560000D03*
X178370000Y-103560000D03*
X180910000Y-103560000D03*
X183450000Y-103560000D03*
X183450000Y-95940000D03*
X180910000Y-95940000D03*
X178370000Y-95940000D03*
X175830000Y-95940000D03*
X173290000Y-95940000D03*
X170750000Y-95940000D03*
%TD*%
D10*
%TO.C,HL62*%
X396150000Y-176710000D03*
D11*
X398690000Y-176710000D03*
X401230000Y-176710000D03*
X403770000Y-176710000D03*
X406310000Y-176710000D03*
X408850000Y-176710000D03*
X408850000Y-169090000D03*
X406310000Y-169090000D03*
X403770000Y-169090000D03*
X401230000Y-169090000D03*
X398690000Y-169090000D03*
X396150000Y-169090000D03*
%TD*%
D10*
%TO.C,HL14*%
X299550000Y-114010000D03*
D11*
X302090000Y-114010000D03*
X304630000Y-114010000D03*
X307170000Y-114010000D03*
X309710000Y-114010000D03*
X312250000Y-114010000D03*
X312250000Y-106390000D03*
X309710000Y-106390000D03*
X307170000Y-106390000D03*
X304630000Y-106390000D03*
X302090000Y-106390000D03*
X299550000Y-106390000D03*
%TD*%
D10*
%TO.C,HL49*%
X235150000Y-145360000D03*
D11*
X237690000Y-145360000D03*
X240230000Y-145360000D03*
X242770000Y-145360000D03*
X245310000Y-145360000D03*
X247850000Y-145360000D03*
X247850000Y-137740000D03*
X245310000Y-137740000D03*
X242770000Y-137740000D03*
X240230000Y-137740000D03*
X237690000Y-137740000D03*
X235150000Y-137740000D03*
%TD*%
D10*
%TO.C,HL93*%
X299550000Y-187160000D03*
D11*
X302090000Y-187160000D03*
X304630000Y-187160000D03*
X307170000Y-187160000D03*
X309710000Y-187160000D03*
X312250000Y-187160000D03*
X312250000Y-179540000D03*
X309710000Y-179540000D03*
X307170000Y-179540000D03*
X304630000Y-179540000D03*
X302090000Y-179540000D03*
X299550000Y-179540000D03*
%TD*%
D10*
%TO.C,HL26*%
X331750000Y-134910000D03*
D11*
X334290000Y-134910000D03*
X336830000Y-134910000D03*
X339370000Y-134910000D03*
X341910000Y-134910000D03*
X344450000Y-134910000D03*
X344450000Y-127290000D03*
X341910000Y-127290000D03*
X339370000Y-127290000D03*
X336830000Y-127290000D03*
X334290000Y-127290000D03*
X331750000Y-127290000D03*
%TD*%
D10*
%TO.C,HL90*%
X235150000Y-197610000D03*
D11*
X237690000Y-197610000D03*
X240230000Y-197610000D03*
X242770000Y-197610000D03*
X245310000Y-197610000D03*
X247850000Y-197610000D03*
X247850000Y-189990000D03*
X245310000Y-189990000D03*
X242770000Y-189990000D03*
X240230000Y-189990000D03*
X237690000Y-189990000D03*
X235150000Y-189990000D03*
%TD*%
D10*
%TO.C,HL97*%
X363950000Y-187160000D03*
D11*
X366490000Y-187160000D03*
X369030000Y-187160000D03*
X371570000Y-187160000D03*
X374110000Y-187160000D03*
X376650000Y-187160000D03*
X376650000Y-179540000D03*
X374110000Y-179540000D03*
X371570000Y-179540000D03*
X369030000Y-179540000D03*
X366490000Y-179540000D03*
X363950000Y-179540000D03*
%TD*%
D10*
%TO.C,HL81*%
X106350000Y-187160000D03*
D11*
X108890000Y-187160000D03*
X111430000Y-187160000D03*
X113970000Y-187160000D03*
X116510000Y-187160000D03*
X119050000Y-187160000D03*
X119050000Y-179540000D03*
X116510000Y-179540000D03*
X113970000Y-179540000D03*
X111430000Y-179540000D03*
X108890000Y-179540000D03*
X106350000Y-179540000D03*
%TD*%
D10*
%TO.C,HL82*%
X106350000Y-197610000D03*
D11*
X108890000Y-197610000D03*
X111430000Y-197610000D03*
X113970000Y-197610000D03*
X116510000Y-197610000D03*
X119050000Y-197610000D03*
X119050000Y-189990000D03*
X116510000Y-189990000D03*
X113970000Y-189990000D03*
X111430000Y-189990000D03*
X108890000Y-189990000D03*
X106350000Y-189990000D03*
%TD*%
D10*
%TO.C,HL6*%
X170750000Y-114010000D03*
D11*
X173290000Y-114010000D03*
X175830000Y-114010000D03*
X178370000Y-114010000D03*
X180910000Y-114010000D03*
X183450000Y-114010000D03*
X183450000Y-106390000D03*
X180910000Y-106390000D03*
X178370000Y-106390000D03*
X175830000Y-106390000D03*
X173290000Y-106390000D03*
X170750000Y-106390000D03*
%TD*%
D10*
%TO.C,HL73*%
X202950000Y-166260000D03*
D11*
X205490000Y-166260000D03*
X208030000Y-166260000D03*
X210570000Y-166260000D03*
X213110000Y-166260000D03*
X215650000Y-166260000D03*
X215650000Y-158640000D03*
X213110000Y-158640000D03*
X210570000Y-158640000D03*
X208030000Y-158640000D03*
X205490000Y-158640000D03*
X202950000Y-158640000D03*
%TD*%
D10*
%TO.C,HL48*%
X202950000Y-155810000D03*
D11*
X205490000Y-155810000D03*
X208030000Y-155810000D03*
X210570000Y-155810000D03*
X213110000Y-155810000D03*
X215650000Y-155810000D03*
X215650000Y-148190000D03*
X213110000Y-148190000D03*
X210570000Y-148190000D03*
X208030000Y-148190000D03*
X205490000Y-148190000D03*
X202950000Y-148190000D03*
%TD*%
D10*
%TO.C,HL96*%
X331750000Y-197610000D03*
D11*
X334290000Y-197610000D03*
X336830000Y-197610000D03*
X339370000Y-197610000D03*
X341910000Y-197610000D03*
X344450000Y-197610000D03*
X344450000Y-189990000D03*
X341910000Y-189990000D03*
X339370000Y-189990000D03*
X336830000Y-189990000D03*
X334290000Y-189990000D03*
X331750000Y-189990000D03*
%TD*%
D10*
%TO.C,HL65*%
X331750000Y-166260000D03*
D11*
X334290000Y-166260000D03*
X336830000Y-166260000D03*
X339370000Y-166260000D03*
X341910000Y-166260000D03*
X344450000Y-166260000D03*
X344450000Y-158640000D03*
X341910000Y-158640000D03*
X339370000Y-158640000D03*
X336830000Y-158640000D03*
X334290000Y-158640000D03*
X331750000Y-158640000D03*
%TD*%
D10*
%TO.C,HL76*%
X170750000Y-176710000D03*
D11*
X173290000Y-176710000D03*
X175830000Y-176710000D03*
X178370000Y-176710000D03*
X180910000Y-176710000D03*
X183450000Y-176710000D03*
X183450000Y-169090000D03*
X180910000Y-169090000D03*
X178370000Y-169090000D03*
X175830000Y-169090000D03*
X173290000Y-169090000D03*
X170750000Y-169090000D03*
%TD*%
D10*
%TO.C,HL10*%
X235150000Y-114010000D03*
D11*
X237690000Y-114010000D03*
X240230000Y-114010000D03*
X242770000Y-114010000D03*
X245310000Y-114010000D03*
X247850000Y-114010000D03*
X247850000Y-106390000D03*
X245310000Y-106390000D03*
X242770000Y-106390000D03*
X240230000Y-106390000D03*
X237690000Y-106390000D03*
X235150000Y-106390000D03*
%TD*%
D10*
%TO.C,HL35*%
X170750000Y-124460000D03*
D11*
X173290000Y-124460000D03*
X175830000Y-124460000D03*
X178370000Y-124460000D03*
X180910000Y-124460000D03*
X183450000Y-124460000D03*
X183450000Y-116840000D03*
X180910000Y-116840000D03*
X178370000Y-116840000D03*
X175830000Y-116840000D03*
X173290000Y-116840000D03*
X170750000Y-116840000D03*
%TD*%
D10*
%TO.C,HL75*%
X170750000Y-166260000D03*
D11*
X173290000Y-166260000D03*
X175830000Y-166260000D03*
X178370000Y-166260000D03*
X180910000Y-166260000D03*
X183450000Y-166260000D03*
X183450000Y-158640000D03*
X180910000Y-158640000D03*
X178370000Y-158640000D03*
X175830000Y-158640000D03*
X173290000Y-158640000D03*
X170750000Y-158640000D03*
%TD*%
D10*
%TO.C,HL39*%
X106350000Y-124460000D03*
D11*
X108890000Y-124460000D03*
X111430000Y-124460000D03*
X113970000Y-124460000D03*
X116510000Y-124460000D03*
X119050000Y-124460000D03*
X119050000Y-116840000D03*
X116510000Y-116840000D03*
X113970000Y-116840000D03*
X111430000Y-116840000D03*
X108890000Y-116840000D03*
X106350000Y-116840000D03*
%TD*%
D12*
%TO.C,M7*%
X100100000Y-98650000D03*
%TD*%
D10*
%TO.C,HL69*%
X267350000Y-166260000D03*
D11*
X269890000Y-166260000D03*
X272430000Y-166260000D03*
X274970000Y-166260000D03*
X277510000Y-166260000D03*
X280050000Y-166260000D03*
X280050000Y-158640000D03*
X277510000Y-158640000D03*
X274970000Y-158640000D03*
X272430000Y-158640000D03*
X269890000Y-158640000D03*
X267350000Y-158640000D03*
%TD*%
D10*
%TO.C,HL23*%
X363950000Y-124460000D03*
D11*
X366490000Y-124460000D03*
X369030000Y-124460000D03*
X371570000Y-124460000D03*
X374110000Y-124460000D03*
X376650000Y-124460000D03*
X376650000Y-116840000D03*
X374110000Y-116840000D03*
X371570000Y-116840000D03*
X369030000Y-116840000D03*
X366490000Y-116840000D03*
X363950000Y-116840000D03*
%TD*%
D10*
%TO.C,HL99*%
X396150000Y-187160000D03*
D11*
X398690000Y-187160000D03*
X401230000Y-187160000D03*
X403770000Y-187160000D03*
X406310000Y-187160000D03*
X408850000Y-187160000D03*
X408850000Y-179540000D03*
X406310000Y-179540000D03*
X403770000Y-179540000D03*
X401230000Y-179540000D03*
X398690000Y-179540000D03*
X396150000Y-179540000D03*
%TD*%
D10*
%TO.C,HL22*%
X396150000Y-134910000D03*
D11*
X398690000Y-134910000D03*
X401230000Y-134910000D03*
X403770000Y-134910000D03*
X406310000Y-134910000D03*
X408850000Y-134910000D03*
X408850000Y-127290000D03*
X406310000Y-127290000D03*
X403770000Y-127290000D03*
X401230000Y-127290000D03*
X398690000Y-127290000D03*
X396150000Y-127290000D03*
%TD*%
D12*
%TO.C,M8*%
X393100000Y-98650000D03*
%TD*%
D10*
%TO.C,HL52*%
X267350000Y-155810000D03*
D11*
X269890000Y-155810000D03*
X272430000Y-155810000D03*
X274970000Y-155810000D03*
X277510000Y-155810000D03*
X280050000Y-155810000D03*
X280050000Y-148190000D03*
X277510000Y-148190000D03*
X274970000Y-148190000D03*
X272430000Y-148190000D03*
X269890000Y-148190000D03*
X267350000Y-148190000D03*
%TD*%
D10*
%TO.C,HL71*%
X235150000Y-166260000D03*
D11*
X237690000Y-166260000D03*
X240230000Y-166260000D03*
X242770000Y-166260000D03*
X245310000Y-166260000D03*
X247850000Y-166260000D03*
X247850000Y-158640000D03*
X245310000Y-158640000D03*
X242770000Y-158640000D03*
X240230000Y-158640000D03*
X237690000Y-158640000D03*
X235150000Y-158640000D03*
%TD*%
D10*
%TO.C,HL33*%
X202950000Y-124460000D03*
D11*
X205490000Y-124460000D03*
X208030000Y-124460000D03*
X210570000Y-124460000D03*
X213110000Y-124460000D03*
X215650000Y-124460000D03*
X215650000Y-116840000D03*
X213110000Y-116840000D03*
X210570000Y-116840000D03*
X208030000Y-116840000D03*
X205490000Y-116840000D03*
X202950000Y-116840000D03*
%TD*%
D10*
%TO.C,HL80*%
X106350000Y-176710000D03*
D11*
X108890000Y-176710000D03*
X111430000Y-176710000D03*
X113970000Y-176710000D03*
X116510000Y-176710000D03*
X119050000Y-176710000D03*
X119050000Y-169090000D03*
X116510000Y-169090000D03*
X113970000Y-169090000D03*
X111430000Y-169090000D03*
X108890000Y-169090000D03*
X106350000Y-169090000D03*
%TD*%
D10*
%TO.C,HL16*%
X331750000Y-114010000D03*
D11*
X334290000Y-114010000D03*
X336830000Y-114010000D03*
X339370000Y-114010000D03*
X341910000Y-114010000D03*
X344450000Y-114010000D03*
X344450000Y-106390000D03*
X341910000Y-106390000D03*
X339370000Y-106390000D03*
X336830000Y-106390000D03*
X334290000Y-106390000D03*
X331750000Y-106390000D03*
%TD*%
D10*
%TO.C,HL88*%
X202950000Y-197610000D03*
D11*
X205490000Y-197610000D03*
X208030000Y-197610000D03*
X210570000Y-197610000D03*
X213110000Y-197610000D03*
X215650000Y-197610000D03*
X215650000Y-189990000D03*
X213110000Y-189990000D03*
X210570000Y-189990000D03*
X208030000Y-189990000D03*
X205490000Y-189990000D03*
X202950000Y-189990000D03*
%TD*%
D10*
%TO.C,HL43*%
X138550000Y-145360000D03*
D11*
X141090000Y-145360000D03*
X143630000Y-145360000D03*
X146170000Y-145360000D03*
X148710000Y-145360000D03*
X151250000Y-145360000D03*
X151250000Y-137740000D03*
X148710000Y-137740000D03*
X146170000Y-137740000D03*
X143630000Y-137740000D03*
X141090000Y-137740000D03*
X138550000Y-137740000D03*
%TD*%
D10*
%TO.C,HL28*%
X299550000Y-134910000D03*
D11*
X302090000Y-134910000D03*
X304630000Y-134910000D03*
X307170000Y-134910000D03*
X309710000Y-134910000D03*
X312250000Y-134910000D03*
X312250000Y-127290000D03*
X309710000Y-127290000D03*
X307170000Y-127290000D03*
X304630000Y-127290000D03*
X302090000Y-127290000D03*
X299550000Y-127290000D03*
%TD*%
D12*
%TO.C,M2*%
X167600000Y-120650000D03*
%TD*%
D10*
%TO.C,HL18*%
X363950000Y-114010000D03*
D11*
X366490000Y-114010000D03*
X369030000Y-114010000D03*
X371570000Y-114010000D03*
X374110000Y-114010000D03*
X376650000Y-114010000D03*
X376650000Y-106390000D03*
X374110000Y-106390000D03*
X371570000Y-106390000D03*
X369030000Y-106390000D03*
X366490000Y-106390000D03*
X363950000Y-106390000D03*
%TD*%
D10*
%TO.C,HL4*%
X138550000Y-114010000D03*
D11*
X141090000Y-114010000D03*
X143630000Y-114010000D03*
X146170000Y-114010000D03*
X148710000Y-114010000D03*
X151250000Y-114010000D03*
X151250000Y-106390000D03*
X148710000Y-106390000D03*
X146170000Y-106390000D03*
X143630000Y-106390000D03*
X141090000Y-106390000D03*
X138550000Y-106390000D03*
%TD*%
D10*
%TO.C,HL59*%
X396150000Y-145360000D03*
D11*
X398690000Y-145360000D03*
X401230000Y-145360000D03*
X403770000Y-145360000D03*
X406310000Y-145360000D03*
X408850000Y-145360000D03*
X408850000Y-137740000D03*
X406310000Y-137740000D03*
X403770000Y-137740000D03*
X401230000Y-137740000D03*
X398690000Y-137740000D03*
X396150000Y-137740000D03*
%TD*%
D10*
%TO.C,HL44*%
X138550000Y-155810000D03*
D11*
X141090000Y-155810000D03*
X143630000Y-155810000D03*
X146170000Y-155810000D03*
X148710000Y-155810000D03*
X151250000Y-155810000D03*
X151250000Y-148190000D03*
X148710000Y-148190000D03*
X146170000Y-148190000D03*
X143630000Y-148190000D03*
X141090000Y-148190000D03*
X138550000Y-148190000D03*
%TD*%
D10*
%TO.C,HL83*%
X138550000Y-187160000D03*
D11*
X141090000Y-187160000D03*
X143630000Y-187160000D03*
X146170000Y-187160000D03*
X148710000Y-187160000D03*
X151250000Y-187160000D03*
X151250000Y-179540000D03*
X148710000Y-179540000D03*
X146170000Y-179540000D03*
X143630000Y-179540000D03*
X141090000Y-179540000D03*
X138550000Y-179540000D03*
%TD*%
D10*
%TO.C,HL70*%
X267350000Y-176710000D03*
D11*
X269890000Y-176710000D03*
X272430000Y-176710000D03*
X274970000Y-176710000D03*
X277510000Y-176710000D03*
X280050000Y-176710000D03*
X280050000Y-169090000D03*
X277510000Y-169090000D03*
X274970000Y-169090000D03*
X272430000Y-169090000D03*
X269890000Y-169090000D03*
X267350000Y-169090000D03*
%TD*%
D10*
%TO.C,HL31*%
X235150000Y-124460000D03*
D11*
X237690000Y-124460000D03*
X240230000Y-124460000D03*
X242770000Y-124460000D03*
X245310000Y-124460000D03*
X247850000Y-124460000D03*
X247850000Y-116840000D03*
X245310000Y-116840000D03*
X242770000Y-116840000D03*
X240230000Y-116840000D03*
X237690000Y-116840000D03*
X235150000Y-116840000D03*
%TD*%
D10*
%TO.C,HL61*%
X396150000Y-166260000D03*
D11*
X398690000Y-166260000D03*
X401230000Y-166260000D03*
X403770000Y-166260000D03*
X406310000Y-166260000D03*
X408850000Y-166260000D03*
X408850000Y-158640000D03*
X406310000Y-158640000D03*
X403770000Y-158640000D03*
X401230000Y-158640000D03*
X398690000Y-158640000D03*
X396150000Y-158640000D03*
%TD*%
D10*
%TO.C,HL79*%
X106350000Y-166260000D03*
D11*
X108890000Y-166260000D03*
X111430000Y-166260000D03*
X113970000Y-166260000D03*
X116510000Y-166260000D03*
X119050000Y-166260000D03*
X119050000Y-158640000D03*
X116510000Y-158640000D03*
X113970000Y-158640000D03*
X111430000Y-158640000D03*
X108890000Y-158640000D03*
X106350000Y-158640000D03*
%TD*%
D10*
%TO.C,HL85*%
X170750000Y-187160000D03*
D11*
X173290000Y-187160000D03*
X175830000Y-187160000D03*
X178370000Y-187160000D03*
X180910000Y-187160000D03*
X183450000Y-187160000D03*
X183450000Y-179540000D03*
X180910000Y-179540000D03*
X178370000Y-179540000D03*
X175830000Y-179540000D03*
X173290000Y-179540000D03*
X170750000Y-179540000D03*
%TD*%
D10*
%TO.C,HL98*%
X363950000Y-197610000D03*
D11*
X366490000Y-197610000D03*
X369030000Y-197610000D03*
X371570000Y-197610000D03*
X374110000Y-197610000D03*
X376650000Y-197610000D03*
X376650000Y-189990000D03*
X374110000Y-189990000D03*
X371570000Y-189990000D03*
X369030000Y-189990000D03*
X366490000Y-189990000D03*
X363950000Y-189990000D03*
%TD*%
D10*
%TO.C,HL58*%
X363950000Y-155810000D03*
D11*
X366490000Y-155810000D03*
X369030000Y-155810000D03*
X371570000Y-155810000D03*
X374110000Y-155810000D03*
X376650000Y-155810000D03*
X376650000Y-148190000D03*
X374110000Y-148190000D03*
X371570000Y-148190000D03*
X369030000Y-148190000D03*
X366490000Y-148190000D03*
X363950000Y-148190000D03*
%TD*%
D10*
%TO.C,HL57*%
X363950000Y-145360000D03*
D11*
X366490000Y-145360000D03*
X369030000Y-145360000D03*
X371570000Y-145360000D03*
X374110000Y-145360000D03*
X376650000Y-145360000D03*
X376650000Y-137740000D03*
X374110000Y-137740000D03*
X371570000Y-137740000D03*
X369030000Y-137740000D03*
X366490000Y-137740000D03*
X363950000Y-137740000D03*
%TD*%
D12*
%TO.C,M3*%
X100100000Y-183400000D03*
%TD*%
%TO.C,M1*%
X167600000Y-183400000D03*
%TD*%
D10*
%TO.C,HL50*%
X235150000Y-155810000D03*
D11*
X237690000Y-155810000D03*
X240230000Y-155810000D03*
X242770000Y-155810000D03*
X245310000Y-155810000D03*
X247850000Y-155810000D03*
X247850000Y-148190000D03*
X245310000Y-148190000D03*
X242770000Y-148190000D03*
X240230000Y-148190000D03*
X237690000Y-148190000D03*
X235150000Y-148190000D03*
%TD*%
D10*
%TO.C,HL25*%
X331750000Y-124460000D03*
D11*
X334290000Y-124460000D03*
X336830000Y-124460000D03*
X339370000Y-124460000D03*
X341910000Y-124460000D03*
X344450000Y-124460000D03*
X344450000Y-116840000D03*
X341910000Y-116840000D03*
X339370000Y-116840000D03*
X336830000Y-116840000D03*
X334290000Y-116840000D03*
X331750000Y-116840000D03*
%TD*%
D10*
%TO.C,HL1*%
X106350000Y-103560000D03*
D11*
X108890000Y-103560000D03*
X111430000Y-103560000D03*
X113970000Y-103560000D03*
X116510000Y-103560000D03*
X119050000Y-103560000D03*
X119050000Y-95940000D03*
X116510000Y-95940000D03*
X113970000Y-95940000D03*
X111430000Y-95940000D03*
X108890000Y-95940000D03*
X106350000Y-95940000D03*
%TD*%
D12*
%TO.C,M6*%
X393100000Y-194400000D03*
%TD*%
D10*
%TO.C,HL8*%
X202950000Y-114010000D03*
D11*
X205490000Y-114010000D03*
X208030000Y-114010000D03*
X210570000Y-114010000D03*
X213110000Y-114010000D03*
X215650000Y-114010000D03*
X215650000Y-106390000D03*
X213110000Y-106390000D03*
X210570000Y-106390000D03*
X208030000Y-106390000D03*
X205490000Y-106390000D03*
X202950000Y-106390000D03*
%TD*%
D10*
%TO.C,HL46*%
X170750000Y-155810000D03*
D11*
X173290000Y-155810000D03*
X175830000Y-155810000D03*
X178370000Y-155810000D03*
X180910000Y-155810000D03*
X183450000Y-155810000D03*
X183450000Y-148190000D03*
X180910000Y-148190000D03*
X178370000Y-148190000D03*
X175830000Y-148190000D03*
X173290000Y-148190000D03*
X170750000Y-148190000D03*
%TD*%
D10*
%TO.C,HL42*%
X106350000Y-155810000D03*
D11*
X108890000Y-155810000D03*
X111430000Y-155810000D03*
X113970000Y-155810000D03*
X116510000Y-155810000D03*
X119050000Y-155810000D03*
X119050000Y-148190000D03*
X116510000Y-148190000D03*
X113970000Y-148190000D03*
X111430000Y-148190000D03*
X108890000Y-148190000D03*
X106350000Y-148190000D03*
%TD*%
D10*
%TO.C,HL38*%
X138550000Y-134910000D03*
D11*
X141090000Y-134910000D03*
X143630000Y-134910000D03*
X146170000Y-134910000D03*
X148710000Y-134910000D03*
X151250000Y-134910000D03*
X151250000Y-127290000D03*
X148710000Y-127290000D03*
X146170000Y-127290000D03*
X143630000Y-127290000D03*
X141090000Y-127290000D03*
X138550000Y-127290000D03*
%TD*%
D10*
%TO.C,HL13*%
X299550000Y-103560000D03*
D11*
X302090000Y-103560000D03*
X304630000Y-103560000D03*
X307170000Y-103560000D03*
X309710000Y-103560000D03*
X312250000Y-103560000D03*
X312250000Y-95940000D03*
X309710000Y-95940000D03*
X307170000Y-95940000D03*
X304630000Y-95940000D03*
X302090000Y-95940000D03*
X299550000Y-95940000D03*
%TD*%
D10*
%TO.C,HL74*%
X202950000Y-176710000D03*
D11*
X205490000Y-176710000D03*
X208030000Y-176710000D03*
X210570000Y-176710000D03*
X213110000Y-176710000D03*
X215650000Y-176710000D03*
X215650000Y-169090000D03*
X213110000Y-169090000D03*
X210570000Y-169090000D03*
X208030000Y-169090000D03*
X205490000Y-169090000D03*
X202950000Y-169090000D03*
%TD*%
D10*
%TO.C,HL94*%
X299550000Y-197610000D03*
D11*
X302090000Y-197610000D03*
X304630000Y-197610000D03*
X307170000Y-197610000D03*
X309710000Y-197610000D03*
X312250000Y-197610000D03*
X312250000Y-189990000D03*
X309710000Y-189990000D03*
X307170000Y-189990000D03*
X304630000Y-189990000D03*
X302090000Y-189990000D03*
X299550000Y-189990000D03*
%TD*%
D10*
%TO.C,HL27*%
X299550000Y-124460000D03*
D11*
X302090000Y-124460000D03*
X304630000Y-124460000D03*
X307170000Y-124460000D03*
X309710000Y-124460000D03*
X312250000Y-124460000D03*
X312250000Y-116840000D03*
X309710000Y-116840000D03*
X307170000Y-116840000D03*
X304630000Y-116840000D03*
X302090000Y-116840000D03*
X299550000Y-116840000D03*
%TD*%
D10*
%TO.C,HL40*%
X106350000Y-134910000D03*
D11*
X108890000Y-134910000D03*
X111430000Y-134910000D03*
X113970000Y-134910000D03*
X116510000Y-134910000D03*
X119050000Y-134910000D03*
X119050000Y-127290000D03*
X116510000Y-127290000D03*
X113970000Y-127290000D03*
X111430000Y-127290000D03*
X108890000Y-127290000D03*
X106350000Y-127290000D03*
%TD*%
D10*
%TO.C,HL91*%
X267350000Y-187160000D03*
D11*
X269890000Y-187160000D03*
X272430000Y-187160000D03*
X274970000Y-187160000D03*
X277510000Y-187160000D03*
X280050000Y-187160000D03*
X280050000Y-179540000D03*
X277510000Y-179540000D03*
X274970000Y-179540000D03*
X272430000Y-179540000D03*
X269890000Y-179540000D03*
X267350000Y-179540000D03*
%TD*%
D10*
%TO.C,HL86*%
X170750000Y-197610000D03*
D11*
X173290000Y-197610000D03*
X175830000Y-197610000D03*
X178370000Y-197610000D03*
X180910000Y-197610000D03*
X183450000Y-197610000D03*
X183450000Y-189990000D03*
X180910000Y-189990000D03*
X178370000Y-189990000D03*
X175830000Y-189990000D03*
X173290000Y-189990000D03*
X170750000Y-189990000D03*
%TD*%
D10*
%TO.C,HL68*%
X299550000Y-176710000D03*
D11*
X302090000Y-176710000D03*
X304630000Y-176710000D03*
X307170000Y-176710000D03*
X309710000Y-176710000D03*
X312250000Y-176710000D03*
X312250000Y-169090000D03*
X309710000Y-169090000D03*
X307170000Y-169090000D03*
X304630000Y-169090000D03*
X302090000Y-169090000D03*
X299550000Y-169090000D03*
%TD*%
D10*
%TO.C,HL63*%
X363950000Y-166260000D03*
D11*
X366490000Y-166260000D03*
X369030000Y-166260000D03*
X371570000Y-166260000D03*
X374110000Y-166260000D03*
X376650000Y-166260000D03*
X376650000Y-158640000D03*
X374110000Y-158640000D03*
X371570000Y-158640000D03*
X369030000Y-158640000D03*
X366490000Y-158640000D03*
X363950000Y-158640000D03*
%TD*%
D10*
%TO.C,HL72*%
X235150000Y-176710000D03*
D11*
X237690000Y-176710000D03*
X240230000Y-176710000D03*
X242770000Y-176710000D03*
X245310000Y-176710000D03*
X247850000Y-176710000D03*
X247850000Y-169090000D03*
X245310000Y-169090000D03*
X242770000Y-169090000D03*
X240230000Y-169090000D03*
X237690000Y-169090000D03*
X235150000Y-169090000D03*
%TD*%
D10*
%TO.C,HL56*%
X331750000Y-155810000D03*
D11*
X334290000Y-155810000D03*
X336830000Y-155810000D03*
X339370000Y-155810000D03*
X341910000Y-155810000D03*
X344450000Y-155810000D03*
X344450000Y-148190000D03*
X341910000Y-148190000D03*
X339370000Y-148190000D03*
X336830000Y-148190000D03*
X334290000Y-148190000D03*
X331750000Y-148190000D03*
%TD*%
D10*
%TO.C,HL19*%
X396150000Y-103560000D03*
D11*
X398690000Y-103560000D03*
X401230000Y-103560000D03*
X403770000Y-103560000D03*
X406310000Y-103560000D03*
X408850000Y-103560000D03*
X408850000Y-95940000D03*
X406310000Y-95940000D03*
X403770000Y-95940000D03*
X401230000Y-95940000D03*
X398690000Y-95940000D03*
X396150000Y-95940000D03*
%TD*%
D10*
%TO.C,HL11*%
X267350000Y-103560000D03*
D11*
X269890000Y-103560000D03*
X272430000Y-103560000D03*
X274970000Y-103560000D03*
X277510000Y-103560000D03*
X280050000Y-103560000D03*
X280050000Y-95940000D03*
X277510000Y-95940000D03*
X274970000Y-95940000D03*
X272430000Y-95940000D03*
X269890000Y-95940000D03*
X267350000Y-95940000D03*
%TD*%
D10*
%TO.C,HL15*%
X331750000Y-103560000D03*
D11*
X334290000Y-103560000D03*
X336830000Y-103560000D03*
X339370000Y-103560000D03*
X341910000Y-103560000D03*
X344450000Y-103560000D03*
X344450000Y-95940000D03*
X341910000Y-95940000D03*
X339370000Y-95940000D03*
X336830000Y-95940000D03*
X334290000Y-95940000D03*
X331750000Y-95940000D03*
%TD*%
D10*
%TO.C,HL2*%
X106350000Y-114010000D03*
D11*
X108890000Y-114010000D03*
X111430000Y-114010000D03*
X113970000Y-114010000D03*
X116510000Y-114010000D03*
X119050000Y-114010000D03*
X119050000Y-106390000D03*
X116510000Y-106390000D03*
X113970000Y-106390000D03*
X111430000Y-106390000D03*
X108890000Y-106390000D03*
X106350000Y-106390000D03*
%TD*%
D10*
%TO.C,HL32*%
X235150000Y-134910000D03*
D11*
X237690000Y-134910000D03*
X240230000Y-134910000D03*
X242770000Y-134910000D03*
X245310000Y-134910000D03*
X247850000Y-134910000D03*
X247850000Y-127290000D03*
X245310000Y-127290000D03*
X242770000Y-127290000D03*
X240230000Y-127290000D03*
X237690000Y-127290000D03*
X235150000Y-127290000D03*
%TD*%
D10*
%TO.C,HL37*%
X138550000Y-124460000D03*
D11*
X141090000Y-124460000D03*
X143630000Y-124460000D03*
X146170000Y-124460000D03*
X148710000Y-124460000D03*
X151250000Y-124460000D03*
X151250000Y-116840000D03*
X148710000Y-116840000D03*
X146170000Y-116840000D03*
X143630000Y-116840000D03*
X141090000Y-116840000D03*
X138550000Y-116840000D03*
%TD*%
D10*
%TO.C,HL17*%
X363950000Y-103560000D03*
D11*
X366490000Y-103560000D03*
X369030000Y-103560000D03*
X371570000Y-103560000D03*
X374110000Y-103560000D03*
X376650000Y-103560000D03*
X376650000Y-95940000D03*
X374110000Y-95940000D03*
X371570000Y-95940000D03*
X369030000Y-95940000D03*
X366490000Y-95940000D03*
X363950000Y-95940000D03*
%TD*%
D10*
%TO.C,HL92*%
X267350000Y-197610000D03*
D11*
X269890000Y-197610000D03*
X272430000Y-197610000D03*
X274970000Y-197610000D03*
X277510000Y-197610000D03*
X280050000Y-197610000D03*
X280050000Y-189990000D03*
X277510000Y-189990000D03*
X274970000Y-189990000D03*
X272430000Y-189990000D03*
X269890000Y-189990000D03*
X267350000Y-189990000D03*
%TD*%
D10*
%TO.C,HL51*%
X267350000Y-145360000D03*
D11*
X269890000Y-145360000D03*
X272430000Y-145360000D03*
X274970000Y-145360000D03*
X277510000Y-145360000D03*
X280050000Y-145360000D03*
X280050000Y-137740000D03*
X277510000Y-137740000D03*
X274970000Y-137740000D03*
X272430000Y-137740000D03*
X269890000Y-137740000D03*
X267350000Y-137740000D03*
%TD*%
D10*
%TO.C,HL53*%
X299550000Y-145360000D03*
D11*
X302090000Y-145360000D03*
X304630000Y-145360000D03*
X307170000Y-145360000D03*
X309710000Y-145360000D03*
X312250000Y-145360000D03*
X312250000Y-137740000D03*
X309710000Y-137740000D03*
X307170000Y-137740000D03*
X304630000Y-137740000D03*
X302090000Y-137740000D03*
X299550000Y-137740000D03*
%TD*%
D12*
%TO.C,M5*%
X100100000Y-194400000D03*
%TD*%
D10*
%TO.C,HL55*%
X331750000Y-145360000D03*
D11*
X334290000Y-145360000D03*
X336830000Y-145360000D03*
X339370000Y-145360000D03*
X341910000Y-145360000D03*
X344450000Y-145360000D03*
X344450000Y-137740000D03*
X341910000Y-137740000D03*
X339370000Y-137740000D03*
X336830000Y-137740000D03*
X334290000Y-137740000D03*
X331750000Y-137740000D03*
%TD*%
D10*
%TO.C,HL77*%
X138550000Y-166260000D03*
D11*
X141090000Y-166260000D03*
X143630000Y-166260000D03*
X146170000Y-166260000D03*
X148710000Y-166260000D03*
X151250000Y-166260000D03*
X151250000Y-158640000D03*
X148710000Y-158640000D03*
X146170000Y-158640000D03*
X143630000Y-158640000D03*
X141090000Y-158640000D03*
X138550000Y-158640000D03*
%TD*%
D10*
%TO.C,HL67*%
X299550000Y-166260000D03*
D11*
X302090000Y-166260000D03*
X304630000Y-166260000D03*
X307170000Y-166260000D03*
X309710000Y-166260000D03*
X312250000Y-166260000D03*
X312250000Y-158640000D03*
X309710000Y-158640000D03*
X307170000Y-158640000D03*
X304630000Y-158640000D03*
X302090000Y-158640000D03*
X299550000Y-158640000D03*
%TD*%
D10*
%TO.C,HL60*%
X396150000Y-155810000D03*
D11*
X398690000Y-155810000D03*
X401230000Y-155810000D03*
X403770000Y-155810000D03*
X406310000Y-155810000D03*
X408850000Y-155810000D03*
X408850000Y-148190000D03*
X406310000Y-148190000D03*
X403770000Y-148190000D03*
X401230000Y-148190000D03*
X398690000Y-148190000D03*
X396150000Y-148190000D03*
%TD*%
D10*
%TO.C,HL9*%
X235150000Y-103560000D03*
D11*
X237690000Y-103560000D03*
X240230000Y-103560000D03*
X242770000Y-103560000D03*
X245310000Y-103560000D03*
X247850000Y-103560000D03*
X247850000Y-95940000D03*
X245310000Y-95940000D03*
X242770000Y-95940000D03*
X240230000Y-95940000D03*
X237690000Y-95940000D03*
X235150000Y-95940000D03*
%TD*%
D10*
%TO.C,HL47*%
X202950000Y-145360000D03*
D11*
X205490000Y-145360000D03*
X208030000Y-145360000D03*
X210570000Y-145360000D03*
X213110000Y-145360000D03*
X215650000Y-145360000D03*
X215650000Y-137740000D03*
X213110000Y-137740000D03*
X210570000Y-137740000D03*
X208030000Y-137740000D03*
X205490000Y-137740000D03*
X202950000Y-137740000D03*
%TD*%
D10*
%TO.C,HL24*%
X363950000Y-134910000D03*
D11*
X366490000Y-134910000D03*
X369030000Y-134910000D03*
X371570000Y-134910000D03*
X374110000Y-134910000D03*
X376650000Y-134910000D03*
X376650000Y-127290000D03*
X374110000Y-127290000D03*
X371570000Y-127290000D03*
X369030000Y-127290000D03*
X366490000Y-127290000D03*
X363950000Y-127290000D03*
%TD*%
D10*
%TO.C,HL36*%
X170750000Y-134910000D03*
D11*
X173290000Y-134910000D03*
X175830000Y-134910000D03*
X178370000Y-134910000D03*
X180910000Y-134910000D03*
X183450000Y-134910000D03*
X183450000Y-127290000D03*
X180910000Y-127290000D03*
X178370000Y-127290000D03*
X175830000Y-127290000D03*
X173290000Y-127290000D03*
X170750000Y-127290000D03*
%TD*%
D10*
%TO.C,HL87*%
X202950000Y-187160000D03*
D11*
X205490000Y-187160000D03*
X208030000Y-187160000D03*
X210570000Y-187160000D03*
X213110000Y-187160000D03*
X215650000Y-187160000D03*
X215650000Y-179540000D03*
X213110000Y-179540000D03*
X210570000Y-179540000D03*
X208030000Y-179540000D03*
X205490000Y-179540000D03*
X202950000Y-179540000D03*
%TD*%
D10*
%TO.C,HL29*%
X267350000Y-124460000D03*
D11*
X269890000Y-124460000D03*
X272430000Y-124460000D03*
X274970000Y-124460000D03*
X277510000Y-124460000D03*
X280050000Y-124460000D03*
X280050000Y-116840000D03*
X277510000Y-116840000D03*
X274970000Y-116840000D03*
X272430000Y-116840000D03*
X269890000Y-116840000D03*
X267350000Y-116840000D03*
%TD*%
D10*
%TO.C,HL30*%
X267350000Y-134910000D03*
D11*
X269890000Y-134910000D03*
X272430000Y-134910000D03*
X274970000Y-134910000D03*
X277510000Y-134910000D03*
X280050000Y-134910000D03*
X280050000Y-127290000D03*
X277510000Y-127290000D03*
X274970000Y-127290000D03*
X272430000Y-127290000D03*
X269890000Y-127290000D03*
X267350000Y-127290000D03*
%TD*%
D10*
%TO.C,HL41*%
X106350000Y-145360000D03*
D11*
X108890000Y-145360000D03*
X111430000Y-145360000D03*
X113970000Y-145360000D03*
X116510000Y-145360000D03*
X119050000Y-145360000D03*
X119050000Y-137740000D03*
X116510000Y-137740000D03*
X113970000Y-137740000D03*
X111430000Y-137740000D03*
X108890000Y-137740000D03*
X106350000Y-137740000D03*
%TD*%
D10*
%TO.C,HL100*%
X396150000Y-197610000D03*
D11*
X398690000Y-197610000D03*
X401230000Y-197610000D03*
X403770000Y-197610000D03*
X406310000Y-197610000D03*
X408850000Y-197610000D03*
X408850000Y-189990000D03*
X406310000Y-189990000D03*
X403770000Y-189990000D03*
X401230000Y-189990000D03*
X398690000Y-189990000D03*
X396150000Y-189990000D03*
%TD*%
D10*
%TO.C,HL20*%
X396150000Y-114010000D03*
D11*
X398690000Y-114010000D03*
X401230000Y-114010000D03*
X403770000Y-114010000D03*
X406310000Y-114010000D03*
X408850000Y-114010000D03*
X408850000Y-106390000D03*
X406310000Y-106390000D03*
X403770000Y-106390000D03*
X401230000Y-106390000D03*
X398690000Y-106390000D03*
X396150000Y-106390000D03*
%TD*%
D10*
%TO.C,HL34*%
X202950000Y-134910000D03*
D11*
X205490000Y-134910000D03*
X208030000Y-134910000D03*
X210570000Y-134910000D03*
X213110000Y-134910000D03*
X215650000Y-134910000D03*
X215650000Y-127290000D03*
X213110000Y-127290000D03*
X210570000Y-127290000D03*
X208030000Y-127290000D03*
X205490000Y-127290000D03*
X202950000Y-127290000D03*
%TD*%
D10*
%TO.C,HL66*%
X331750000Y-176710000D03*
D11*
X334290000Y-176710000D03*
X336830000Y-176710000D03*
X339370000Y-176710000D03*
X341910000Y-176710000D03*
X344450000Y-176710000D03*
X344450000Y-169090000D03*
X341910000Y-169090000D03*
X339370000Y-169090000D03*
X336830000Y-169090000D03*
X334290000Y-169090000D03*
X331750000Y-169090000D03*
%TD*%
D10*
%TO.C,HL3*%
X138550000Y-103560000D03*
D11*
X141090000Y-103560000D03*
X143630000Y-103560000D03*
X146170000Y-103560000D03*
X148710000Y-103560000D03*
X151250000Y-103560000D03*
X151250000Y-95940000D03*
X148710000Y-95940000D03*
X146170000Y-95940000D03*
X143630000Y-95940000D03*
X141090000Y-95940000D03*
X138550000Y-95940000D03*
%TD*%
D10*
%TO.C,HL64*%
X363950000Y-176710000D03*
D11*
X366490000Y-176710000D03*
X369030000Y-176710000D03*
X371570000Y-176710000D03*
X374110000Y-176710000D03*
X376650000Y-176710000D03*
X376650000Y-169090000D03*
X374110000Y-169090000D03*
X371570000Y-169090000D03*
X369030000Y-169090000D03*
X366490000Y-169090000D03*
X363950000Y-169090000D03*
%TD*%
D10*
%TO.C,HL45*%
X170750000Y-145360000D03*
D11*
X173290000Y-145360000D03*
X175830000Y-145360000D03*
X178370000Y-145360000D03*
X180910000Y-145360000D03*
X183450000Y-145360000D03*
X183450000Y-137740000D03*
X180910000Y-137740000D03*
X178370000Y-137740000D03*
X175830000Y-137740000D03*
X173290000Y-137740000D03*
X170750000Y-137740000D03*
%TD*%
D10*
%TO.C,HL21*%
X396150000Y-124460000D03*
D11*
X398690000Y-124460000D03*
X401230000Y-124460000D03*
X403770000Y-124460000D03*
X406310000Y-124460000D03*
X408850000Y-124460000D03*
X408850000Y-116840000D03*
X406310000Y-116840000D03*
X403770000Y-116840000D03*
X401230000Y-116840000D03*
X398690000Y-116840000D03*
X396150000Y-116840000D03*
%TD*%
D10*
%TO.C,HL95*%
X331750000Y-187160000D03*
D11*
X334290000Y-187160000D03*
X336830000Y-187160000D03*
X339370000Y-187160000D03*
X341910000Y-187160000D03*
X344450000Y-187160000D03*
X344450000Y-179540000D03*
X341910000Y-179540000D03*
X339370000Y-179540000D03*
X336830000Y-179540000D03*
X334290000Y-179540000D03*
X331750000Y-179540000D03*
%TD*%
D10*
%TO.C,HL78*%
X138550000Y-176710000D03*
D11*
X141090000Y-176710000D03*
X143630000Y-176710000D03*
X146170000Y-176710000D03*
X148710000Y-176710000D03*
X151250000Y-176710000D03*
X151250000Y-169090000D03*
X148710000Y-169090000D03*
X146170000Y-169090000D03*
X143630000Y-169090000D03*
X141090000Y-169090000D03*
X138550000Y-169090000D03*
%TD*%
D12*
%TO.C,M4*%
X100100000Y-120650000D03*
%TD*%
D10*
%TO.C,HL54*%
X299550000Y-155810000D03*
D11*
X302090000Y-155810000D03*
X304630000Y-155810000D03*
X307170000Y-155810000D03*
X309710000Y-155810000D03*
X312250000Y-155810000D03*
X312250000Y-148190000D03*
X309710000Y-148190000D03*
X307170000Y-148190000D03*
X304630000Y-148190000D03*
X302090000Y-148190000D03*
X299550000Y-148190000D03*
%TD*%
D10*
%TO.C,HL7*%
X202950000Y-103560000D03*
D11*
X205490000Y-103560000D03*
X208030000Y-103560000D03*
X210570000Y-103560000D03*
X213110000Y-103560000D03*
X215650000Y-103560000D03*
X215650000Y-95940000D03*
X213110000Y-95940000D03*
X210570000Y-95940000D03*
X208030000Y-95940000D03*
X205490000Y-95940000D03*
X202950000Y-95940000D03*
%TD*%
D10*
%TO.C,HL84*%
X138550000Y-197610000D03*
D11*
X141090000Y-197610000D03*
X143630000Y-197610000D03*
X146170000Y-197610000D03*
X148710000Y-197610000D03*
X151250000Y-197610000D03*
X151250000Y-189990000D03*
X148710000Y-189990000D03*
X146170000Y-189990000D03*
X143630000Y-189990000D03*
X141090000Y-189990000D03*
X138550000Y-189990000D03*
%TD*%
M02*
